M48
METRIC
T1C0.300
T2C0.600
T3C0.800
T4C1.000
T5C0.650
T6C2.100
%
G90
G05
T1
X142.66Y-91.03
X142.67Y-103.09
X143.08Y-87.1
X143.2Y-89.645
X143.2Y-97.645
X143.2Y-105.645
X144.11Y-108.9
X146.84Y-103.11
X146.85Y-91.13
X147.2Y-81.645
X147.2Y-85.645
X147.2Y-89.645
X147.2Y-105.645
X147.2Y-109.645
X147.2Y-113.645
X150.0Y-103.4
X150.1Y-97.0
X151.2Y-81.645
X151.2Y-85.645
X151.2Y-105.645
X151.2Y-109.645
X151.2Y-113.645
X153.0Y-92.5
X154.2Y-92.5
X155.2Y-105.645
X155.2Y-109.645
X155.2Y-113.645
X155.55Y-81.86
X156.22Y-98.42
X156.34Y-96.72
X156.78Y-92.56
X157.14Y-102.63
X157.44Y-103.54
X157.98Y-85.23
X159.2Y-89.645
X159.2Y-113.645
X160.29Y-105.71
X160.91Y-88.807
X161.04Y-85.2
X162.41Y-95.81
X162.75Y-87.1
X162.775Y-86.205
X163.2Y-109.645
X163.2Y-113.645
X164.085Y-98.235
X164.22Y-81.58
X165.075Y-90.275
X165.23Y-101.75
X165.305Y-95.155
X166.06Y-86.48
X166.09Y-108.64
X167.2Y-89.645
X167.2Y-101.645
X167.2Y-105.645
T3
X152.95Y-101.05
X154.95Y-101.05
T4
X149.29Y-83.6
X151.79Y-83.6
X157.64Y-110.0
X160.14Y-110.0
T5
X146.34Y-94.2
X146.34Y-99.98
T6
X143.0Y-83.0
X143.0Y-112.0
X167.0Y-83.0
X167.0Y-112.0
T2
G00X143.06Y-92.77
M15
G01X142.26Y-92.77
M16
G05
G00X143.06Y-101.41
M15
G01X142.26Y-101.41
M16
G05
G00X147.39Y-92.77
M15
G01X146.29Y-92.77
M16
G05
G00X147.39Y-101.41
M15
G01X146.29Y-101.41
M16
G05
M30
