%TF.GenerationSoftware,KiCad,Pcbnew,9.0.3*%
%TF.CreationDate,2026-01-14T20:06:22-06:00*%
%TF.ProjectId,PWR-MGR-PCB,5057522d-4d47-4522-9d50-43422e6b6963,rev?*%
%TF.SameCoordinates,Original*%
%TF.FileFunction,Copper,L2,Bot*%
%TF.FilePolarity,Positive*%
%FSLAX46Y46*%
G04 Gerber Fmt 4.6, Leading zero omitted, Abs format (unit mm)*
G04 Created by KiCad (PCBNEW 9.0.3) date 2026-01-14 20:06:22*
%MOMM*%
%LPD*%
G01*
G04 APERTURE LIST*
G04 Aperture macros list*
%AMRoundRect*
0 Rectangle with rounded corners*
0 $1 Rounding radius*
0 $2 $3 $4 $5 $6 $7 $8 $9 X,Y pos of 4 corners*
0 Add a 4 corners polygon primitive as box body*
4,1,4,$2,$3,$4,$5,$6,$7,$8,$9,$2,$3,0*
0 Add four circle primitives for the rounded corners*
1,1,$1+$1,$2,$3*
1,1,$1+$1,$4,$5*
1,1,$1+$1,$6,$7*
1,1,$1+$1,$8,$9*
0 Add four rect primitives between the rounded corners*
20,1,$1+$1,$2,$3,$4,$5,0*
20,1,$1+$1,$4,$5,$6,$7,0*
20,1,$1+$1,$6,$7,$8,$9,0*
20,1,$1+$1,$8,$9,$2,$3,0*%
G04 Aperture macros list end*
%TA.AperFunction,HeatsinkPad*%
%ADD10O,2.100000X1.000000*%
%TD*%
%TA.AperFunction,HeatsinkPad*%
%ADD11O,1.800000X1.000000*%
%TD*%
%TA.AperFunction,ComponentPad*%
%ADD12RoundRect,0.250000X-0.600000X-0.750000X0.600000X-0.750000X0.600000X0.750000X-0.600000X0.750000X0*%
%TD*%
%TA.AperFunction,ComponentPad*%
%ADD13O,1.700000X2.000000*%
%TD*%
%TA.AperFunction,ComponentPad*%
%ADD14R,1.350000X1.350000*%
%TD*%
%TA.AperFunction,ComponentPad*%
%ADD15C,1.350000*%
%TD*%
%TA.AperFunction,ViaPad*%
%ADD16C,0.600000*%
%TD*%
G04 APERTURE END LIST*
D10*
%TO.P,J3,S1,SHIELD*%
%TO.N,GND*%
X146840000Y-92770000D03*
D11*
X142660000Y-92770000D03*
D10*
X146840000Y-101410000D03*
D11*
X142660000Y-101410000D03*
%TD*%
D12*
%TO.P,J1,1,Pin_1*%
%TO.N,GND*%
X149290000Y-83600000D03*
D13*
%TO.P,J1,2,Pin_2*%
%TO.N,+3.3V*%
X151790000Y-83600000D03*
%TD*%
D12*
%TO.P,J2,1,Pin_1*%
%TO.N,GND*%
X157640000Y-110000000D03*
D13*
%TO.P,J2,2,Pin_2*%
%TO.N,/PWR-MGR-01/BAT+*%
X160140000Y-110000000D03*
%TD*%
D14*
%TO.P,J5,1,Pin_1*%
%TO.N,/PWR-MGR-01/USB_D-*%
X152950000Y-101050000D03*
D15*
%TO.P,J5,2,Pin_2*%
%TO.N,/PWR-MGR-01/USB_D+*%
X154950000Y-101050000D03*
%TD*%
D16*
%TO.N,GND*%
X164220000Y-81580000D03*
X157140000Y-102630000D03*
X147200000Y-85644852D03*
X164085000Y-98235000D03*
X155200000Y-113644852D03*
X159200000Y-89644852D03*
X165230000Y-101750000D03*
X151200000Y-85644852D03*
X167200000Y-105644852D03*
X166060000Y-86480000D03*
X156780000Y-92560000D03*
X157440000Y-103540000D03*
X161040000Y-85200000D03*
X160290000Y-105710000D03*
X163200000Y-109644852D03*
X147200000Y-89644852D03*
X143200000Y-105644852D03*
X143080000Y-87100000D03*
X155200000Y-105644852D03*
X162410000Y-95810000D03*
X156220000Y-98420000D03*
X162775000Y-86205000D03*
X155550000Y-81860000D03*
X146850000Y-91130000D03*
X151200000Y-113644852D03*
X157980000Y-85230000D03*
X160910000Y-88807500D03*
X151200000Y-81644852D03*
X156340000Y-96720000D03*
X155200000Y-109644852D03*
X147200000Y-81644852D03*
X167200000Y-89644852D03*
X150100000Y-97000000D03*
X165075000Y-90275000D03*
X163200000Y-113644852D03*
X142660000Y-91030000D03*
X147200000Y-109644852D03*
X167200000Y-101644852D03*
X147200000Y-113644852D03*
X150000000Y-103400000D03*
X153000000Y-92500000D03*
X143200000Y-97644852D03*
X151200000Y-109644852D03*
X166090000Y-108640000D03*
X144110000Y-108900000D03*
X147200000Y-105644852D03*
X165305000Y-95155000D03*
X143200000Y-89644852D03*
X146840000Y-103110000D03*
X154200000Y-92500000D03*
X162750000Y-87100000D03*
X159200000Y-113644852D03*
X142670000Y-103090000D03*
X151200000Y-105644852D03*
%TD*%
%TA.AperFunction,Conductor*%
%TO.N,GND*%
G36*
X168004418Y-80400816D02*
G01*
X168218791Y-80416148D01*
X168236296Y-80418665D01*
X168441969Y-80463406D01*
X168458928Y-80468385D01*
X168656150Y-80541946D01*
X168672242Y-80549296D01*
X168856968Y-80650163D01*
X168871848Y-80659724D01*
X169040353Y-80785866D01*
X169053723Y-80797452D01*
X169202547Y-80946276D01*
X169214133Y-80959646D01*
X169340271Y-81128146D01*
X169349836Y-81143031D01*
X169450703Y-81327757D01*
X169458053Y-81343849D01*
X169531611Y-81541063D01*
X169536595Y-81558039D01*
X169581333Y-81763700D01*
X169583851Y-81781211D01*
X169599184Y-81995580D01*
X169599500Y-82004427D01*
X169599500Y-112995572D01*
X169599184Y-113004419D01*
X169583851Y-113218788D01*
X169581333Y-113236299D01*
X169536595Y-113441960D01*
X169531611Y-113458936D01*
X169458053Y-113656150D01*
X169450703Y-113672242D01*
X169349836Y-113856968D01*
X169340271Y-113871853D01*
X169214133Y-114040353D01*
X169202547Y-114053723D01*
X169053723Y-114202547D01*
X169040353Y-114214133D01*
X168871853Y-114340271D01*
X168856968Y-114349836D01*
X168672242Y-114450703D01*
X168656150Y-114458053D01*
X168458936Y-114531611D01*
X168441960Y-114536595D01*
X168236299Y-114581333D01*
X168218788Y-114583851D01*
X168023369Y-114597828D01*
X168004417Y-114599184D01*
X167995572Y-114599500D01*
X142004428Y-114599500D01*
X141995582Y-114599184D01*
X141974407Y-114597669D01*
X141781211Y-114583851D01*
X141763700Y-114581333D01*
X141558039Y-114536595D01*
X141541063Y-114531611D01*
X141343849Y-114458053D01*
X141327757Y-114450703D01*
X141143031Y-114349836D01*
X141128146Y-114340271D01*
X140959646Y-114214133D01*
X140946276Y-114202547D01*
X140797452Y-114053723D01*
X140785866Y-114040353D01*
X140745924Y-113986997D01*
X140659724Y-113871848D01*
X140650163Y-113856968D01*
X140549296Y-113672242D01*
X140541946Y-113656150D01*
X140468385Y-113458928D01*
X140463406Y-113441969D01*
X140418665Y-113236296D01*
X140416148Y-113218787D01*
X140408549Y-113112545D01*
X140400816Y-113004418D01*
X140400500Y-112995572D01*
X140400500Y-111905513D01*
X141799500Y-111905513D01*
X141799500Y-112094486D01*
X141829059Y-112281118D01*
X141887454Y-112460836D01*
X141973240Y-112629199D01*
X142084310Y-112782073D01*
X142217927Y-112915690D01*
X142370801Y-113026760D01*
X142450347Y-113067290D01*
X142539163Y-113112545D01*
X142539165Y-113112545D01*
X142539168Y-113112547D01*
X142635497Y-113143846D01*
X142718881Y-113170940D01*
X142905514Y-113200500D01*
X142905519Y-113200500D01*
X143094486Y-113200500D01*
X143281118Y-113170940D01*
X143460832Y-113112547D01*
X143629199Y-113026760D01*
X143782073Y-112915690D01*
X143915690Y-112782073D01*
X144026760Y-112629199D01*
X144112547Y-112460832D01*
X144170940Y-112281118D01*
X144200500Y-112094486D01*
X144200500Y-111905513D01*
X165799500Y-111905513D01*
X165799500Y-112094486D01*
X165829059Y-112281118D01*
X165887454Y-112460836D01*
X165973240Y-112629199D01*
X166084310Y-112782073D01*
X166217927Y-112915690D01*
X166370801Y-113026760D01*
X166450347Y-113067290D01*
X166539163Y-113112545D01*
X166539165Y-113112545D01*
X166539168Y-113112547D01*
X166635497Y-113143846D01*
X166718881Y-113170940D01*
X166905514Y-113200500D01*
X166905519Y-113200500D01*
X167094486Y-113200500D01*
X167281118Y-113170940D01*
X167460832Y-113112547D01*
X167629199Y-113026760D01*
X167782073Y-112915690D01*
X167915690Y-112782073D01*
X168026760Y-112629199D01*
X168112547Y-112460832D01*
X168170940Y-112281118D01*
X168200500Y-112094486D01*
X168200500Y-111905513D01*
X168170940Y-111718881D01*
X168112545Y-111539163D01*
X168026759Y-111370800D01*
X167915690Y-111217927D01*
X167782073Y-111084310D01*
X167629199Y-110973240D01*
X167614941Y-110965975D01*
X167460836Y-110887454D01*
X167281118Y-110829059D01*
X167094486Y-110799500D01*
X167094481Y-110799500D01*
X166905519Y-110799500D01*
X166905514Y-110799500D01*
X166718881Y-110829059D01*
X166539163Y-110887454D01*
X166370800Y-110973240D01*
X166283579Y-111036610D01*
X166217927Y-111084310D01*
X166217925Y-111084312D01*
X166217924Y-111084312D01*
X166084312Y-111217924D01*
X166084312Y-111217925D01*
X166084310Y-111217927D01*
X166036610Y-111283579D01*
X165973240Y-111370800D01*
X165887454Y-111539163D01*
X165829059Y-111718881D01*
X165799500Y-111905513D01*
X144200500Y-111905513D01*
X144170940Y-111718881D01*
X144112545Y-111539163D01*
X144026759Y-111370800D01*
X143915690Y-111217927D01*
X143782073Y-111084310D01*
X143629199Y-110973240D01*
X143614941Y-110965975D01*
X143460836Y-110887454D01*
X143281118Y-110829059D01*
X143094486Y-110799500D01*
X143094481Y-110799500D01*
X142905519Y-110799500D01*
X142905514Y-110799500D01*
X142718881Y-110829059D01*
X142539163Y-110887454D01*
X142370800Y-110973240D01*
X142283579Y-111036610D01*
X142217927Y-111084310D01*
X142217925Y-111084312D01*
X142217924Y-111084312D01*
X142084312Y-111217924D01*
X142084312Y-111217925D01*
X142084310Y-111217927D01*
X142036610Y-111283579D01*
X141973240Y-111370800D01*
X141887454Y-111539163D01*
X141829059Y-111718881D01*
X141799500Y-111905513D01*
X140400500Y-111905513D01*
X140400500Y-109200013D01*
X156290000Y-109200013D01*
X156290000Y-109750000D01*
X157206988Y-109750000D01*
X157174075Y-109807007D01*
X157140000Y-109934174D01*
X157140000Y-110065826D01*
X157174075Y-110192993D01*
X157206988Y-110250000D01*
X156290001Y-110250000D01*
X156290001Y-110799986D01*
X156300494Y-110902697D01*
X156355641Y-111069119D01*
X156355643Y-111069124D01*
X156447684Y-111218345D01*
X156571654Y-111342315D01*
X156720875Y-111434356D01*
X156720880Y-111434358D01*
X156887302Y-111489505D01*
X156887309Y-111489506D01*
X156990019Y-111499999D01*
X157389999Y-111499999D01*
X157390000Y-111499998D01*
X157390000Y-110433012D01*
X157447007Y-110465925D01*
X157574174Y-110500000D01*
X157705826Y-110500000D01*
X157832993Y-110465925D01*
X157890000Y-110433012D01*
X157890000Y-111499999D01*
X158289972Y-111499999D01*
X158289986Y-111499998D01*
X158392697Y-111489505D01*
X158559119Y-111434358D01*
X158559124Y-111434356D01*
X158708345Y-111342315D01*
X158832315Y-111218345D01*
X158924356Y-111069124D01*
X158924358Y-111069119D01*
X158979505Y-110902697D01*
X158979506Y-110902690D01*
X158989999Y-110799986D01*
X158989999Y-110728528D01*
X159009683Y-110661488D01*
X159062486Y-110615732D01*
X159131644Y-110605788D01*
X159195200Y-110634812D01*
X159217101Y-110659635D01*
X159324022Y-110819655D01*
X159470342Y-110965975D01*
X159470345Y-110965977D01*
X159642402Y-111080941D01*
X159833580Y-111160130D01*
X160036530Y-111200499D01*
X160036534Y-111200500D01*
X160036535Y-111200500D01*
X160243466Y-111200500D01*
X160243467Y-111200499D01*
X160446420Y-111160130D01*
X160637598Y-111080941D01*
X160809655Y-110965977D01*
X160955977Y-110819655D01*
X161070941Y-110647598D01*
X161150130Y-110456420D01*
X161190500Y-110253465D01*
X161190500Y-109746535D01*
X161150130Y-109543580D01*
X161070941Y-109352402D01*
X160955977Y-109180345D01*
X160955975Y-109180342D01*
X160809657Y-109034024D01*
X160723626Y-108976541D01*
X160637598Y-108919059D01*
X160446420Y-108839870D01*
X160446412Y-108839868D01*
X160243469Y-108799500D01*
X160243465Y-108799500D01*
X160036535Y-108799500D01*
X160036530Y-108799500D01*
X159833587Y-108839868D01*
X159833579Y-108839870D01*
X159642403Y-108919058D01*
X159470342Y-109034024D01*
X159324024Y-109180342D01*
X159217102Y-109340365D01*
X159163489Y-109385171D01*
X159094165Y-109393878D01*
X159031137Y-109363724D01*
X158994417Y-109304281D01*
X158989999Y-109271475D01*
X158989999Y-109200028D01*
X158989998Y-109200012D01*
X158979505Y-109097302D01*
X158924358Y-108930880D01*
X158924356Y-108930875D01*
X158832315Y-108781654D01*
X158708345Y-108657684D01*
X158559124Y-108565643D01*
X158559119Y-108565641D01*
X158392697Y-108510494D01*
X158392690Y-108510493D01*
X158289986Y-108500000D01*
X157890000Y-108500000D01*
X157890000Y-109566988D01*
X157832993Y-109534075D01*
X157705826Y-109500000D01*
X157574174Y-109500000D01*
X157447007Y-109534075D01*
X157390000Y-109566988D01*
X157390000Y-108500000D01*
X156990028Y-108500000D01*
X156990012Y-108500001D01*
X156887302Y-108510494D01*
X156720880Y-108565641D01*
X156720875Y-108565643D01*
X156571654Y-108657684D01*
X156447684Y-108781654D01*
X156355643Y-108930875D01*
X156355641Y-108930880D01*
X156300494Y-109097302D01*
X156300493Y-109097309D01*
X156290000Y-109200013D01*
X140400500Y-109200013D01*
X140400500Y-101160000D01*
X141290138Y-101160000D01*
X142093012Y-101160000D01*
X142075795Y-101169940D01*
X142019940Y-101225795D01*
X141980444Y-101294204D01*
X141960000Y-101370504D01*
X141960000Y-101449496D01*
X141980444Y-101525796D01*
X142019940Y-101594205D01*
X142075795Y-101650060D01*
X142093012Y-101660000D01*
X141290138Y-101660000D01*
X141298430Y-101701690D01*
X141298430Y-101701692D01*
X141373807Y-101883671D01*
X141373814Y-101883684D01*
X141483248Y-102047462D01*
X141483251Y-102047466D01*
X141622533Y-102186748D01*
X141622537Y-102186751D01*
X141786315Y-102296185D01*
X141786328Y-102296192D01*
X141968306Y-102371569D01*
X141968318Y-102371572D01*
X142161504Y-102409999D01*
X142161508Y-102410000D01*
X142410000Y-102410000D01*
X142410000Y-101710000D01*
X142910000Y-101710000D01*
X142910000Y-102410000D01*
X143158492Y-102410000D01*
X143158495Y-102409999D01*
X143351681Y-102371572D01*
X143351693Y-102371569D01*
X143533671Y-102296192D01*
X143533684Y-102296185D01*
X143697462Y-102186751D01*
X143697466Y-102186748D01*
X143836748Y-102047466D01*
X143836751Y-102047462D01*
X143946185Y-101883684D01*
X143946192Y-101883671D01*
X144021569Y-101701692D01*
X144021569Y-101701690D01*
X144029862Y-101660000D01*
X143226988Y-101660000D01*
X143244205Y-101650060D01*
X143300060Y-101594205D01*
X143339556Y-101525796D01*
X143360000Y-101449496D01*
X143360000Y-101370504D01*
X143339556Y-101294204D01*
X143300060Y-101225795D01*
X143244205Y-101169940D01*
X143226988Y-101160000D01*
X144029862Y-101160000D01*
X145320138Y-101160000D01*
X146123012Y-101160000D01*
X146105795Y-101169940D01*
X146049940Y-101225795D01*
X146010444Y-101294204D01*
X145990000Y-101370504D01*
X145990000Y-101449496D01*
X146010444Y-101525796D01*
X146049940Y-101594205D01*
X146105795Y-101650060D01*
X146123012Y-101660000D01*
X145320138Y-101660000D01*
X145328430Y-101701690D01*
X145328430Y-101701692D01*
X145403807Y-101883671D01*
X145403814Y-101883684D01*
X145513248Y-102047462D01*
X145513251Y-102047466D01*
X145652533Y-102186748D01*
X145652537Y-102186751D01*
X145816315Y-102296185D01*
X145816328Y-102296192D01*
X145998306Y-102371569D01*
X145998318Y-102371572D01*
X146191504Y-102409999D01*
X146191508Y-102410000D01*
X146590000Y-102410000D01*
X146590000Y-101710000D01*
X147090000Y-101710000D01*
X147090000Y-102410000D01*
X147488492Y-102410000D01*
X147488495Y-102409999D01*
X147681681Y-102371572D01*
X147681693Y-102371569D01*
X147863671Y-102296192D01*
X147863684Y-102296185D01*
X148027462Y-102186751D01*
X148027466Y-102186748D01*
X148166748Y-102047466D01*
X148166751Y-102047462D01*
X148276185Y-101883684D01*
X148276192Y-101883671D01*
X148351569Y-101701692D01*
X148351569Y-101701690D01*
X148359862Y-101660000D01*
X147556988Y-101660000D01*
X147574205Y-101650060D01*
X147630060Y-101594205D01*
X147669556Y-101525796D01*
X147690000Y-101449496D01*
X147690000Y-101370504D01*
X147669556Y-101294204D01*
X147630060Y-101225795D01*
X147574205Y-101169940D01*
X147556988Y-101160000D01*
X148359862Y-101160000D01*
X148351569Y-101118309D01*
X148351569Y-101118307D01*
X148276192Y-100936328D01*
X148276185Y-100936315D01*
X148166751Y-100772537D01*
X148166748Y-100772533D01*
X148027466Y-100633251D01*
X148027462Y-100633248D01*
X147863684Y-100523814D01*
X147863671Y-100523807D01*
X147718608Y-100463721D01*
X147681693Y-100448430D01*
X147681681Y-100448427D01*
X147488495Y-100410000D01*
X147090000Y-100410000D01*
X147090000Y-101110000D01*
X146590000Y-101110000D01*
X146590000Y-100453821D01*
X146598644Y-100424380D01*
X146605168Y-100394394D01*
X146608922Y-100389378D01*
X146609685Y-100386782D01*
X146626319Y-100366140D01*
X146637212Y-100355247D01*
X152074500Y-100355247D01*
X152074500Y-101744752D01*
X152086131Y-101803229D01*
X152086132Y-101803230D01*
X152130447Y-101869552D01*
X152196769Y-101913867D01*
X152196770Y-101913868D01*
X152255247Y-101925499D01*
X152255250Y-101925500D01*
X152255252Y-101925500D01*
X153644750Y-101925500D01*
X153644751Y-101925499D01*
X153659568Y-101922552D01*
X153703229Y-101913868D01*
X153703229Y-101913867D01*
X153703231Y-101913867D01*
X153769552Y-101869552D01*
X153813867Y-101803231D01*
X153813867Y-101803229D01*
X153813868Y-101803229D01*
X153825499Y-101744752D01*
X153825500Y-101744750D01*
X153825500Y-100963766D01*
X154074500Y-100963766D01*
X154074500Y-101136233D01*
X154108143Y-101305366D01*
X154108146Y-101305378D01*
X154174138Y-101464698D01*
X154174145Y-101464711D01*
X154269954Y-101608098D01*
X154269957Y-101608102D01*
X154391897Y-101730042D01*
X154391901Y-101730045D01*
X154535288Y-101825854D01*
X154535301Y-101825861D01*
X154674868Y-101883671D01*
X154694626Y-101891855D01*
X154863766Y-101925499D01*
X154863769Y-101925500D01*
X154863771Y-101925500D01*
X155036231Y-101925500D01*
X155036232Y-101925499D01*
X155205374Y-101891855D01*
X155364705Y-101825858D01*
X155508099Y-101730045D01*
X155630045Y-101608099D01*
X155725858Y-101464705D01*
X155791855Y-101305374D01*
X155825500Y-101136229D01*
X155825500Y-100963771D01*
X155825500Y-100963768D01*
X155825499Y-100963766D01*
X155791856Y-100794633D01*
X155791855Y-100794626D01*
X155791853Y-100794621D01*
X155725861Y-100635301D01*
X155725854Y-100635288D01*
X155630045Y-100491901D01*
X155630042Y-100491897D01*
X155508102Y-100369957D01*
X155508098Y-100369954D01*
X155364711Y-100274145D01*
X155364698Y-100274138D01*
X155205378Y-100208146D01*
X155205366Y-100208143D01*
X155036232Y-100174500D01*
X155036229Y-100174500D01*
X154863771Y-100174500D01*
X154863768Y-100174500D01*
X154694633Y-100208143D01*
X154694621Y-100208146D01*
X154535301Y-100274138D01*
X154535288Y-100274145D01*
X154391901Y-100369954D01*
X154391897Y-100369957D01*
X154269957Y-100491897D01*
X154269954Y-100491901D01*
X154174145Y-100635288D01*
X154174138Y-100635301D01*
X154108146Y-100794621D01*
X154108143Y-100794633D01*
X154074500Y-100963766D01*
X153825500Y-100963766D01*
X153825500Y-100355249D01*
X153825499Y-100355247D01*
X153813868Y-100296770D01*
X153813867Y-100296769D01*
X153769552Y-100230447D01*
X153703230Y-100186132D01*
X153703229Y-100186131D01*
X153644752Y-100174500D01*
X153644748Y-100174500D01*
X152255252Y-100174500D01*
X152255247Y-100174500D01*
X152196770Y-100186131D01*
X152196769Y-100186132D01*
X152130447Y-100230447D01*
X152086132Y-100296769D01*
X152086131Y-100296770D01*
X152074500Y-100355247D01*
X146637212Y-100355247D01*
X146654251Y-100338208D01*
X146720495Y-100271964D01*
X146783095Y-100163536D01*
X146815500Y-100042601D01*
X146815500Y-99917399D01*
X146783095Y-99796464D01*
X146720495Y-99688036D01*
X146631964Y-99599505D01*
X146523536Y-99536905D01*
X146523537Y-99536905D01*
X146483224Y-99526103D01*
X146402601Y-99504500D01*
X146277399Y-99504500D01*
X146196775Y-99526103D01*
X146156463Y-99536905D01*
X146048037Y-99599504D01*
X146048034Y-99599506D01*
X145959506Y-99688034D01*
X145959504Y-99688037D01*
X145896905Y-99796463D01*
X145896905Y-99796464D01*
X145864500Y-99917399D01*
X145864500Y-100042601D01*
X145896905Y-100163536D01*
X145922658Y-100208143D01*
X145959504Y-100271962D01*
X145959506Y-100271965D01*
X145964426Y-100276885D01*
X145997911Y-100338208D01*
X145992927Y-100407900D01*
X145951055Y-100463833D01*
X145924198Y-100479127D01*
X145816325Y-100523809D01*
X145816315Y-100523814D01*
X145652537Y-100633248D01*
X145652533Y-100633251D01*
X145513251Y-100772533D01*
X145513248Y-100772537D01*
X145403814Y-100936315D01*
X145403807Y-100936328D01*
X145328430Y-101118307D01*
X145328430Y-101118309D01*
X145320138Y-101160000D01*
X144029862Y-101160000D01*
X144021569Y-101118309D01*
X144021569Y-101118307D01*
X143946192Y-100936328D01*
X143946185Y-100936315D01*
X143836751Y-100772537D01*
X143836748Y-100772533D01*
X143697466Y-100633251D01*
X143697462Y-100633248D01*
X143533684Y-100523814D01*
X143533671Y-100523807D01*
X143351693Y-100448430D01*
X143351681Y-100448427D01*
X143158495Y-100410000D01*
X142910000Y-100410000D01*
X142910000Y-101110000D01*
X142410000Y-101110000D01*
X142410000Y-100410000D01*
X142161504Y-100410000D01*
X141968318Y-100448427D01*
X141968306Y-100448430D01*
X141786328Y-100523807D01*
X141786315Y-100523814D01*
X141622537Y-100633248D01*
X141622533Y-100633251D01*
X141483251Y-100772533D01*
X141483248Y-100772537D01*
X141373814Y-100936315D01*
X141373807Y-100936328D01*
X141298430Y-101118307D01*
X141298430Y-101118309D01*
X141290138Y-101160000D01*
X140400500Y-101160000D01*
X140400500Y-92520000D01*
X141290138Y-92520000D01*
X142093012Y-92520000D01*
X142075795Y-92529940D01*
X142019940Y-92585795D01*
X141980444Y-92654204D01*
X141960000Y-92730504D01*
X141960000Y-92809496D01*
X141980444Y-92885796D01*
X142019940Y-92954205D01*
X142075795Y-93010060D01*
X142093012Y-93020000D01*
X141290138Y-93020000D01*
X141298430Y-93061690D01*
X141298430Y-93061692D01*
X141373807Y-93243671D01*
X141373814Y-93243684D01*
X141483248Y-93407462D01*
X141483251Y-93407466D01*
X141622533Y-93546748D01*
X141622537Y-93546751D01*
X141786315Y-93656185D01*
X141786328Y-93656192D01*
X141968306Y-93731569D01*
X141968318Y-93731572D01*
X142161504Y-93769999D01*
X142161508Y-93770000D01*
X142410000Y-93770000D01*
X142410000Y-93070000D01*
X142910000Y-93070000D01*
X142910000Y-93770000D01*
X143158492Y-93770000D01*
X143158495Y-93769999D01*
X143351681Y-93731572D01*
X143351693Y-93731569D01*
X143533671Y-93656192D01*
X143533684Y-93656185D01*
X143697462Y-93546751D01*
X143697466Y-93546748D01*
X143836748Y-93407466D01*
X143836751Y-93407462D01*
X143946185Y-93243684D01*
X143946192Y-93243671D01*
X144021569Y-93061692D01*
X144021569Y-93061690D01*
X144029862Y-93020000D01*
X143226988Y-93020000D01*
X143244205Y-93010060D01*
X143300060Y-92954205D01*
X143339556Y-92885796D01*
X143360000Y-92809496D01*
X143360000Y-92730504D01*
X143339556Y-92654204D01*
X143300060Y-92585795D01*
X143244205Y-92529940D01*
X143226988Y-92520000D01*
X144029862Y-92520000D01*
X145320138Y-92520000D01*
X146123012Y-92520000D01*
X146105795Y-92529940D01*
X146049940Y-92585795D01*
X146010444Y-92654204D01*
X145990000Y-92730504D01*
X145990000Y-92809496D01*
X146010444Y-92885796D01*
X146049940Y-92954205D01*
X146105795Y-93010060D01*
X146123012Y-93020000D01*
X145320138Y-93020000D01*
X145328430Y-93061690D01*
X145328430Y-93061692D01*
X145403807Y-93243671D01*
X145403814Y-93243684D01*
X145513248Y-93407462D01*
X145513251Y-93407466D01*
X145652533Y-93546748D01*
X145652537Y-93546751D01*
X145816315Y-93656185D01*
X145816328Y-93656192D01*
X145924197Y-93700872D01*
X145978601Y-93744712D01*
X146000666Y-93811006D01*
X145983387Y-93878706D01*
X145964430Y-93903110D01*
X145959508Y-93908032D01*
X145959504Y-93908037D01*
X145896905Y-94016463D01*
X145896905Y-94016464D01*
X145864500Y-94137399D01*
X145864500Y-94262601D01*
X145896905Y-94383536D01*
X145959505Y-94491964D01*
X146048036Y-94580495D01*
X146156464Y-94643095D01*
X146277399Y-94675500D01*
X146277401Y-94675500D01*
X146402599Y-94675500D01*
X146402601Y-94675500D01*
X146523536Y-94643095D01*
X146631964Y-94580495D01*
X146720495Y-94491964D01*
X146783095Y-94383536D01*
X146815500Y-94262601D01*
X146815500Y-94137399D01*
X146783095Y-94016464D01*
X146720495Y-93908036D01*
X146631964Y-93819505D01*
X146626319Y-93813860D01*
X146592834Y-93752537D01*
X146590000Y-93726179D01*
X146590000Y-93070000D01*
X147090000Y-93070000D01*
X147090000Y-93770000D01*
X147488492Y-93770000D01*
X147488495Y-93769999D01*
X147681681Y-93731572D01*
X147681693Y-93731569D01*
X147863671Y-93656192D01*
X147863684Y-93656185D01*
X148027462Y-93546751D01*
X148027466Y-93546748D01*
X148166748Y-93407466D01*
X148166751Y-93407462D01*
X148276185Y-93243684D01*
X148276192Y-93243671D01*
X148351569Y-93061692D01*
X148351569Y-93061690D01*
X148359862Y-93020000D01*
X147556988Y-93020000D01*
X147574205Y-93010060D01*
X147630060Y-92954205D01*
X147669556Y-92885796D01*
X147690000Y-92809496D01*
X147690000Y-92730504D01*
X147669556Y-92654204D01*
X147630060Y-92585795D01*
X147574205Y-92529940D01*
X147556988Y-92520000D01*
X148359862Y-92520000D01*
X148351569Y-92478309D01*
X148351569Y-92478307D01*
X148276192Y-92296328D01*
X148276185Y-92296315D01*
X148166751Y-92132537D01*
X148166748Y-92132533D01*
X148027466Y-91993251D01*
X148027462Y-91993248D01*
X147863684Y-91883814D01*
X147863671Y-91883807D01*
X147681693Y-91808430D01*
X147681681Y-91808427D01*
X147488495Y-91770000D01*
X147090000Y-91770000D01*
X147090000Y-92470000D01*
X146590000Y-92470000D01*
X146590000Y-91770000D01*
X146191504Y-91770000D01*
X145998318Y-91808427D01*
X145998306Y-91808430D01*
X145816328Y-91883807D01*
X145816315Y-91883814D01*
X145652537Y-91993248D01*
X145652533Y-91993251D01*
X145513251Y-92132533D01*
X145513248Y-92132537D01*
X145403814Y-92296315D01*
X145403807Y-92296328D01*
X145328430Y-92478307D01*
X145328430Y-92478309D01*
X145320138Y-92520000D01*
X144029862Y-92520000D01*
X144021569Y-92478309D01*
X144021569Y-92478307D01*
X143946192Y-92296328D01*
X143946185Y-92296315D01*
X143836751Y-92132537D01*
X143836748Y-92132533D01*
X143697466Y-91993251D01*
X143697462Y-91993248D01*
X143533684Y-91883814D01*
X143533671Y-91883807D01*
X143351693Y-91808430D01*
X143351681Y-91808427D01*
X143158495Y-91770000D01*
X142910000Y-91770000D01*
X142910000Y-92470000D01*
X142410000Y-92470000D01*
X142410000Y-91770000D01*
X142161504Y-91770000D01*
X141968318Y-91808427D01*
X141968306Y-91808430D01*
X141786328Y-91883807D01*
X141786315Y-91883814D01*
X141622537Y-91993248D01*
X141622533Y-91993251D01*
X141483251Y-92132533D01*
X141483248Y-92132537D01*
X141373814Y-92296315D01*
X141373807Y-92296328D01*
X141298430Y-92478307D01*
X141298430Y-92478309D01*
X141290138Y-92520000D01*
X140400500Y-92520000D01*
X140400500Y-82905513D01*
X141799500Y-82905513D01*
X141799500Y-83094486D01*
X141829059Y-83281118D01*
X141887454Y-83460836D01*
X141924822Y-83534174D01*
X141973240Y-83629199D01*
X142084310Y-83782073D01*
X142217927Y-83915690D01*
X142370801Y-84026760D01*
X142428997Y-84056412D01*
X142539163Y-84112545D01*
X142539165Y-84112545D01*
X142539168Y-84112547D01*
X142635497Y-84143846D01*
X142718881Y-84170940D01*
X142905514Y-84200500D01*
X142905519Y-84200500D01*
X143094486Y-84200500D01*
X143281118Y-84170940D01*
X143460832Y-84112547D01*
X143629199Y-84026760D01*
X143782073Y-83915690D01*
X143915690Y-83782073D01*
X144026760Y-83629199D01*
X144112547Y-83460832D01*
X144170940Y-83281118D01*
X144200500Y-83094486D01*
X144200500Y-82905513D01*
X144186364Y-82816262D01*
X144183790Y-82800013D01*
X147940000Y-82800013D01*
X147940000Y-83350000D01*
X148856988Y-83350000D01*
X148824075Y-83407007D01*
X148790000Y-83534174D01*
X148790000Y-83665826D01*
X148824075Y-83792993D01*
X148856988Y-83850000D01*
X147940001Y-83850000D01*
X147940001Y-84399986D01*
X147950494Y-84502697D01*
X148005641Y-84669119D01*
X148005643Y-84669124D01*
X148097684Y-84818345D01*
X148221654Y-84942315D01*
X148370875Y-85034356D01*
X148370880Y-85034358D01*
X148537302Y-85089505D01*
X148537309Y-85089506D01*
X148640019Y-85099999D01*
X149039999Y-85099999D01*
X149040000Y-85099998D01*
X149040000Y-84033012D01*
X149097007Y-84065925D01*
X149224174Y-84100000D01*
X149355826Y-84100000D01*
X149482993Y-84065925D01*
X149540000Y-84033012D01*
X149540000Y-85099999D01*
X149939972Y-85099999D01*
X149939986Y-85099998D01*
X150042697Y-85089505D01*
X150209119Y-85034358D01*
X150209124Y-85034356D01*
X150358345Y-84942315D01*
X150482315Y-84818345D01*
X150574356Y-84669124D01*
X150574358Y-84669119D01*
X150629505Y-84502697D01*
X150629506Y-84502690D01*
X150639999Y-84399986D01*
X150639999Y-84328528D01*
X150659683Y-84261488D01*
X150712486Y-84215732D01*
X150781644Y-84205788D01*
X150845200Y-84234812D01*
X150867101Y-84259635D01*
X150974022Y-84419655D01*
X151120342Y-84565975D01*
X151120345Y-84565977D01*
X151292402Y-84680941D01*
X151483580Y-84760130D01*
X151686530Y-84800499D01*
X151686534Y-84800500D01*
X151686535Y-84800500D01*
X151893466Y-84800500D01*
X151893467Y-84800499D01*
X152096420Y-84760130D01*
X152287598Y-84680941D01*
X152459655Y-84565977D01*
X152605977Y-84419655D01*
X152720941Y-84247598D01*
X152800130Y-84056420D01*
X152840500Y-83853465D01*
X152840500Y-83346535D01*
X152800130Y-83143580D01*
X152720941Y-82952402D01*
X152689611Y-82905513D01*
X165799500Y-82905513D01*
X165799500Y-83094486D01*
X165829059Y-83281118D01*
X165887454Y-83460836D01*
X165924822Y-83534174D01*
X165973240Y-83629199D01*
X166084310Y-83782073D01*
X166217927Y-83915690D01*
X166370801Y-84026760D01*
X166428997Y-84056412D01*
X166539163Y-84112545D01*
X166539165Y-84112545D01*
X166539168Y-84112547D01*
X166635497Y-84143846D01*
X166718881Y-84170940D01*
X166905514Y-84200500D01*
X166905519Y-84200500D01*
X167094486Y-84200500D01*
X167281118Y-84170940D01*
X167460832Y-84112547D01*
X167629199Y-84026760D01*
X167782073Y-83915690D01*
X167915690Y-83782073D01*
X168026760Y-83629199D01*
X168112547Y-83460832D01*
X168170940Y-83281118D01*
X168200500Y-83094486D01*
X168200500Y-82905513D01*
X168170940Y-82718881D01*
X168112545Y-82539163D01*
X168041383Y-82399500D01*
X168026760Y-82370801D01*
X167915690Y-82217927D01*
X167782073Y-82084310D01*
X167629199Y-81973240D01*
X167578236Y-81947273D01*
X167460836Y-81887454D01*
X167281118Y-81829059D01*
X167094486Y-81799500D01*
X167094481Y-81799500D01*
X166905519Y-81799500D01*
X166905514Y-81799500D01*
X166718881Y-81829059D01*
X166539163Y-81887454D01*
X166370800Y-81973240D01*
X166283579Y-82036610D01*
X166217927Y-82084310D01*
X166217925Y-82084312D01*
X166217924Y-82084312D01*
X166084312Y-82217924D01*
X166084312Y-82217925D01*
X166084310Y-82217927D01*
X166055425Y-82257684D01*
X165973240Y-82370800D01*
X165887454Y-82539163D01*
X165829059Y-82718881D01*
X165799500Y-82905513D01*
X152689611Y-82905513D01*
X152605977Y-82780345D01*
X152605975Y-82780342D01*
X152459657Y-82634024D01*
X152317686Y-82539163D01*
X152287598Y-82519059D01*
X152096420Y-82439870D01*
X152096412Y-82439868D01*
X151893469Y-82399500D01*
X151893465Y-82399500D01*
X151686535Y-82399500D01*
X151686530Y-82399500D01*
X151483587Y-82439868D01*
X151483579Y-82439870D01*
X151292403Y-82519058D01*
X151120342Y-82634024D01*
X150974024Y-82780342D01*
X150867102Y-82940365D01*
X150813489Y-82985171D01*
X150744165Y-82993878D01*
X150681137Y-82963724D01*
X150644417Y-82904281D01*
X150639999Y-82871475D01*
X150639999Y-82800028D01*
X150639998Y-82800012D01*
X150629505Y-82697302D01*
X150574358Y-82530880D01*
X150574356Y-82530875D01*
X150482315Y-82381654D01*
X150358345Y-82257684D01*
X150209124Y-82165643D01*
X150209119Y-82165641D01*
X150042697Y-82110494D01*
X150042690Y-82110493D01*
X149939986Y-82100000D01*
X149540000Y-82100000D01*
X149540000Y-83166988D01*
X149482993Y-83134075D01*
X149355826Y-83100000D01*
X149224174Y-83100000D01*
X149097007Y-83134075D01*
X149040000Y-83166988D01*
X149040000Y-82100000D01*
X148640028Y-82100000D01*
X148640012Y-82100001D01*
X148537302Y-82110494D01*
X148370880Y-82165641D01*
X148370875Y-82165643D01*
X148221654Y-82257684D01*
X148097684Y-82381654D01*
X148005643Y-82530875D01*
X148005641Y-82530880D01*
X147950494Y-82697302D01*
X147950493Y-82697309D01*
X147940000Y-82800013D01*
X144183790Y-82800013D01*
X144170940Y-82718881D01*
X144112545Y-82539163D01*
X144041383Y-82399500D01*
X144026760Y-82370801D01*
X143915690Y-82217927D01*
X143782073Y-82084310D01*
X143629199Y-81973240D01*
X143578236Y-81947273D01*
X143460836Y-81887454D01*
X143281118Y-81829059D01*
X143094486Y-81799500D01*
X143094481Y-81799500D01*
X142905519Y-81799500D01*
X142905514Y-81799500D01*
X142718881Y-81829059D01*
X142539163Y-81887454D01*
X142370800Y-81973240D01*
X142283579Y-82036610D01*
X142217927Y-82084310D01*
X142217925Y-82084312D01*
X142217924Y-82084312D01*
X142084312Y-82217924D01*
X142084312Y-82217925D01*
X142084310Y-82217927D01*
X142055425Y-82257684D01*
X141973240Y-82370800D01*
X141887454Y-82539163D01*
X141829059Y-82718881D01*
X141799500Y-82905513D01*
X140400500Y-82905513D01*
X140400500Y-82004427D01*
X140400816Y-81995581D01*
X140404271Y-81947273D01*
X140416148Y-81781204D01*
X140418666Y-81763700D01*
X140463407Y-81558026D01*
X140468384Y-81541075D01*
X140541948Y-81343844D01*
X140549296Y-81327757D01*
X140572895Y-81284538D01*
X140650166Y-81143025D01*
X140659720Y-81128157D01*
X140785873Y-80959637D01*
X140797445Y-80946283D01*
X140946283Y-80797445D01*
X140959637Y-80785873D01*
X141128157Y-80659720D01*
X141143025Y-80650166D01*
X141327757Y-80549295D01*
X141343844Y-80541948D01*
X141541075Y-80468384D01*
X141558026Y-80463407D01*
X141763705Y-80418665D01*
X141781206Y-80416148D01*
X141995582Y-80400816D01*
X142004428Y-80400500D01*
X142057583Y-80400500D01*
X167942417Y-80400500D01*
X167995572Y-80400500D01*
X168004418Y-80400816D01*
G37*
%TD.AperFunction*%
%TD*%
M02*
