%TF.GenerationSoftware,KiCad,Pcbnew,9.0.9-9.0.9~ubuntu24.04.1*%
%TF.CreationDate,2026-06-15T18:42:05-05:00*%
%TF.ProjectId,PWR-MGR-PCB,5057522d-4d47-4522-9d50-43422e6b6963,rev?*%
%TF.SameCoordinates,Original*%
%TF.FileFunction,Copper,L1,Top*%
%TF.FilePolarity,Positive*%
%FSLAX46Y46*%
G04 Gerber Fmt 4.6, Leading zero omitted, Abs format (unit mm)*
G04 Created by KiCad (PCBNEW 9.0.9-9.0.9~ubuntu24.04.1) date 2026-06-15 18:42:05*
%MOMM*%
%LPD*%
G01*
G04 APERTURE LIST*
G04 Aperture macros list*
%AMRoundRect*
0 Rectangle with rounded corners*
0 $1 Rounding radius*
0 $2 $3 $4 $5 $6 $7 $8 $9 X,Y pos of 4 corners*
0 Add a 4 corners polygon primitive as box body*
4,1,4,$2,$3,$4,$5,$6,$7,$8,$9,$2,$3,0*
0 Add four circle primitives for the rounded corners*
1,1,$1+$1,$2,$3*
1,1,$1+$1,$4,$5*
1,1,$1+$1,$6,$7*
1,1,$1+$1,$8,$9*
0 Add four rect primitives between the rounded corners*
20,1,$1+$1,$2,$3,$4,$5,0*
20,1,$1+$1,$4,$5,$6,$7,0*
20,1,$1+$1,$6,$7,$8,$9,0*
20,1,$1+$1,$8,$9,$2,$3,0*%
G04 Aperture macros list end*
%TA.AperFunction,ComponentPad*%
%ADD10RoundRect,0.250000X-0.600000X-0.750000X0.600000X-0.750000X0.600000X0.750000X-0.600000X0.750000X0*%
%TD*%
%TA.AperFunction,ComponentPad*%
%ADD11O,1.700000X2.000000*%
%TD*%
%TA.AperFunction,SMDPad,CuDef*%
%ADD12RoundRect,0.250000X0.475000X-0.250000X0.475000X0.250000X-0.475000X0.250000X-0.475000X-0.250000X0*%
%TD*%
%TA.AperFunction,SMDPad,CuDef*%
%ADD13C,0.203200*%
%TD*%
%TA.AperFunction,SMDPad,CuDef*%
%ADD14RoundRect,0.250000X0.262500X0.450000X-0.262500X0.450000X-0.262500X-0.450000X0.262500X-0.450000X0*%
%TD*%
%TA.AperFunction,SMDPad,CuDef*%
%ADD15RoundRect,0.250000X-0.262500X-0.450000X0.262500X-0.450000X0.262500X0.450000X-0.262500X0.450000X0*%
%TD*%
%TA.AperFunction,SMDPad,CuDef*%
%ADD16R,0.800000X0.800000*%
%TD*%
%TA.AperFunction,SMDPad,CuDef*%
%ADD17RoundRect,0.250000X0.450000X-0.262500X0.450000X0.262500X-0.450000X0.262500X-0.450000X-0.262500X0*%
%TD*%
%TA.AperFunction,HeatsinkPad*%
%ADD18O,1.800000X1.000000*%
%TD*%
%TA.AperFunction,HeatsinkPad*%
%ADD19O,2.100000X1.000000*%
%TD*%
%TA.AperFunction,SMDPad,CuDef*%
%ADD20RoundRect,0.150000X-0.425000X0.150000X-0.425000X-0.150000X0.425000X-0.150000X0.425000X0.150000X0*%
%TD*%
%TA.AperFunction,SMDPad,CuDef*%
%ADD21RoundRect,0.075000X-0.500000X0.075000X-0.500000X-0.075000X0.500000X-0.075000X0.500000X0.075000X0*%
%TD*%
%TA.AperFunction,SMDPad,CuDef*%
%ADD22RoundRect,0.250000X-0.250000X-0.475000X0.250000X-0.475000X0.250000X0.475000X-0.250000X0.475000X0*%
%TD*%
%TA.AperFunction,SMDPad,CuDef*%
%ADD23RoundRect,0.250000X1.000000X0.650000X-1.000000X0.650000X-1.000000X-0.650000X1.000000X-0.650000X0*%
%TD*%
%TA.AperFunction,SMDPad,CuDef*%
%ADD24RoundRect,0.250000X-0.475000X0.250000X-0.475000X-0.250000X0.475000X-0.250000X0.475000X0.250000X0*%
%TD*%
%TA.AperFunction,SMDPad,CuDef*%
%ADD25RoundRect,0.150000X-0.512500X-0.150000X0.512500X-0.150000X0.512500X0.150000X-0.512500X0.150000X0*%
%TD*%
%TA.AperFunction,SMDPad,CuDef*%
%ADD26R,0.940000X1.020000*%
%TD*%
%TA.AperFunction,SMDPad,CuDef*%
%ADD27RoundRect,0.250000X-0.450000X0.262500X-0.450000X-0.262500X0.450000X-0.262500X0.450000X0.262500X0*%
%TD*%
%TA.AperFunction,ComponentPad*%
%ADD28C,1.350000*%
%TD*%
%TA.AperFunction,ComponentPad*%
%ADD29R,1.350000X1.350000*%
%TD*%
%TA.AperFunction,SMDPad,CuDef*%
%ADD30RoundRect,0.170000X0.680000X-0.680000X0.680000X0.680000X-0.680000X0.680000X-0.680000X-0.680000X0*%
%TD*%
%TA.AperFunction,SMDPad,CuDef*%
%ADD31RoundRect,0.105000X0.320000X-0.035000X0.320000X0.035000X-0.320000X0.035000X-0.320000X-0.035000X0*%
%TD*%
%TA.AperFunction,SMDPad,CuDef*%
%ADD32RoundRect,0.105000X0.035000X-0.320000X0.035000X0.320000X-0.035000X0.320000X-0.035000X-0.320000X0*%
%TD*%
%TA.AperFunction,SMDPad,CuDef*%
%ADD33RoundRect,0.250000X0.250000X0.475000X-0.250000X0.475000X-0.250000X-0.475000X0.250000X-0.475000X0*%
%TD*%
%TA.AperFunction,ViaPad*%
%ADD34C,0.600000*%
%TD*%
%TA.AperFunction,Conductor*%
%ADD35C,0.500000*%
%TD*%
%TA.AperFunction,Conductor*%
%ADD36C,0.300000*%
%TD*%
%TA.AperFunction,Conductor*%
%ADD37C,1.000000*%
%TD*%
%TA.AperFunction,Conductor*%
%ADD38C,0.200000*%
%TD*%
%TA.AperFunction,Conductor*%
%ADD39C,0.700000*%
%TD*%
G04 APERTURE END LIST*
D10*
%TO.P,J1,1,Pin_1*%
%TO.N,GND*%
X149500000Y-83600000D03*
D11*
%TO.P,J1,2,Pin_2*%
%TO.N,+3.3V*%
X152000000Y-83600000D03*
%TD*%
D10*
%TO.P,J2,1,Pin_1*%
%TO.N,GND*%
X149500000Y-108000000D03*
D11*
%TO.P,J2,2,Pin_2*%
%TO.N,/PWR-MGR-01/BAT+*%
X152000000Y-108000000D03*
%TD*%
D12*
%TO.P,C9,2*%
%TO.N,GND*%
X162750000Y-82040000D03*
%TO.P,C9,1*%
%TO.N,VCC_BMS*%
X162750000Y-83940000D03*
%TD*%
D13*
%TO.P,U6,D2,FB*%
%TO.N,Net-(U6-FB)*%
X159599850Y-84140000D03*
%TO.P,U6,D1,VOUT*%
%TO.N,+3.3V*%
X159599850Y-83740000D03*
%TO.P,U6,C2,GND*%
%TO.N,GND*%
X159999900Y-84140000D03*
%TO.P,U6,C1,LX2*%
%TO.N,Net-(U6-LX2)*%
X159999900Y-83740000D03*
%TO.P,U6,B2,MODE*%
%TO.N,GND*%
X160399950Y-84140000D03*
%TO.P,U6,B1,LX1*%
%TO.N,Net-(U6-LX1)*%
X160399950Y-83740000D03*
%TO.P,U6,A2,EN*%
%TO.N,VCC_BMS*%
X160800000Y-84140000D03*
%TO.P,U6,A1,VIN*%
X160800000Y-83740000D03*
%TD*%
D14*
%TO.P,R7,2*%
%TO.N,GND*%
X157737500Y-98930000D03*
%TO.P,R7,1*%
%TO.N,Net-(U1-SYSOFF)*%
X159562500Y-98930000D03*
%TD*%
%TO.P,R6,2*%
%TO.N,VCC_BMS*%
X166522500Y-93535000D03*
%TO.P,R6,1*%
%TO.N,Net-(D2-PadA)*%
X168347500Y-93535000D03*
%TD*%
D15*
%TO.P,R2,2*%
%TO.N,Net-(U1-ISET)*%
X159657500Y-101030000D03*
%TO.P,R2,1*%
%TO.N,GND*%
X157832500Y-101030000D03*
%TD*%
D16*
%TO.P,D1,C*%
%TO.N,Net-(U1-PGOOD)*%
X166790000Y-98905000D03*
%TO.P,D1,A*%
%TO.N,Net-(D1-PadA)*%
X168440000Y-98905000D03*
%TD*%
D17*
%TO.P,R3,2*%
%TO.N,Net-(U1-TMR)*%
X158085000Y-95247500D03*
%TO.P,R3,1*%
%TO.N,GND*%
X158085000Y-97072500D03*
%TD*%
D18*
%TO.P,J3,S1,SHIELD*%
%TO.N,GND*%
X142660000Y-101410000D03*
D19*
X146840000Y-101410000D03*
D18*
X142660000Y-92770000D03*
D19*
X146840000Y-92770000D03*
D20*
%TO.P,J3,B12,GND*%
X147415000Y-93890000D03*
%TO.P,J3,B9,VBUS*%
%TO.N,Net-(D3-A)*%
X147415000Y-94690000D03*
D21*
%TO.P,J3,B8*%
%TO.N,N/C*%
X147415000Y-95340000D03*
%TO.P,J3,B7,D-*%
%TO.N,/PWR-MGR-01/USB_CONN_D-*%
X147415000Y-96340000D03*
%TO.P,J3,B6,D+*%
%TO.N,/PWR-MGR-01/USB_CONN_D+*%
X147415000Y-97840000D03*
%TO.P,J3,B5,CC2*%
%TO.N,Net-(J3-CC2)*%
X147415000Y-98840000D03*
D20*
%TO.P,J3,B4,VBUS*%
%TO.N,Net-(D3-A)*%
X147415000Y-99490000D03*
%TO.P,J3,B1,GND*%
%TO.N,GND*%
X147415000Y-100290000D03*
%TO.P,J3,A12,GND*%
X147415000Y-100290000D03*
%TO.P,J3,A9,VBUS*%
%TO.N,Net-(D3-A)*%
X147415000Y-99490000D03*
D21*
%TO.P,J3,A8*%
%TO.N,N/C*%
X147415000Y-98340000D03*
%TO.P,J3,A7,D-*%
%TO.N,/PWR-MGR-01/USB_CONN_D-*%
X147415000Y-97340000D03*
%TO.P,J3,A6,D+*%
%TO.N,/PWR-MGR-01/USB_CONN_D+*%
X147415000Y-96840000D03*
%TO.P,J3,A5,CC1*%
%TO.N,Net-(J3-CC1)*%
X147415000Y-95840000D03*
D20*
%TO.P,J3,A4,VBUS*%
%TO.N,Net-(D3-A)*%
X147415000Y-94690000D03*
%TO.P,J3,A1,GND*%
%TO.N,GND*%
X147415000Y-93890000D03*
%TD*%
D22*
%TO.P,C4,2*%
%TO.N,GND*%
X164700000Y-99960000D03*
%TO.P,C4,1*%
%TO.N,/PWR-MGR-01/BAT+*%
X162800000Y-99960000D03*
%TD*%
D15*
%TO.P,R4,2*%
%TO.N,Net-(U1-TS)*%
X160882500Y-103080000D03*
%TO.P,R4,1*%
%TO.N,GND*%
X159057500Y-103080000D03*
%TD*%
D12*
%TO.P,C10,2*%
%TO.N,GND*%
X157275000Y-81765000D03*
%TO.P,C10,1*%
%TO.N,+3.3V*%
X157275000Y-83665000D03*
%TD*%
D16*
%TO.P,D2,C*%
%TO.N,Net-(U1-CHG)*%
X166680000Y-95285000D03*
%TO.P,D2,A*%
%TO.N,Net-(D2-PadA)*%
X168330000Y-95285000D03*
%TD*%
D14*
%TO.P,R5,2*%
%TO.N,VCC_BMS*%
X166642500Y-97145000D03*
%TO.P,R5,1*%
%TO.N,Net-(D1-PadA)*%
X168467500Y-97145000D03*
%TD*%
D23*
%TO.P,D3,2,A*%
%TO.N,Net-(D3-A)*%
X151400000Y-89800000D03*
%TO.P,D3,1,K*%
%TO.N,VBUS 5V*%
X155400000Y-89800000D03*
%TD*%
D24*
%TO.P,C5,2*%
%TO.N,GND*%
X158110000Y-93490000D03*
%TO.P,C5,1*%
%TO.N,VBUS 5V*%
X158110000Y-91590000D03*
%TD*%
D22*
%TO.P,C6,2*%
%TO.N,GND*%
X164685000Y-91895000D03*
%TO.P,C6,1*%
%TO.N,VCC_BMS*%
X162785000Y-91895000D03*
%TD*%
D25*
%TO.P,U5,6,I/O1*%
%TO.N,/PWR-MGR-01/USB_D-*%
X154037500Y-96150000D03*
%TO.P,U5,5,VBUS*%
%TO.N,VBUS 5V*%
X154037500Y-97100000D03*
%TO.P,U5,4,I/O2*%
%TO.N,/PWR-MGR-01/USB_D+*%
X154037500Y-98050000D03*
%TO.P,U5,3,I/O2*%
%TO.N,/PWR-MGR-01/USB_CONN_D+*%
X151762500Y-98050000D03*
%TO.P,U5,2,GND*%
%TO.N,GND*%
X151762500Y-97100000D03*
%TO.P,U5,1,I/O1*%
%TO.N,/PWR-MGR-01/USB_CONN_D-*%
X151762500Y-96150000D03*
%TD*%
D26*
%TO.P,L2,2*%
%TO.N,Net-(U6-LX1)*%
X160815000Y-82040000D03*
%TO.P,L2,1*%
%TO.N,Net-(U6-LX2)*%
X159235000Y-82040000D03*
%TD*%
D27*
%TO.P,R12,2*%
%TO.N,GND*%
X150000000Y-101912500D03*
%TO.P,R12,1*%
%TO.N,Net-(J3-CC2)*%
X150000000Y-100087500D03*
%TD*%
D17*
%TO.P,R13,2*%
%TO.N,GND*%
X151200000Y-92587500D03*
%TO.P,R13,1*%
%TO.N,Net-(J3-CC1)*%
X151200000Y-94412500D03*
%TD*%
D28*
%TO.P,J5,2,Pin_2*%
%TO.N,/PWR-MGR-01/USB_D+*%
X154950000Y-101050000D03*
D29*
%TO.P,J5,1,Pin_1*%
%TO.N,/PWR-MGR-01/USB_D-*%
X152950000Y-101050000D03*
%TD*%
D15*
%TO.P,R17,2*%
%TO.N,GND*%
X161337500Y-86665000D03*
%TO.P,R17,1*%
%TO.N,Net-(U6-FB)*%
X159512500Y-86665000D03*
%TD*%
D27*
%TO.P,R1,2*%
%TO.N,Net-(U1-ILIM)*%
X160910000Y-92020000D03*
%TO.P,R1,1*%
%TO.N,GND*%
X160910000Y-90195000D03*
%TD*%
D30*
%TO.P,U1,TH,VSS*%
%TO.N,GND*%
X162410000Y-95810000D03*
D31*
%TO.P,U1,16,ISET*%
%TO.N,Net-(U1-ISET)*%
X160935000Y-96560000D03*
%TO.P,U1,15,SYSOFF*%
%TO.N,Net-(U1-SYSOFF)*%
X160935000Y-96060000D03*
%TO.P,U1,14,TMR*%
%TO.N,Net-(U1-TMR)*%
X160935000Y-95560000D03*
%TO.P,U1,13,IN*%
%TO.N,VBUS 5V*%
X160935000Y-95060000D03*
D32*
%TO.P,U1,12,ILIM*%
%TO.N,Net-(U1-ILIM)*%
X161660000Y-94335000D03*
%TO.P,U1,11,OUT*%
%TO.N,VCC_BMS*%
X162160000Y-94335000D03*
%TO.P,U1,10,OUT*%
X162660000Y-94335000D03*
%TO.P,U1,9,CHG*%
%TO.N,Net-(U1-CHG)*%
X163160000Y-94335000D03*
D31*
%TO.P,U1,8,VSS*%
%TO.N,GND*%
X163885000Y-95060000D03*
%TO.P,U1,7,PGOOD*%
%TO.N,Net-(U1-PGOOD)*%
X163885000Y-95560000D03*
%TO.P,U1,6,EN1*%
%TO.N,GND*%
X163885000Y-96060000D03*
%TO.P,U1,5,EN2*%
%TO.N,VCC_BMS*%
X163885000Y-96560000D03*
D32*
%TO.P,U1,4,CE*%
%TO.N,GND*%
X163160000Y-97285000D03*
%TO.P,U1,3,BAT*%
%TO.N,/PWR-MGR-01/BAT+*%
X162660000Y-97285000D03*
%TO.P,U1,2,BAT*%
X162160000Y-97285000D03*
%TO.P,U1,1,TS*%
%TO.N,Net-(U1-TS)*%
X161660000Y-97285000D03*
%TD*%
D33*
%TO.P,C3,2*%
%TO.N,GND*%
X153850000Y-94100000D03*
%TO.P,C3,1*%
%TO.N,VBUS 5V*%
X155750000Y-94100000D03*
%TD*%
D14*
%TO.P,R18,2*%
%TO.N,+3.3V*%
X155937500Y-86690000D03*
%TO.P,R18,1*%
%TO.N,Net-(U6-FB)*%
X157762500Y-86690000D03*
%TD*%
D34*
%TO.N,GND*%
X166200000Y-107644852D03*
X166200000Y-104644852D03*
X166200000Y-86644852D03*
X163200000Y-113644852D03*
X163200000Y-110644852D03*
X163200000Y-107644852D03*
X160200000Y-113644852D03*
X160200000Y-110644852D03*
X160200000Y-104644852D03*
X157200000Y-113644852D03*
X157200000Y-110644852D03*
X154200000Y-113644852D03*
X154200000Y-110644852D03*
X154200000Y-104644852D03*
X151200000Y-113644852D03*
X151200000Y-110644852D03*
X151200000Y-104644852D03*
X151200000Y-86644852D03*
X148200000Y-113644852D03*
X148200000Y-110644852D03*
X148200000Y-104644852D03*
X148200000Y-89644852D03*
X148200000Y-86644852D03*
X145200000Y-113644852D03*
X145200000Y-110644852D03*
X145200000Y-107644852D03*
X145200000Y-104644852D03*
X145200000Y-89644852D03*
X145200000Y-86644852D03*
X145200000Y-83644852D03*
X142200000Y-107644852D03*
X142200000Y-104644852D03*
X142200000Y-98644852D03*
X142200000Y-95644852D03*
X142200000Y-89644852D03*
X142200000Y-86644852D03*
X164220000Y-81580000D03*
X157140000Y-102630000D03*
X164085000Y-98235000D03*
X165230000Y-101750000D03*
X156780000Y-92560000D03*
X157440000Y-103540000D03*
X161040000Y-85200000D03*
X162410000Y-95810000D03*
X156220000Y-98420000D03*
X162775000Y-86205000D03*
X155550000Y-81860000D03*
X146850000Y-91130000D03*
X157980000Y-85230000D03*
X160910000Y-88807500D03*
X156340000Y-96720000D03*
X150100000Y-97000000D03*
X165075000Y-90275000D03*
X142660000Y-91030000D03*
X150000000Y-103400000D03*
X153000000Y-92500000D03*
X165305000Y-95155000D03*
X146840000Y-103110000D03*
X154200000Y-92500000D03*
X162750000Y-87100000D03*
X142670000Y-103090000D03*
%TD*%
D35*
%TO.N,Net-(D3-A)*%
X146000000Y-95260000D02*
X146175458Y-95260000D01*
D36*
X146840001Y-94690000D02*
X147415000Y-94690000D01*
X146000000Y-95260000D02*
X146270001Y-95260000D01*
X146270001Y-95260000D02*
X146840001Y-94690000D01*
D37*
%TO.N,/PWR-MGR-01/BAT+*%
X152000000Y-108000000D02*
X159850000Y-108000000D01*
X159850000Y-108000000D02*
X162800000Y-105050000D01*
D36*
%TO.N,VCC_BMS*%
X166522500Y-93535000D02*
X166342500Y-93355000D01*
D38*
X160800000Y-83740000D02*
X161170000Y-83740000D01*
D36*
X167541000Y-99845000D02*
X165735000Y-99845000D01*
X162160000Y-94335000D02*
X162160000Y-92520000D01*
D37*
X162785000Y-91895000D02*
X162785000Y-90355000D01*
D36*
X165735000Y-98585000D02*
X163885000Y-96735000D01*
D38*
X161070000Y-83940000D02*
X161370000Y-83940000D01*
D36*
X166522500Y-93535000D02*
X167431000Y-94443500D01*
X162660000Y-92360000D02*
X162635000Y-92335000D01*
D37*
X164270000Y-88870000D02*
X164270000Y-85460000D01*
D36*
X162840000Y-93355000D02*
X162660000Y-93535000D01*
X162160000Y-92520000D02*
X162785000Y-91895000D01*
D37*
X162750000Y-83940000D02*
X161370000Y-83940000D01*
D36*
X162660000Y-94335000D02*
X162660000Y-92020000D01*
D37*
X164270000Y-85460000D02*
X162750000Y-83940000D01*
D36*
X166342500Y-93355000D02*
X162840000Y-93355000D01*
D38*
X160800000Y-84140000D02*
X160800000Y-83740000D01*
D36*
X162660000Y-92020000D02*
X162785000Y-91895000D01*
D38*
X160800000Y-84140000D02*
X162550000Y-84140000D01*
D36*
X167431000Y-96356500D02*
X166642500Y-97145000D01*
X162660000Y-94335000D02*
X162660000Y-93535000D01*
X167431000Y-94443500D02*
X167431000Y-96356500D01*
X167541000Y-98043500D02*
X167541000Y-99845000D01*
D38*
X162550000Y-84140000D02*
X162750000Y-83940000D01*
D36*
X163885000Y-96735000D02*
X163885000Y-96560000D01*
X165735000Y-99845000D02*
X165735000Y-98585000D01*
D38*
X161170000Y-83740000D02*
X161370000Y-83940000D01*
D37*
X162785000Y-90355000D02*
X164270000Y-88870000D01*
D36*
X166642500Y-97145000D02*
X167541000Y-98043500D01*
D38*
%TO.N,GND*%
X152912500Y-92587500D02*
X153000000Y-92500000D01*
D36*
X147680000Y-100745000D02*
X147105000Y-101320000D01*
X162660000Y-96060000D02*
X162410000Y-95810000D01*
X164685000Y-90665000D02*
X165075000Y-90275000D01*
X163885000Y-95060000D02*
X165210000Y-95060000D01*
D38*
X157832500Y-101030000D02*
X157832500Y-101937500D01*
X157900000Y-103080000D02*
X157440000Y-103540000D01*
X159057500Y-103080000D02*
X157900000Y-103080000D01*
D36*
X163885000Y-95060000D02*
X164010000Y-95060000D01*
X142925000Y-101320000D02*
X142925000Y-101505000D01*
D38*
X146840000Y-91140000D02*
X146850000Y-91130000D01*
D36*
X160910000Y-90195000D02*
X160910000Y-88807500D01*
X150000000Y-101912500D02*
X150000000Y-103400000D01*
D38*
X157710000Y-93490000D02*
X156780000Y-92560000D01*
D36*
X162775000Y-86205000D02*
X162315000Y-86665000D01*
D38*
X156730000Y-98930000D02*
X156220000Y-98420000D01*
X150200000Y-97100000D02*
X150100000Y-97000000D01*
D36*
X163885000Y-96060000D02*
X162660000Y-96060000D01*
D38*
X146840000Y-101410000D02*
X146840000Y-103110000D01*
X151200000Y-92587500D02*
X152912500Y-92587500D01*
D36*
X155645000Y-81765000D02*
X155550000Y-81860000D01*
D38*
X157737500Y-98930000D02*
X156730000Y-98930000D01*
X142660000Y-103080000D02*
X142670000Y-103090000D01*
X146840000Y-92770000D02*
X146840000Y-91140000D01*
D36*
X153850000Y-92850000D02*
X154200000Y-92500000D01*
D38*
X157832500Y-101937500D02*
X157140000Y-102630000D01*
D36*
X163160000Y-97310000D02*
X164085000Y-98235000D01*
X162750000Y-87100000D02*
X162315000Y-86665000D01*
X158085000Y-97072500D02*
X156692500Y-97072500D01*
D38*
X142660000Y-92770000D02*
X142660000Y-91030000D01*
D36*
X163760000Y-82040000D02*
X164220000Y-81580000D01*
X163160000Y-97285000D02*
X163160000Y-97310000D01*
X164700000Y-101220000D02*
X165230000Y-101750000D01*
X153850000Y-94100000D02*
X153850000Y-92850000D01*
X162750000Y-82040000D02*
X163760000Y-82040000D01*
X147680000Y-100200000D02*
X147680000Y-100745000D01*
X147680000Y-93255000D02*
X147105000Y-92680000D01*
X165210000Y-95060000D02*
X165305000Y-95155000D01*
X142910000Y-101520000D02*
X143000000Y-101610000D01*
X157275000Y-81765000D02*
X155645000Y-81765000D01*
X156692500Y-97072500D02*
X156340000Y-96720000D01*
X164685000Y-91895000D02*
X164685000Y-90665000D01*
X164700000Y-99960000D02*
X164700000Y-101220000D01*
X147680000Y-93800000D02*
X147680000Y-93255000D01*
D38*
X142660000Y-101410000D02*
X142660000Y-103080000D01*
X147105000Y-101320000D02*
X146180000Y-101320000D01*
D36*
X142925000Y-101505000D02*
X142910000Y-101520000D01*
X162315000Y-86665000D02*
X161337500Y-86665000D01*
D38*
X151762500Y-97100000D02*
X150200000Y-97100000D01*
X158110000Y-93490000D02*
X157710000Y-93490000D01*
D37*
%TO.N,+3.3V*%
X155937500Y-86690000D02*
X155937500Y-85002500D01*
D36*
X159524900Y-83665000D02*
X159547300Y-83687400D01*
D37*
X154880000Y-86690000D02*
X151790000Y-83600000D01*
D36*
X157275000Y-83665000D02*
X159524900Y-83665000D01*
D37*
X155937500Y-85002500D02*
X157275000Y-83665000D01*
X155937500Y-86690000D02*
X154880000Y-86690000D01*
D39*
%TO.N,VBUS 5V*%
X159935000Y-93415000D02*
X159935000Y-94570000D01*
D38*
X160935000Y-95060000D02*
X160425000Y-95060000D01*
D37*
X155750000Y-94100000D02*
X155750000Y-90150000D01*
D35*
X154699999Y-97100000D02*
X154037500Y-97100000D01*
X155750000Y-96049999D02*
X154699999Y-97100000D01*
D39*
X155400000Y-89800000D02*
X156320000Y-89800000D01*
D35*
X155750000Y-94100000D02*
X155750000Y-96049999D01*
D37*
X155750000Y-90150000D02*
X155400000Y-89800000D01*
D38*
X160425000Y-95060000D02*
X159935000Y-94570000D01*
X154037500Y-97100000D02*
X153683032Y-97100000D01*
D39*
X158110000Y-91590000D02*
X159935000Y-93415000D01*
X156320000Y-89800000D02*
X158110000Y-91590000D01*
D36*
%TO.N,/PWR-MGR-01/BAT+*%
X162160000Y-98230000D02*
X162480000Y-98550000D01*
D37*
X162800000Y-99960000D02*
X162800000Y-98870000D01*
D36*
X162660000Y-99820000D02*
X162800000Y-99960000D01*
X162660000Y-97285000D02*
X162660000Y-98370000D01*
D37*
X162800000Y-98870000D02*
X162480000Y-98550000D01*
D36*
X162160000Y-97285000D02*
X162160000Y-98230000D01*
X162660000Y-98370000D02*
X162480000Y-98550000D01*
D37*
X162800000Y-105050000D02*
X162800000Y-99960000D01*
D35*
%TO.N,Net-(D3-A)*%
X149500000Y-91700000D02*
X151400000Y-89800000D01*
X149500000Y-93409100D02*
X148219100Y-94690000D01*
X148219100Y-94690000D02*
X147415000Y-94690000D01*
X149500000Y-93409100D02*
X149500000Y-91700000D01*
D36*
X147680000Y-94600000D02*
X147540000Y-94740000D01*
D38*
%TO.N,Net-(J3-CC2)*%
X148752500Y-98840000D02*
X150000000Y-100087500D01*
X147415000Y-98840000D02*
X148752500Y-98840000D01*
%TO.N,Net-(J3-CC1)*%
X149497500Y-94412500D02*
X151200000Y-94412500D01*
X147415000Y-95840000D02*
X148070000Y-95840000D01*
X148070000Y-95840000D02*
X149497500Y-94412500D01*
%TO.N,/PWR-MGR-01/USB_D-*%
X154037500Y-96150000D02*
X153375001Y-96150000D01*
X152950000Y-96575001D02*
X152950000Y-101050000D01*
X153375001Y-96150000D02*
X152950000Y-96575001D01*
%TO.N,/PWR-MGR-01/USB_D+*%
X154037500Y-98050000D02*
X154950000Y-98962500D01*
X154950000Y-98962500D02*
X154950000Y-101050000D01*
D36*
%TO.N,Net-(D1-PadA)*%
X168467500Y-98877500D02*
X168440000Y-98905000D01*
X168467500Y-97145000D02*
X168467500Y-98877500D01*
%TO.N,Net-(D2-PadA)*%
X168347500Y-93535000D02*
X168347500Y-95267500D01*
X168347500Y-95267500D02*
X168330000Y-95285000D01*
%TO.N,Net-(U1-ILIM)*%
X161660000Y-93900000D02*
X160910000Y-93150000D01*
X160910000Y-93150000D02*
X160910000Y-92020000D01*
X161660000Y-94335000D02*
X161660000Y-93900000D01*
%TO.N,Net-(U6-FB)*%
X159512500Y-86665000D02*
X159512500Y-84227400D01*
X159487500Y-86690000D02*
X159512500Y-86665000D01*
X159512500Y-84227400D02*
X159547300Y-84192600D01*
X157762500Y-86690000D02*
X159487500Y-86690000D01*
D38*
%TO.N,/PWR-MGR-01/USB_CONN_D+*%
X151552500Y-97840000D02*
X151762500Y-98050000D01*
X146539000Y-97107176D02*
X146806176Y-96840000D01*
X147415000Y-97840000D02*
X146806176Y-97840000D01*
X146806176Y-97840000D02*
X146539000Y-97572824D01*
X146806176Y-96840000D02*
X147415000Y-96840000D01*
X146539000Y-97572824D02*
X146539000Y-97107176D01*
X147415000Y-97840000D02*
X151552500Y-97840000D01*
%TO.N,/PWR-MGR-01/USB_CONN_D-*%
X148291000Y-96607176D02*
X148023824Y-96340000D01*
X148291000Y-97072824D02*
X148291000Y-96607176D01*
X151572500Y-96340000D02*
X151762500Y-96150000D01*
X147415000Y-97340000D02*
X148023824Y-97340000D01*
X148023824Y-96340000D02*
X147415000Y-96340000D01*
X148023824Y-97340000D02*
X148291000Y-97072824D01*
X147415000Y-96340000D02*
X151572500Y-96340000D01*
%TO.N,Net-(U1-ISET)*%
X160935000Y-99752500D02*
X160935000Y-96560000D01*
X159657500Y-101030000D02*
X160935000Y-99752500D01*
D36*
%TO.N,Net-(U1-TMR)*%
X158397500Y-95560000D02*
X158085000Y-95247500D01*
X160935000Y-95560000D02*
X158397500Y-95560000D01*
D38*
%TO.N,Net-(U1-TS)*%
X161660000Y-102302500D02*
X160882500Y-103080000D01*
X161660000Y-97285000D02*
X161660000Y-102302500D01*
D36*
%TO.N,Net-(U1-PGOOD)*%
X166790000Y-98905000D02*
X165225000Y-97340000D01*
X165225000Y-95995000D02*
X164790000Y-95560000D01*
X164790000Y-95560000D02*
X163885000Y-95560000D01*
X165225000Y-97340000D02*
X165225000Y-95995000D01*
%TO.N,Net-(U1-CHG)*%
X165730000Y-94335000D02*
X163160000Y-94335000D01*
X166680000Y-95285000D02*
X165730000Y-94335000D01*
D38*
%TO.N,Net-(U1-SYSOFF)*%
X160502920Y-96060000D02*
X160935000Y-96060000D01*
X159562500Y-98930000D02*
X159562500Y-97000420D01*
X159562500Y-97000420D02*
X160502920Y-96060000D01*
D36*
%TO.N,Net-(D3-A)*%
X146180001Y-98830000D02*
X145330000Y-98830000D01*
X146840001Y-99490000D02*
X146180001Y-98830000D01*
X147415000Y-99490000D02*
X146840001Y-99490000D01*
D37*
X145330000Y-98830000D02*
X145330000Y-95260000D01*
D35*
X145330000Y-95260000D02*
X146000000Y-95260000D01*
%TD*%
%TA.AperFunction,Conductor*%
%TO.N,GND*%
G36*
X152635148Y-96504829D02*
G01*
X152649500Y-96539477D01*
X152649500Y-97660523D01*
X152635148Y-97695171D01*
X152600500Y-97709523D01*
X152565852Y-97695171D01*
X152481484Y-97610803D01*
X152481483Y-97610802D01*
X152413127Y-97577385D01*
X152376396Y-97559428D01*
X152376394Y-97559427D01*
X152308262Y-97549500D01*
X152308260Y-97549500D01*
X151635832Y-97549500D01*
X151623150Y-97547830D01*
X151616349Y-97546007D01*
X151592064Y-97539500D01*
X151592062Y-97539500D01*
X148367591Y-97539500D01*
X148332943Y-97525148D01*
X148318591Y-97490500D01*
X148332943Y-97455852D01*
X148531459Y-97257336D01*
X148531460Y-97257335D01*
X148550699Y-97224012D01*
X148571021Y-97188813D01*
X148591500Y-97112386D01*
X148591500Y-96689500D01*
X148605852Y-96654852D01*
X148640500Y-96640500D01*
X151144554Y-96640500D01*
X151151619Y-96641012D01*
X151216738Y-96650500D01*
X151216740Y-96650500D01*
X152308262Y-96650500D01*
X152325590Y-96647974D01*
X152376393Y-96640573D01*
X152481483Y-96589198D01*
X152564198Y-96506483D01*
X152564198Y-96506482D01*
X152565852Y-96504829D01*
X152600500Y-96490477D01*
X152635148Y-96504829D01*
G37*
%TD.AperFunction*%
%TA.AperFunction,Conductor*%
G36*
X168001747Y-80400624D02*
G01*
X168224148Y-80416530D01*
X168231045Y-80417522D01*
X168447203Y-80464545D01*
X168453911Y-80466514D01*
X168661183Y-80543822D01*
X168667533Y-80546723D01*
X168861673Y-80652732D01*
X168867554Y-80656511D01*
X169044648Y-80789081D01*
X169049932Y-80793660D01*
X169206339Y-80950067D01*
X169210918Y-80955351D01*
X169343488Y-81132445D01*
X169347267Y-81138326D01*
X169453274Y-81332461D01*
X169456179Y-81338820D01*
X169533485Y-81546088D01*
X169535454Y-81552796D01*
X169582475Y-81768942D01*
X169583470Y-81775863D01*
X169599375Y-81998252D01*
X169599500Y-82001747D01*
X169599500Y-112998252D01*
X169599375Y-113001747D01*
X169583470Y-113224136D01*
X169582475Y-113231057D01*
X169535454Y-113447203D01*
X169533485Y-113453911D01*
X169456179Y-113661179D01*
X169453274Y-113667538D01*
X169347267Y-113861673D01*
X169343488Y-113867554D01*
X169210918Y-114044648D01*
X169206339Y-114049932D01*
X169049932Y-114206339D01*
X169044648Y-114210918D01*
X168867554Y-114343488D01*
X168861673Y-114347267D01*
X168667538Y-114453274D01*
X168661179Y-114456179D01*
X168453911Y-114533485D01*
X168447203Y-114535454D01*
X168231057Y-114582475D01*
X168224136Y-114583470D01*
X168001746Y-114599375D01*
X167998253Y-114599500D01*
X142001747Y-114599500D01*
X141998252Y-114599375D01*
X141775863Y-114583470D01*
X141768942Y-114582475D01*
X141552796Y-114535454D01*
X141546088Y-114533485D01*
X141338820Y-114456179D01*
X141332461Y-114453274D01*
X141138326Y-114347267D01*
X141132445Y-114343488D01*
X140955351Y-114210918D01*
X140950067Y-114206339D01*
X140793660Y-114049932D01*
X140789081Y-114044648D01*
X140656511Y-113867554D01*
X140652732Y-113861673D01*
X140546725Y-113667538D01*
X140543820Y-113661179D01*
X140466514Y-113453911D01*
X140464545Y-113447203D01*
X140417522Y-113231045D01*
X140416530Y-113224148D01*
X140400625Y-113001747D01*
X140400500Y-112998252D01*
X140400500Y-111905519D01*
X141799500Y-111905519D01*
X141799500Y-112094480D01*
X141829059Y-112281115D01*
X141829060Y-112281118D01*
X141887453Y-112460833D01*
X141973236Y-112629193D01*
X141973239Y-112629197D01*
X141973240Y-112629199D01*
X142084310Y-112782073D01*
X142084312Y-112782075D01*
X142084315Y-112782079D01*
X142217920Y-112915684D01*
X142217923Y-112915686D01*
X142217927Y-112915690D01*
X142370801Y-113026760D01*
X142370803Y-113026761D01*
X142370806Y-113026763D01*
X142539166Y-113112546D01*
X142539168Y-113112547D01*
X142718882Y-113170940D01*
X142905519Y-113200500D01*
X142905520Y-113200500D01*
X143094480Y-113200500D01*
X143094481Y-113200500D01*
X143281118Y-113170940D01*
X143460832Y-113112547D01*
X143629199Y-113026760D01*
X143782073Y-112915690D01*
X143915690Y-112782073D01*
X144026760Y-112629199D01*
X144112547Y-112460832D01*
X144170940Y-112281118D01*
X144200500Y-112094481D01*
X144200500Y-111905519D01*
X165799500Y-111905519D01*
X165799500Y-112094480D01*
X165829059Y-112281115D01*
X165829060Y-112281118D01*
X165887453Y-112460833D01*
X165973236Y-112629193D01*
X165973239Y-112629197D01*
X165973240Y-112629199D01*
X166084310Y-112782073D01*
X166084312Y-112782075D01*
X166084315Y-112782079D01*
X166217920Y-112915684D01*
X166217923Y-112915686D01*
X166217927Y-112915690D01*
X166370801Y-113026760D01*
X166370803Y-113026761D01*
X166370806Y-113026763D01*
X166539166Y-113112546D01*
X166539168Y-113112547D01*
X166718882Y-113170940D01*
X166905519Y-113200500D01*
X166905520Y-113200500D01*
X167094480Y-113200500D01*
X167094481Y-113200500D01*
X167281118Y-113170940D01*
X167460832Y-113112547D01*
X167629199Y-113026760D01*
X167782073Y-112915690D01*
X167915690Y-112782073D01*
X168026760Y-112629199D01*
X168112547Y-112460832D01*
X168170940Y-112281118D01*
X168200500Y-112094481D01*
X168200500Y-111905519D01*
X168170940Y-111718882D01*
X168112547Y-111539168D01*
X168026760Y-111370801D01*
X167915690Y-111217927D01*
X167915686Y-111217923D01*
X167915684Y-111217920D01*
X167782079Y-111084315D01*
X167782080Y-111084315D01*
X167629193Y-110973236D01*
X167460833Y-110887453D01*
X167281118Y-110829060D01*
X167281115Y-110829059D01*
X167137744Y-110806352D01*
X167094481Y-110799500D01*
X166905519Y-110799500D01*
X166870397Y-110805062D01*
X166718884Y-110829059D01*
X166718881Y-110829060D01*
X166539166Y-110887453D01*
X166370806Y-110973236D01*
X166217920Y-111084315D01*
X166084315Y-111217920D01*
X165973236Y-111370806D01*
X165887453Y-111539166D01*
X165829060Y-111718881D01*
X165829059Y-111718884D01*
X165799500Y-111905519D01*
X144200500Y-111905519D01*
X144170940Y-111718882D01*
X144112547Y-111539168D01*
X144026760Y-111370801D01*
X143915690Y-111217927D01*
X143915686Y-111217923D01*
X143915684Y-111217920D01*
X143782079Y-111084315D01*
X143782080Y-111084315D01*
X143629193Y-110973236D01*
X143460833Y-110887453D01*
X143281118Y-110829060D01*
X143281115Y-110829059D01*
X143137744Y-110806352D01*
X143094481Y-110799500D01*
X142905519Y-110799500D01*
X142870397Y-110805062D01*
X142718884Y-110829059D01*
X142718881Y-110829060D01*
X142539166Y-110887453D01*
X142370806Y-110973236D01*
X142217920Y-111084315D01*
X142084315Y-111217920D01*
X141973236Y-111370806D01*
X141887453Y-111539166D01*
X141829060Y-111718881D01*
X141829059Y-111718884D01*
X141799500Y-111905519D01*
X140400500Y-111905519D01*
X140400500Y-95191001D01*
X144629500Y-95191001D01*
X144629500Y-98898998D01*
X144656417Y-99034318D01*
X144656420Y-99034329D01*
X144706342Y-99154852D01*
X144709225Y-99161811D01*
X144734400Y-99199488D01*
X144785883Y-99276539D01*
X144883460Y-99374116D01*
X144929102Y-99404613D01*
X144998189Y-99450775D01*
X145125672Y-99503580D01*
X145125678Y-99503581D01*
X145125681Y-99503582D01*
X145261001Y-99530499D01*
X145261007Y-99530500D01*
X145398993Y-99530500D01*
X145534328Y-99503580D01*
X145661811Y-99450775D01*
X145776542Y-99374114D01*
X145874114Y-99276542D01*
X145923736Y-99202276D01*
X145927909Y-99199488D01*
X145929830Y-99194852D01*
X145943033Y-99189382D01*
X145954918Y-99181442D01*
X145964478Y-99180500D01*
X146014523Y-99180500D01*
X146049171Y-99194852D01*
X146281600Y-99427281D01*
X146295952Y-99461929D01*
X146281600Y-99496577D01*
X146259635Y-99509259D01*
X146156467Y-99536904D01*
X146156466Y-99536904D01*
X146156464Y-99536905D01*
X146059518Y-99592876D01*
X146048036Y-99599505D01*
X146048033Y-99599507D01*
X145959507Y-99688033D01*
X145959505Y-99688036D01*
X145896905Y-99796464D01*
X145896904Y-99796466D01*
X145896904Y-99796467D01*
X145864500Y-99917397D01*
X145864500Y-99917399D01*
X145864500Y-100042601D01*
X145896905Y-100163536D01*
X145959505Y-100271964D01*
X146048036Y-100360495D01*
X146156464Y-100423095D01*
X146229025Y-100442538D01*
X146277397Y-100455500D01*
X146277399Y-100455500D01*
X146402603Y-100455500D01*
X146442912Y-100444698D01*
X146523536Y-100423095D01*
X146631964Y-100360495D01*
X146720495Y-100271964D01*
X146783095Y-100163536D01*
X146815500Y-100042601D01*
X146815500Y-100023329D01*
X146829852Y-99988681D01*
X146864500Y-99974329D01*
X146886020Y-99979308D01*
X146888607Y-99980573D01*
X146941364Y-99988259D01*
X146956738Y-99990500D01*
X146956740Y-99990500D01*
X147873262Y-99990500D01*
X147890590Y-99987974D01*
X147941393Y-99980573D01*
X148046483Y-99929198D01*
X148129198Y-99846483D01*
X148180573Y-99741393D01*
X148190500Y-99673260D01*
X148190500Y-99306740D01*
X148180573Y-99238607D01*
X148167086Y-99211020D01*
X148164763Y-99173590D01*
X148189587Y-99145479D01*
X148211108Y-99140500D01*
X148607733Y-99140500D01*
X148642381Y-99154852D01*
X149113107Y-99625578D01*
X149127459Y-99660226D01*
X149124710Y-99676409D01*
X149102353Y-99740304D01*
X149099500Y-99770724D01*
X149099500Y-100404275D01*
X149102353Y-100434698D01*
X149102353Y-100434699D01*
X149147204Y-100562876D01*
X149147208Y-100562885D01*
X149227849Y-100672150D01*
X149337114Y-100752791D01*
X149337117Y-100752792D01*
X149337118Y-100752793D01*
X149337120Y-100752793D01*
X149337123Y-100752795D01*
X149364193Y-100762267D01*
X149465301Y-100797646D01*
X149495734Y-100800500D01*
X149495744Y-100800500D01*
X150504256Y-100800500D01*
X150504266Y-100800500D01*
X150534699Y-100797646D01*
X150662882Y-100752793D01*
X150677546Y-100741971D01*
X150772150Y-100672150D01*
X150852791Y-100562885D01*
X150852791Y-100562884D01*
X150852793Y-100562882D01*
X150897646Y-100434699D01*
X150900500Y-100404266D01*
X150900500Y-99770734D01*
X150897646Y-99740301D01*
X150884296Y-99702150D01*
X150852795Y-99612123D01*
X150852791Y-99612114D01*
X150772150Y-99502849D01*
X150662885Y-99422208D01*
X150662876Y-99422204D01*
X150534698Y-99377353D01*
X150504275Y-99374500D01*
X150504266Y-99374500D01*
X149732267Y-99374500D01*
X149697619Y-99360148D01*
X148937011Y-98599540D01*
X148868490Y-98559979D01*
X148792064Y-98539500D01*
X148792062Y-98539500D01*
X148230839Y-98539500D01*
X148196191Y-98525148D01*
X148181839Y-98490500D01*
X148182781Y-98480941D01*
X148190499Y-98442138D01*
X148190500Y-98442133D01*
X148190499Y-98237868D01*
X148182779Y-98199056D01*
X148190096Y-98162277D01*
X148221279Y-98141441D01*
X148230838Y-98140500D01*
X150850500Y-98140500D01*
X150885148Y-98154852D01*
X150899500Y-98189500D01*
X150899500Y-98233261D01*
X150909427Y-98301394D01*
X150909428Y-98301396D01*
X150921401Y-98325886D01*
X150960802Y-98406483D01*
X151043517Y-98489198D01*
X151148607Y-98540573D01*
X151196884Y-98547606D01*
X151216738Y-98550500D01*
X151216740Y-98550500D01*
X152308262Y-98550500D01*
X152325590Y-98547974D01*
X152376393Y-98540573D01*
X152481483Y-98489198D01*
X152564198Y-98406483D01*
X152564198Y-98406482D01*
X152565852Y-98404829D01*
X152600500Y-98390477D01*
X152635148Y-98404829D01*
X152649500Y-98439477D01*
X152649500Y-100125500D01*
X152635148Y-100160148D01*
X152600500Y-100174500D01*
X152255252Y-100174500D01*
X152196769Y-100186133D01*
X152130447Y-100230447D01*
X152101252Y-100274142D01*
X152086133Y-100296769D01*
X152074500Y-100355252D01*
X152074500Y-101744748D01*
X152086133Y-101803231D01*
X152101252Y-101825858D01*
X152130447Y-101869552D01*
X152150261Y-101882791D01*
X152196769Y-101913867D01*
X152255252Y-101925500D01*
X152255255Y-101925500D01*
X153644745Y-101925500D01*
X153644748Y-101925500D01*
X153703231Y-101913867D01*
X153769552Y-101869552D01*
X153813867Y-101803231D01*
X153825500Y-101744748D01*
X153825500Y-100355252D01*
X153813867Y-100296769D01*
X153787301Y-100257012D01*
X153769552Y-100230447D01*
X153717249Y-100195500D01*
X153703231Y-100186133D01*
X153644748Y-100174500D01*
X153644745Y-100174500D01*
X153299500Y-100174500D01*
X153264852Y-100160148D01*
X153250500Y-100125500D01*
X153250500Y-98534443D01*
X153264852Y-98499795D01*
X153299500Y-98485443D01*
X153321020Y-98490421D01*
X153423607Y-98540573D01*
X153471884Y-98547606D01*
X153491738Y-98550500D01*
X153491740Y-98550500D01*
X154092733Y-98550500D01*
X154127381Y-98564852D01*
X154635148Y-99072619D01*
X154649500Y-99107267D01*
X154649500Y-100194095D01*
X154635148Y-100228743D01*
X154619252Y-100239365D01*
X154535296Y-100274141D01*
X154391901Y-100369954D01*
X154269954Y-100491901D01*
X154174140Y-100635298D01*
X154108145Y-100794624D01*
X154108142Y-100794635D01*
X154074500Y-100963765D01*
X154074500Y-101136234D01*
X154108142Y-101305364D01*
X154108145Y-101305374D01*
X154174142Y-101464705D01*
X154269955Y-101608099D01*
X154391901Y-101730045D01*
X154535295Y-101825858D01*
X154694626Y-101891855D01*
X154694632Y-101891856D01*
X154694635Y-101891857D01*
X154863765Y-101925499D01*
X154863768Y-101925499D01*
X154863771Y-101925500D01*
X154863772Y-101925500D01*
X155036228Y-101925500D01*
X155036229Y-101925500D01*
X155205374Y-101891855D01*
X155364705Y-101825858D01*
X155508099Y-101730045D01*
X155630045Y-101608099D01*
X155725858Y-101464705D01*
X155791855Y-101305374D01*
X155825500Y-101136229D01*
X155825500Y-100963771D01*
X155825499Y-100963765D01*
X155791857Y-100794635D01*
X155791854Y-100794624D01*
X155774526Y-100752791D01*
X155725858Y-100635295D01*
X155630045Y-100491901D01*
X155508099Y-100369955D01*
X155503853Y-100367118D01*
X155436887Y-100322373D01*
X155364705Y-100274142D01*
X155359445Y-100271963D01*
X155280748Y-100239365D01*
X155254230Y-100212846D01*
X155250500Y-100194095D01*
X155250500Y-98922936D01*
X155241843Y-98890634D01*
X155230021Y-98846511D01*
X155230020Y-98846509D01*
X155230020Y-98846508D01*
X155190459Y-98777988D01*
X154857289Y-98444818D01*
X154842937Y-98410170D01*
X154847916Y-98388649D01*
X154890573Y-98301393D01*
X154900500Y-98233260D01*
X154900500Y-97866740D01*
X154898708Y-97854444D01*
X154892560Y-97812245D01*
X154890573Y-97798607D01*
X154839198Y-97693517D01*
X154769533Y-97623852D01*
X154764637Y-97612033D01*
X154756851Y-97601886D01*
X154757715Y-97595321D01*
X154755181Y-97589204D01*
X154760076Y-97577385D01*
X154761746Y-97564704D01*
X154766999Y-97560673D01*
X154769533Y-97554556D01*
X154791497Y-97541874D01*
X154856300Y-97524511D01*
X154873886Y-97519799D01*
X154976613Y-97460489D01*
X156110490Y-96326613D01*
X156169799Y-96223886D01*
X156176286Y-96199672D01*
X156196073Y-96125830D01*
X156200500Y-96109309D01*
X156200500Y-95011667D01*
X156214852Y-94977019D01*
X156220392Y-94972249D01*
X156322150Y-94897150D01*
X156322150Y-94897148D01*
X156322152Y-94897148D01*
X156402791Y-94787885D01*
X156402791Y-94787884D01*
X156402793Y-94787882D01*
X156447646Y-94659699D01*
X156450500Y-94629266D01*
X156450500Y-93570734D01*
X156450500Y-90944380D01*
X156454732Y-90934163D01*
X156455352Y-90923120D01*
X156461630Y-90917509D01*
X156464852Y-90909732D01*
X156483316Y-90898130D01*
X156536876Y-90879388D01*
X156570031Y-90867786D01*
X156607475Y-90869888D01*
X156620863Y-90879388D01*
X157170148Y-91428673D01*
X157184500Y-91463321D01*
X157184500Y-91894275D01*
X157187353Y-91924698D01*
X157187353Y-91924699D01*
X157232204Y-92052876D01*
X157232208Y-92052885D01*
X157312849Y-92162150D01*
X157422114Y-92242791D01*
X157422117Y-92242792D01*
X157422118Y-92242793D01*
X157422120Y-92242793D01*
X157422123Y-92242795D01*
X157550301Y-92287646D01*
X157580734Y-92290500D01*
X158011679Y-92290500D01*
X158046327Y-92304852D01*
X159370148Y-93628673D01*
X159384500Y-93663321D01*
X159384500Y-94642477D01*
X159422015Y-94782483D01*
X159422016Y-94782487D01*
X159469803Y-94865255D01*
X159494491Y-94908015D01*
X159596985Y-95010509D01*
X159598991Y-95011667D01*
X159722512Y-95082983D01*
X159722514Y-95082983D01*
X159722515Y-95082984D01*
X159755807Y-95091904D01*
X159835167Y-95113170D01*
X159864920Y-95136000D01*
X159869815Y-95173182D01*
X159846985Y-95202935D01*
X159822485Y-95209500D01*
X159034500Y-95209500D01*
X158999852Y-95195148D01*
X158985500Y-95160500D01*
X158985500Y-94930743D01*
X158985499Y-94930724D01*
X158982646Y-94900301D01*
X158982646Y-94900300D01*
X158937795Y-94772123D01*
X158937791Y-94772114D01*
X158857150Y-94662849D01*
X158747885Y-94582208D01*
X158747876Y-94582204D01*
X158619698Y-94537353D01*
X158589275Y-94534500D01*
X158589266Y-94534500D01*
X157580734Y-94534500D01*
X157580724Y-94534500D01*
X157550301Y-94537353D01*
X157550300Y-94537353D01*
X157422123Y-94582204D01*
X157422114Y-94582208D01*
X157312849Y-94662849D01*
X157232208Y-94772114D01*
X157232204Y-94772123D01*
X157187353Y-94900300D01*
X157187353Y-94900301D01*
X157184500Y-94930724D01*
X157184500Y-95564275D01*
X157187353Y-95594698D01*
X157187353Y-95594699D01*
X157232204Y-95722876D01*
X157232208Y-95722885D01*
X157312849Y-95832150D01*
X157422114Y-95912791D01*
X157422117Y-95912792D01*
X157422118Y-95912793D01*
X157422120Y-95912793D01*
X157422123Y-95912795D01*
X157539430Y-95953842D01*
X157550301Y-95957646D01*
X157580734Y-95960500D01*
X157580744Y-95960500D01*
X158589256Y-95960500D01*
X158589266Y-95960500D01*
X158619699Y-95957646D01*
X158713419Y-95924852D01*
X158746577Y-95913250D01*
X158762761Y-95910500D01*
X160109153Y-95910500D01*
X160143801Y-95924852D01*
X160158153Y-95959500D01*
X160143801Y-95994148D01*
X159322041Y-96815908D01*
X159322040Y-96815908D01*
X159282479Y-96884428D01*
X159282479Y-96884430D01*
X159262000Y-96960856D01*
X159262000Y-97983354D01*
X159247648Y-98018002D01*
X159217578Y-98032140D01*
X159215301Y-98032353D01*
X159215300Y-98032353D01*
X159087123Y-98077204D01*
X159087114Y-98077208D01*
X158977849Y-98157849D01*
X158897208Y-98267114D01*
X158897204Y-98267123D01*
X158852353Y-98395300D01*
X158852353Y-98395301D01*
X158849500Y-98425724D01*
X158849500Y-99434275D01*
X158852353Y-99464698D01*
X158852353Y-99464699D01*
X158897204Y-99592876D01*
X158897208Y-99592885D01*
X158977849Y-99702150D01*
X159087114Y-99782791D01*
X159087117Y-99782792D01*
X159087118Y-99782793D01*
X159087120Y-99782793D01*
X159087123Y-99782795D01*
X159126196Y-99796467D01*
X159215301Y-99827646D01*
X159245734Y-99830500D01*
X159245744Y-99830500D01*
X159879256Y-99830500D01*
X159879266Y-99830500D01*
X159909699Y-99827646D01*
X160037882Y-99782793D01*
X160054210Y-99770743D01*
X160147150Y-99702150D01*
X160227791Y-99592885D01*
X160227791Y-99592884D01*
X160227793Y-99592882D01*
X160272646Y-99464699D01*
X160275500Y-99434266D01*
X160275500Y-98425734D01*
X160272646Y-98395301D01*
X160270318Y-98388649D01*
X160227795Y-98267123D01*
X160227791Y-98267114D01*
X160147150Y-98157849D01*
X160037885Y-98077208D01*
X160037876Y-98077204D01*
X159909699Y-98032353D01*
X159907422Y-98032140D01*
X159874266Y-98014614D01*
X159863000Y-97983354D01*
X159863000Y-97145186D01*
X159877351Y-97110539D01*
X160264723Y-96723166D01*
X160299370Y-96708815D01*
X160334018Y-96723167D01*
X160344195Y-96738023D01*
X160358597Y-96770641D01*
X160439358Y-96851402D01*
X160439359Y-96851402D01*
X160439360Y-96851403D01*
X160543844Y-96897537D01*
X160569384Y-96900500D01*
X160585500Y-96900500D01*
X160620148Y-96914852D01*
X160634500Y-96949500D01*
X160634500Y-99607732D01*
X160620148Y-99642380D01*
X160119420Y-100143107D01*
X160084772Y-100157459D01*
X160068589Y-100154709D01*
X160004698Y-100132353D01*
X159974275Y-100129500D01*
X159974266Y-100129500D01*
X159340734Y-100129500D01*
X159340724Y-100129500D01*
X159310301Y-100132353D01*
X159310300Y-100132353D01*
X159182123Y-100177204D01*
X159182114Y-100177208D01*
X159072849Y-100257849D01*
X158992208Y-100367114D01*
X158992204Y-100367123D01*
X158947353Y-100495300D01*
X158947353Y-100495301D01*
X158944500Y-100525724D01*
X158944500Y-101534275D01*
X158947353Y-101564698D01*
X158947353Y-101564699D01*
X158992204Y-101692876D01*
X158992208Y-101692885D01*
X159072849Y-101802150D01*
X159182114Y-101882791D01*
X159182117Y-101882792D01*
X159182118Y-101882793D01*
X159182120Y-101882793D01*
X159182123Y-101882795D01*
X159270920Y-101913866D01*
X159310301Y-101927646D01*
X159340734Y-101930500D01*
X159340744Y-101930500D01*
X159974256Y-101930500D01*
X159974266Y-101930500D01*
X160004699Y-101927646D01*
X160132882Y-101882793D01*
X160242150Y-101802150D01*
X160322793Y-101692882D01*
X160367646Y-101564699D01*
X160370500Y-101534266D01*
X160370500Y-100762267D01*
X160384852Y-100727619D01*
X160757219Y-100355252D01*
X161175460Y-99937011D01*
X161188828Y-99913856D01*
X161215021Y-99868489D01*
X161234320Y-99796467D01*
X161235500Y-99792063D01*
X161235500Y-97711489D01*
X161239021Y-97702987D01*
X161238809Y-97693788D01*
X161245914Y-97686346D01*
X161249852Y-97676841D01*
X161258352Y-97673319D01*
X161264708Y-97666664D01*
X161274994Y-97666426D01*
X161284500Y-97662489D01*
X161293001Y-97666010D01*
X161302201Y-97665798D01*
X161309642Y-97672903D01*
X161319148Y-97676841D01*
X161329325Y-97691697D01*
X161355325Y-97750581D01*
X161359500Y-97770373D01*
X161359500Y-102157731D01*
X161345148Y-102192379D01*
X161344420Y-102193107D01*
X161309772Y-102207459D01*
X161293589Y-102204709D01*
X161229698Y-102182353D01*
X161199275Y-102179500D01*
X161199266Y-102179500D01*
X160565734Y-102179500D01*
X160565724Y-102179500D01*
X160535301Y-102182353D01*
X160535300Y-102182353D01*
X160407123Y-102227204D01*
X160407114Y-102227208D01*
X160297849Y-102307849D01*
X160217208Y-102417114D01*
X160217204Y-102417123D01*
X160172353Y-102545300D01*
X160172353Y-102545301D01*
X160169500Y-102575724D01*
X160169500Y-103584275D01*
X160172353Y-103614698D01*
X160172353Y-103614699D01*
X160217204Y-103742876D01*
X160217208Y-103742885D01*
X160297849Y-103852150D01*
X160407114Y-103932791D01*
X160407117Y-103932792D01*
X160407118Y-103932793D01*
X160407120Y-103932793D01*
X160407123Y-103932795D01*
X160535301Y-103977646D01*
X160565734Y-103980500D01*
X160565744Y-103980500D01*
X161199256Y-103980500D01*
X161199266Y-103980500D01*
X161229699Y-103977646D01*
X161357882Y-103932793D01*
X161467150Y-103852150D01*
X161547793Y-103742882D01*
X161592646Y-103614699D01*
X161595500Y-103584266D01*
X161595500Y-102812267D01*
X161609852Y-102777619D01*
X161900459Y-102487012D01*
X161900460Y-102487011D01*
X161940021Y-102418489D01*
X161960500Y-102342062D01*
X161960500Y-99139452D01*
X161974852Y-99104804D01*
X162009500Y-99090452D01*
X162044148Y-99104804D01*
X162085148Y-99145804D01*
X162099500Y-99180452D01*
X162099500Y-104739547D01*
X162085148Y-104774195D01*
X159574195Y-107285148D01*
X159539547Y-107299500D01*
X152921784Y-107299500D01*
X152887136Y-107285148D01*
X152881042Y-107277723D01*
X152815977Y-107180345D01*
X152669654Y-107034022D01*
X152584207Y-106976929D01*
X152497598Y-106919059D01*
X152497596Y-106919058D01*
X152306423Y-106839871D01*
X152306417Y-106839869D01*
X152224572Y-106823589D01*
X152103465Y-106799500D01*
X151896535Y-106799500D01*
X151795520Y-106819592D01*
X151693582Y-106839869D01*
X151693576Y-106839871D01*
X151502403Y-106919058D01*
X151330345Y-107034022D01*
X151184022Y-107180345D01*
X151069058Y-107352403D01*
X150989871Y-107543576D01*
X150989869Y-107543582D01*
X150969592Y-107645520D01*
X150949500Y-107746535D01*
X150949500Y-108253465D01*
X150989870Y-108456420D01*
X151069059Y-108647598D01*
X151184023Y-108819655D01*
X151330345Y-108965977D01*
X151502402Y-109080941D01*
X151693580Y-109160130D01*
X151896535Y-109200500D01*
X151896538Y-109200500D01*
X152103462Y-109200500D01*
X152103465Y-109200500D01*
X152306420Y-109160130D01*
X152497598Y-109080941D01*
X152669655Y-108965977D01*
X152815977Y-108819655D01*
X152881042Y-108722276D01*
X152912224Y-108701442D01*
X152921784Y-108700500D01*
X159918994Y-108700500D01*
X160054328Y-108673580D01*
X160181811Y-108620775D01*
X160296543Y-108544114D01*
X163344114Y-105496543D01*
X163420775Y-105381811D01*
X163473580Y-105254328D01*
X163500500Y-105118994D01*
X163500500Y-104981006D01*
X163500500Y-99891007D01*
X163500500Y-99430734D01*
X163500500Y-98801007D01*
X163496288Y-98779830D01*
X163473583Y-98665684D01*
X163473581Y-98665677D01*
X163473580Y-98665672D01*
X163472178Y-98662288D01*
X163440252Y-98585212D01*
X163429800Y-98559979D01*
X163421762Y-98540572D01*
X163420775Y-98538189D01*
X163371970Y-98465148D01*
X163344116Y-98423460D01*
X163246542Y-98325886D01*
X163024852Y-98104195D01*
X163010500Y-98069547D01*
X163010500Y-97238854D01*
X163002170Y-97207768D01*
X163000500Y-97195085D01*
X163000500Y-96919386D01*
X163000500Y-96919384D01*
X162997537Y-96893844D01*
X162951403Y-96789360D01*
X162951402Y-96789359D01*
X162951402Y-96789358D01*
X162870641Y-96708597D01*
X162870642Y-96708597D01*
X162766157Y-96662463D01*
X162740616Y-96659500D01*
X162579384Y-96659500D01*
X162579383Y-96659500D01*
X162553842Y-96662463D01*
X162449358Y-96708597D01*
X162444648Y-96713308D01*
X162410000Y-96727660D01*
X162375352Y-96713308D01*
X162370641Y-96708597D01*
X162370642Y-96708597D01*
X162266157Y-96662463D01*
X162240616Y-96659500D01*
X162079384Y-96659500D01*
X162079383Y-96659500D01*
X162053842Y-96662463D01*
X161949358Y-96708597D01*
X161944648Y-96713308D01*
X161910000Y-96727660D01*
X161875352Y-96713308D01*
X161870641Y-96708597D01*
X161870642Y-96708597D01*
X161766157Y-96662463D01*
X161740616Y-96659500D01*
X161609500Y-96659500D01*
X161574852Y-96645148D01*
X161560500Y-96610500D01*
X161560500Y-96479386D01*
X161560500Y-96479384D01*
X161557537Y-96453844D01*
X161511403Y-96349360D01*
X161506693Y-96344650D01*
X161492339Y-96310003D01*
X161506689Y-96275354D01*
X161506693Y-96275350D01*
X161511403Y-96270640D01*
X161557537Y-96166156D01*
X161560500Y-96140616D01*
X161560500Y-95979384D01*
X161557537Y-95953844D01*
X161511403Y-95849360D01*
X161511402Y-95849359D01*
X161511402Y-95849358D01*
X161506693Y-95844650D01*
X161492339Y-95810003D01*
X161506689Y-95775354D01*
X161506693Y-95775350D01*
X161511403Y-95770640D01*
X161557537Y-95666156D01*
X161560500Y-95640616D01*
X161560500Y-95479384D01*
X161557537Y-95453844D01*
X161511403Y-95349360D01*
X161506693Y-95344650D01*
X161492339Y-95310003D01*
X161506689Y-95275354D01*
X161506693Y-95275350D01*
X161511403Y-95270640D01*
X161557537Y-95166156D01*
X161560500Y-95140616D01*
X161560500Y-95009500D01*
X161574852Y-94974852D01*
X161609500Y-94960500D01*
X161740613Y-94960500D01*
X161740616Y-94960500D01*
X161766156Y-94957537D01*
X161870640Y-94911403D01*
X161875350Y-94906693D01*
X161909997Y-94892339D01*
X161944646Y-94906689D01*
X161949360Y-94911403D01*
X162053844Y-94957537D01*
X162079384Y-94960500D01*
X162079387Y-94960500D01*
X162240613Y-94960500D01*
X162240616Y-94960500D01*
X162266156Y-94957537D01*
X162370640Y-94911403D01*
X162375350Y-94906693D01*
X162409997Y-94892339D01*
X162444646Y-94906689D01*
X162449360Y-94911403D01*
X162553844Y-94957537D01*
X162579384Y-94960500D01*
X162579387Y-94960500D01*
X162740613Y-94960500D01*
X162740616Y-94960500D01*
X162766156Y-94957537D01*
X162870640Y-94911403D01*
X162875350Y-94906693D01*
X162909997Y-94892339D01*
X162944646Y-94906689D01*
X162949360Y-94911403D01*
X163053844Y-94957537D01*
X163079384Y-94960500D01*
X163079387Y-94960500D01*
X163240613Y-94960500D01*
X163240616Y-94960500D01*
X163266156Y-94957537D01*
X163370640Y-94911403D01*
X163451403Y-94830640D01*
X163497537Y-94726156D01*
X163497537Y-94726155D01*
X163497538Y-94726153D01*
X163498505Y-94722600D01*
X163500415Y-94723119D01*
X163515480Y-94696085D01*
X163545898Y-94685500D01*
X165564522Y-94685500D01*
X165599170Y-94699852D01*
X166065148Y-95165830D01*
X166079500Y-95200478D01*
X166079500Y-95704748D01*
X166091133Y-95763231D01*
X166102194Y-95779785D01*
X166135447Y-95829552D01*
X166155722Y-95843099D01*
X166201769Y-95873867D01*
X166260252Y-95885500D01*
X167031500Y-95885500D01*
X167066148Y-95899852D01*
X167080500Y-95934500D01*
X167080500Y-96191020D01*
X167066148Y-96225668D01*
X167052038Y-96239778D01*
X167017390Y-96254130D01*
X167001208Y-96251381D01*
X166989700Y-96247354D01*
X166989693Y-96247353D01*
X166959275Y-96244500D01*
X166959266Y-96244500D01*
X166325734Y-96244500D01*
X166325724Y-96244500D01*
X166295301Y-96247353D01*
X166295300Y-96247353D01*
X166167123Y-96292204D01*
X166167114Y-96292208D01*
X166057849Y-96372849D01*
X165977208Y-96482114D01*
X165977204Y-96482123D01*
X165932353Y-96610300D01*
X165932353Y-96610301D01*
X165929500Y-96640724D01*
X165929500Y-97430522D01*
X165915148Y-97465170D01*
X165880500Y-97479522D01*
X165845852Y-97465170D01*
X165589852Y-97209170D01*
X165575500Y-97174522D01*
X165575500Y-95948853D01*
X165575499Y-95948852D01*
X165551615Y-95859715D01*
X165551613Y-95859709D01*
X165545640Y-95849365D01*
X165545639Y-95849364D01*
X165545637Y-95849360D01*
X165505470Y-95779788D01*
X165005212Y-95279530D01*
X164989814Y-95270640D01*
X164925290Y-95233386D01*
X164925286Y-95233385D01*
X164836147Y-95209500D01*
X164836144Y-95209500D01*
X163838856Y-95209500D01*
X163838854Y-95209500D01*
X163807768Y-95217830D01*
X163795085Y-95219500D01*
X163519383Y-95219500D01*
X163493842Y-95222463D01*
X163389358Y-95268597D01*
X163308597Y-95349358D01*
X163262463Y-95453842D01*
X163259500Y-95479383D01*
X163259500Y-95640616D01*
X163262463Y-95666157D01*
X163308597Y-95770641D01*
X163389358Y-95851402D01*
X163389359Y-95851402D01*
X163389360Y-95851403D01*
X163493844Y-95897537D01*
X163519384Y-95900500D01*
X163795085Y-95900500D01*
X163807767Y-95902169D01*
X163812873Y-95903538D01*
X163838854Y-95910500D01*
X163838856Y-95910500D01*
X164624522Y-95910500D01*
X164659170Y-95924852D01*
X164860148Y-96125830D01*
X164874500Y-96160478D01*
X164874500Y-97110522D01*
X164860148Y-97145170D01*
X164825500Y-97159522D01*
X164790852Y-97145170D01*
X164471329Y-96825647D01*
X164456977Y-96790999D01*
X164461152Y-96771207D01*
X164461401Y-96770641D01*
X164461403Y-96770640D01*
X164507537Y-96666156D01*
X164510500Y-96640616D01*
X164510500Y-96479384D01*
X164507537Y-96453844D01*
X164461403Y-96349360D01*
X164461402Y-96349359D01*
X164461402Y-96349358D01*
X164380641Y-96268597D01*
X164380642Y-96268597D01*
X164276157Y-96222463D01*
X164250616Y-96219500D01*
X163974915Y-96219500D01*
X163962232Y-96217830D01*
X163931146Y-96209500D01*
X163931144Y-96209500D01*
X163838856Y-96209500D01*
X163838854Y-96209500D01*
X163807768Y-96217830D01*
X163795085Y-96219500D01*
X163519383Y-96219500D01*
X163493842Y-96222463D01*
X163389358Y-96268597D01*
X163308597Y-96349358D01*
X163262463Y-96453842D01*
X163259500Y-96479383D01*
X163259500Y-96640616D01*
X163262463Y-96666157D01*
X163308597Y-96770641D01*
X163389358Y-96851402D01*
X163389359Y-96851402D01*
X163389360Y-96851403D01*
X163493844Y-96897537D01*
X163519384Y-96900500D01*
X163547539Y-96900500D01*
X163582187Y-96914852D01*
X163589975Y-96925001D01*
X163604527Y-96950208D01*
X163604532Y-96950214D01*
X165370148Y-98715830D01*
X165384500Y-98750478D01*
X165384500Y-99891146D01*
X165408385Y-99980286D01*
X165408386Y-99980289D01*
X165414282Y-99990500D01*
X165454531Y-100060212D01*
X165519788Y-100125469D01*
X165599712Y-100171614D01*
X165610483Y-100174500D01*
X165688853Y-100195500D01*
X165688856Y-100195500D01*
X167587146Y-100195500D01*
X167631716Y-100183557D01*
X167676288Y-100171614D01*
X167756212Y-100125469D01*
X167821469Y-100060212D01*
X167867614Y-99980288D01*
X167879557Y-99935716D01*
X167891500Y-99891146D01*
X167891500Y-99538094D01*
X167905852Y-99503446D01*
X167940500Y-99489094D01*
X167959254Y-99492825D01*
X167961767Y-99493866D01*
X167961769Y-99493867D01*
X168020252Y-99505500D01*
X168020255Y-99505500D01*
X168859745Y-99505500D01*
X168859748Y-99505500D01*
X168918231Y-99493867D01*
X168984552Y-99449552D01*
X169028867Y-99383231D01*
X169040500Y-99324748D01*
X169040500Y-98485252D01*
X169028867Y-98426769D01*
X168988500Y-98366356D01*
X168984552Y-98360447D01*
X168932827Y-98325886D01*
X168918231Y-98316133D01*
X168918230Y-98316132D01*
X168918229Y-98316132D01*
X168857440Y-98304040D01*
X168826258Y-98283205D01*
X168818000Y-98255982D01*
X168818000Y-98076257D01*
X168832352Y-98041609D01*
X168850812Y-98030008D01*
X168942882Y-97997793D01*
X169052150Y-97917150D01*
X169132793Y-97807882D01*
X169177646Y-97679699D01*
X169180500Y-97649266D01*
X169180500Y-96640734D01*
X169177646Y-96610301D01*
X169173881Y-96599542D01*
X169132795Y-96482123D01*
X169132791Y-96482114D01*
X169052150Y-96372849D01*
X168942885Y-96292208D01*
X168942876Y-96292204D01*
X168814698Y-96247353D01*
X168784275Y-96244500D01*
X168784266Y-96244500D01*
X168150734Y-96244500D01*
X168150724Y-96244500D01*
X168120301Y-96247353D01*
X168120300Y-96247353D01*
X167992123Y-96292204D01*
X167992114Y-96292208D01*
X167882850Y-96372848D01*
X167869925Y-96390362D01*
X167837802Y-96409717D01*
X167801402Y-96400689D01*
X167782047Y-96368566D01*
X167781500Y-96361264D01*
X167781500Y-95918094D01*
X167795852Y-95883446D01*
X167830500Y-95869094D01*
X167849254Y-95872825D01*
X167851767Y-95873866D01*
X167851769Y-95873867D01*
X167910252Y-95885500D01*
X167910255Y-95885500D01*
X168749745Y-95885500D01*
X168749748Y-95885500D01*
X168808231Y-95873867D01*
X168874552Y-95829552D01*
X168918867Y-95763231D01*
X168930500Y-95704748D01*
X168930500Y-94865252D01*
X168918867Y-94806769D01*
X168892301Y-94767012D01*
X168874552Y-94740447D01*
X168833474Y-94713000D01*
X168808231Y-94696133D01*
X168749748Y-94684500D01*
X168749745Y-94684500D01*
X168747000Y-94684500D01*
X168712352Y-94670148D01*
X168698000Y-94635500D01*
X168698000Y-94466257D01*
X168712352Y-94431609D01*
X168730812Y-94420008D01*
X168822882Y-94387793D01*
X168932150Y-94307150D01*
X168965028Y-94262602D01*
X169012791Y-94197885D01*
X169012791Y-94197884D01*
X169012793Y-94197882D01*
X169057646Y-94069699D01*
X169060500Y-94039266D01*
X169060500Y-93030734D01*
X169057646Y-93000301D01*
X169057417Y-92999647D01*
X169012795Y-92872123D01*
X169012791Y-92872114D01*
X168932150Y-92762849D01*
X168822885Y-92682208D01*
X168822876Y-92682204D01*
X168694698Y-92637353D01*
X168664275Y-92634500D01*
X168664266Y-92634500D01*
X168030734Y-92634500D01*
X168030724Y-92634500D01*
X168000301Y-92637353D01*
X168000300Y-92637353D01*
X167872123Y-92682204D01*
X167872114Y-92682208D01*
X167762849Y-92762849D01*
X167682208Y-92872114D01*
X167682204Y-92872123D01*
X167637353Y-93000300D01*
X167637353Y-93000301D01*
X167634500Y-93030724D01*
X167634500Y-94033022D01*
X167620148Y-94067670D01*
X167585500Y-94082022D01*
X167550852Y-94067670D01*
X167249852Y-93766670D01*
X167235500Y-93732022D01*
X167235500Y-93030743D01*
X167235499Y-93030724D01*
X167234415Y-93019170D01*
X167232646Y-93000301D01*
X167232417Y-92999647D01*
X167187795Y-92872123D01*
X167187791Y-92872114D01*
X167107150Y-92762849D01*
X166997885Y-92682208D01*
X166997876Y-92682204D01*
X166869698Y-92637353D01*
X166839275Y-92634500D01*
X166839266Y-92634500D01*
X166205734Y-92634500D01*
X166205724Y-92634500D01*
X166175301Y-92637353D01*
X166175300Y-92637353D01*
X166047123Y-92682204D01*
X166047114Y-92682208D01*
X165937849Y-92762849D01*
X165857208Y-92872114D01*
X165857204Y-92872123D01*
X165822367Y-92971683D01*
X165797377Y-92999647D01*
X165776117Y-93004500D01*
X163059500Y-93004500D01*
X163024852Y-92990148D01*
X163010500Y-92955500D01*
X163010500Y-92869500D01*
X163024852Y-92834852D01*
X163059500Y-92820500D01*
X163089256Y-92820500D01*
X163089266Y-92820500D01*
X163119699Y-92817646D01*
X163247882Y-92772793D01*
X163261355Y-92762850D01*
X163357150Y-92692150D01*
X163437791Y-92582885D01*
X163437791Y-92582884D01*
X163437793Y-92582882D01*
X163482646Y-92454699D01*
X163485500Y-92424266D01*
X163485500Y-91365734D01*
X163485500Y-90665453D01*
X163499852Y-90630805D01*
X164118172Y-90012485D01*
X164814114Y-89316543D01*
X164890775Y-89201811D01*
X164943580Y-89074329D01*
X164948934Y-89047409D01*
X164970500Y-88938993D01*
X164970500Y-85391007D01*
X164943580Y-85255672D01*
X164890775Y-85128189D01*
X164890774Y-85128187D01*
X164852893Y-85071493D01*
X164852893Y-85071494D01*
X164814114Y-85013457D01*
X163689852Y-83889195D01*
X163675500Y-83854547D01*
X163675500Y-83635743D01*
X163675499Y-83635724D01*
X163672646Y-83605301D01*
X163672646Y-83605300D01*
X163627795Y-83477123D01*
X163627791Y-83477114D01*
X163547150Y-83367849D01*
X163437885Y-83287208D01*
X163437876Y-83287204D01*
X163309698Y-83242353D01*
X163279275Y-83239500D01*
X163279266Y-83239500D01*
X162818993Y-83239500D01*
X161716612Y-83239500D01*
X161681964Y-83225148D01*
X161667612Y-83190500D01*
X161681964Y-83155852D01*
X161690542Y-83149011D01*
X161722581Y-83128879D01*
X161722582Y-83128878D01*
X161753820Y-83084852D01*
X161775505Y-83054291D01*
X161789857Y-83019643D01*
X161805500Y-82941000D01*
X161805500Y-82905519D01*
X165799500Y-82905519D01*
X165799500Y-83094480D01*
X165829059Y-83281115D01*
X165829060Y-83281118D01*
X165887453Y-83460833D01*
X165973236Y-83629193D01*
X165973239Y-83629197D01*
X165973240Y-83629199D01*
X166084310Y-83782073D01*
X166084312Y-83782075D01*
X166084315Y-83782079D01*
X166217920Y-83915684D01*
X166217923Y-83915686D01*
X166217927Y-83915690D01*
X166370801Y-84026760D01*
X166370803Y-84026761D01*
X166370806Y-84026763D01*
X166504634Y-84094951D01*
X166539168Y-84112547D01*
X166718882Y-84170940D01*
X166905519Y-84200500D01*
X166905520Y-84200500D01*
X167094480Y-84200500D01*
X167094481Y-84200500D01*
X167281118Y-84170940D01*
X167460832Y-84112547D01*
X167629199Y-84026760D01*
X167782073Y-83915690D01*
X167915690Y-83782073D01*
X168026760Y-83629199D01*
X168112547Y-83460832D01*
X168170940Y-83281118D01*
X168200500Y-83094481D01*
X168200500Y-82905519D01*
X168170940Y-82718882D01*
X168112547Y-82539168D01*
X168102301Y-82519059D01*
X168026763Y-82370806D01*
X168026761Y-82370803D01*
X168026760Y-82370801D01*
X167915690Y-82217927D01*
X167915686Y-82217923D01*
X167915684Y-82217920D01*
X167782079Y-82084315D01*
X167782080Y-82084315D01*
X167668435Y-82001747D01*
X167629199Y-81973240D01*
X167629197Y-81973239D01*
X167629193Y-81973236D01*
X167460833Y-81887453D01*
X167281118Y-81829060D01*
X167281115Y-81829059D01*
X167137744Y-81806352D01*
X167094481Y-81799500D01*
X166905519Y-81799500D01*
X166870397Y-81805062D01*
X166718884Y-81829059D01*
X166718881Y-81829060D01*
X166539166Y-81887453D01*
X166370806Y-81973236D01*
X166217920Y-82084315D01*
X166084315Y-82217920D01*
X165973236Y-82370806D01*
X165887453Y-82539166D01*
X165829060Y-82718881D01*
X165829059Y-82718884D01*
X165799500Y-82905519D01*
X161805500Y-82905519D01*
X161805500Y-81139000D01*
X161789857Y-81060357D01*
X161785859Y-81050706D01*
X161775508Y-81025716D01*
X161775509Y-81025716D01*
X161738877Y-80967416D01*
X161664293Y-80914496D01*
X161629646Y-80900144D01*
X161629640Y-80900142D01*
X161597926Y-80893834D01*
X161551000Y-80884500D01*
X160125487Y-80884500D01*
X160118769Y-80884830D01*
X160105327Y-80885491D01*
X160105295Y-80885494D01*
X160095799Y-80886430D01*
X160087208Y-80887458D01*
X160087205Y-80887458D01*
X160087205Y-80887459D01*
X160001761Y-80920073D01*
X160001760Y-80920073D01*
X160001759Y-80920074D01*
X159981684Y-80933486D01*
X159944901Y-80940800D01*
X159935713Y-80938012D01*
X159904650Y-80925145D01*
X159904640Y-80925142D01*
X159872926Y-80918834D01*
X159826000Y-80909500D01*
X158474000Y-80909500D01*
X158434859Y-80917285D01*
X158395359Y-80925142D01*
X158395349Y-80925145D01*
X158360716Y-80939491D01*
X158360710Y-80939494D01*
X158360709Y-80939495D01*
X158343884Y-80950067D01*
X158302416Y-80976122D01*
X158249496Y-81050706D01*
X158235144Y-81085353D01*
X158235142Y-81085359D01*
X158227285Y-81124859D01*
X158219500Y-81164000D01*
X158219500Y-82816000D01*
X158229880Y-82868187D01*
X158235142Y-82894640D01*
X158235145Y-82894650D01*
X158249491Y-82929283D01*
X158249490Y-82929283D01*
X158286122Y-82987583D01*
X158360706Y-83040503D01*
X158360709Y-83040505D01*
X158395357Y-83054857D01*
X158474000Y-83070500D01*
X159445500Y-83070500D01*
X159480148Y-83084852D01*
X159494500Y-83119500D01*
X159494500Y-83191000D01*
X159504715Y-83242353D01*
X159507418Y-83255941D01*
X159500101Y-83292723D01*
X159468918Y-83313559D01*
X159459359Y-83314500D01*
X158226884Y-83314500D01*
X158192236Y-83300148D01*
X158180634Y-83281683D01*
X158152795Y-83202123D01*
X158152791Y-83202114D01*
X158072150Y-83092849D01*
X157962885Y-83012208D01*
X157962876Y-83012204D01*
X157834698Y-82967353D01*
X157804275Y-82964500D01*
X157804266Y-82964500D01*
X156745734Y-82964500D01*
X156745724Y-82964500D01*
X156715301Y-82967353D01*
X156715300Y-82967353D01*
X156587123Y-83012204D01*
X156587114Y-83012208D01*
X156477849Y-83092849D01*
X156397208Y-83202114D01*
X156397204Y-83202123D01*
X156352353Y-83330300D01*
X156352353Y-83330301D01*
X156349500Y-83360724D01*
X156349500Y-83579547D01*
X156335148Y-83614195D01*
X155393385Y-84555957D01*
X155336897Y-84640500D01*
X155316723Y-84670691D01*
X155263920Y-84798170D01*
X155263917Y-84798181D01*
X155237000Y-84933501D01*
X155237000Y-85938047D01*
X155222648Y-85972695D01*
X155188000Y-85987047D01*
X155153352Y-85972695D01*
X153064852Y-83884195D01*
X153050500Y-83849547D01*
X153050500Y-83346538D01*
X153050500Y-83346535D01*
X153010130Y-83143580D01*
X152930941Y-82952402D01*
X152815977Y-82780345D01*
X152669655Y-82634023D01*
X152497598Y-82519059D01*
X152497596Y-82519058D01*
X152306423Y-82439871D01*
X152306417Y-82439869D01*
X152224572Y-82423589D01*
X152103465Y-82399500D01*
X151896535Y-82399500D01*
X151795520Y-82419592D01*
X151693582Y-82439869D01*
X151693576Y-82439871D01*
X151502403Y-82519058D01*
X151330345Y-82634022D01*
X151184022Y-82780345D01*
X151069058Y-82952403D01*
X150989871Y-83143576D01*
X150989869Y-83143582D01*
X150978227Y-83202114D01*
X150949500Y-83346535D01*
X150949500Y-83853465D01*
X150976290Y-83988150D01*
X150989869Y-84056417D01*
X150989871Y-84056423D01*
X151037306Y-84170940D01*
X151069059Y-84247598D01*
X151115963Y-84317795D01*
X151157427Y-84379852D01*
X151184023Y-84419655D01*
X151330345Y-84565977D01*
X151502402Y-84680941D01*
X151693580Y-84760130D01*
X151896535Y-84800500D01*
X151979547Y-84800500D01*
X152014195Y-84814852D01*
X154433457Y-87234114D01*
X154548189Y-87310775D01*
X154675672Y-87363580D01*
X154811006Y-87390500D01*
X154811007Y-87390500D01*
X155275234Y-87390500D01*
X155309882Y-87404852D01*
X155314653Y-87410395D01*
X155334399Y-87437150D01*
X155352851Y-87462152D01*
X155462114Y-87542791D01*
X155462117Y-87542792D01*
X155462118Y-87542793D01*
X155462120Y-87542793D01*
X155462123Y-87542795D01*
X155527008Y-87565499D01*
X155590301Y-87587646D01*
X155620734Y-87590500D01*
X155620744Y-87590500D01*
X156254256Y-87590500D01*
X156254266Y-87590500D01*
X156284699Y-87587646D01*
X156412882Y-87542793D01*
X156522150Y-87462150D01*
X156602793Y-87352882D01*
X156647646Y-87224699D01*
X156650500Y-87194266D01*
X156650500Y-86185734D01*
X156647646Y-86155301D01*
X156640750Y-86135592D01*
X156638000Y-86119409D01*
X156638000Y-85312953D01*
X156652352Y-85278305D01*
X157550805Y-84379852D01*
X157585453Y-84365500D01*
X157804256Y-84365500D01*
X157804266Y-84365500D01*
X157834699Y-84362646D01*
X157962882Y-84317793D01*
X158072150Y-84237150D01*
X158099199Y-84200500D01*
X158152791Y-84127885D01*
X158152791Y-84127884D01*
X158152793Y-84127882D01*
X158176598Y-84059852D01*
X158180634Y-84048317D01*
X158205623Y-84020353D01*
X158226884Y-84015500D01*
X159145247Y-84015500D01*
X159179895Y-84029852D01*
X159194247Y-84064500D01*
X159187683Y-84088998D01*
X159185887Y-84092107D01*
X159185885Y-84092113D01*
X159162000Y-84181253D01*
X159162000Y-85733741D01*
X159147648Y-85768389D01*
X159129184Y-85779991D01*
X159037121Y-85812205D01*
X159037114Y-85812208D01*
X158927849Y-85892849D01*
X158847208Y-86002114D01*
X158847204Y-86002123D01*
X158802353Y-86130300D01*
X158802353Y-86130301D01*
X158799500Y-86160724D01*
X158799500Y-86290500D01*
X158785148Y-86325148D01*
X158750500Y-86339500D01*
X158524500Y-86339500D01*
X158489852Y-86325148D01*
X158475500Y-86290500D01*
X158475500Y-86185743D01*
X158475499Y-86185724D01*
X158473155Y-86160734D01*
X158472646Y-86155301D01*
X158427793Y-86027118D01*
X158427792Y-86027117D01*
X158427791Y-86027114D01*
X158347150Y-85917849D01*
X158237885Y-85837208D01*
X158237876Y-85837204D01*
X158109698Y-85792353D01*
X158079275Y-85789500D01*
X158079266Y-85789500D01*
X157445734Y-85789500D01*
X157445724Y-85789500D01*
X157415301Y-85792353D01*
X157415300Y-85792353D01*
X157287123Y-85837204D01*
X157287114Y-85837208D01*
X157177849Y-85917849D01*
X157097208Y-86027114D01*
X157097204Y-86027123D01*
X157052353Y-86155300D01*
X157052353Y-86155301D01*
X157049500Y-86185724D01*
X157049500Y-87194275D01*
X157052353Y-87224698D01*
X157052353Y-87224699D01*
X157097204Y-87352876D01*
X157097208Y-87352885D01*
X157177849Y-87462150D01*
X157287114Y-87542791D01*
X157287117Y-87542792D01*
X157287118Y-87542793D01*
X157287120Y-87542793D01*
X157287123Y-87542795D01*
X157352008Y-87565499D01*
X157415301Y-87587646D01*
X157445734Y-87590500D01*
X157445744Y-87590500D01*
X158079256Y-87590500D01*
X158079266Y-87590500D01*
X158109699Y-87587646D01*
X158237882Y-87542793D01*
X158347150Y-87462150D01*
X158427793Y-87352882D01*
X158472646Y-87224699D01*
X158475500Y-87194266D01*
X158475500Y-87089500D01*
X158489852Y-87054852D01*
X158524500Y-87040500D01*
X158750500Y-87040500D01*
X158785148Y-87054852D01*
X158799500Y-87089500D01*
X158799500Y-87169275D01*
X158802353Y-87199698D01*
X158802353Y-87199699D01*
X158847204Y-87327876D01*
X158847208Y-87327885D01*
X158927849Y-87437150D01*
X159037114Y-87517791D01*
X159037117Y-87517792D01*
X159037118Y-87517793D01*
X159037120Y-87517793D01*
X159037123Y-87517795D01*
X159108558Y-87542791D01*
X159165301Y-87562646D01*
X159195734Y-87565500D01*
X159195744Y-87565500D01*
X159829256Y-87565500D01*
X159829266Y-87565500D01*
X159859699Y-87562646D01*
X159987882Y-87517793D01*
X160097150Y-87437150D01*
X160177793Y-87327882D01*
X160222646Y-87199699D01*
X160225500Y-87169266D01*
X160225500Y-86160734D01*
X160222646Y-86130301D01*
X160186539Y-86027114D01*
X160177795Y-86002123D01*
X160177791Y-86002114D01*
X160097150Y-85892849D01*
X159987885Y-85812208D01*
X159987878Y-85812205D01*
X159895816Y-85779991D01*
X159867853Y-85755001D01*
X159863000Y-85733741D01*
X159863000Y-84359921D01*
X159869565Y-84335420D01*
X159873914Y-84327888D01*
X159897799Y-84238746D01*
X159897800Y-84238746D01*
X159897800Y-84146454D01*
X159893620Y-84130855D01*
X159891965Y-84119385D01*
X159891950Y-84118779D01*
X159891950Y-84101544D01*
X159891479Y-84099789D01*
X159891360Y-84094951D01*
X159897237Y-84079704D01*
X159901469Y-84063910D01*
X159903858Y-84062530D01*
X159904850Y-84059958D01*
X159919787Y-84053332D01*
X159933947Y-84045157D01*
X159937926Y-84045287D01*
X159939132Y-84044753D01*
X159940760Y-84045380D01*
X159946575Y-84045571D01*
X159946606Y-84045264D01*
X159948999Y-84045499D01*
X159949000Y-84045500D01*
X159949001Y-84045500D01*
X160050997Y-84045500D01*
X160051000Y-84045500D01*
X160129643Y-84029857D01*
X160164291Y-84015505D01*
X160177360Y-84007292D01*
X160214331Y-84001009D01*
X160231784Y-84008817D01*
X160241209Y-84015505D01*
X160275857Y-84029857D01*
X160354500Y-84045500D01*
X160354503Y-84045500D01*
X160450500Y-84045500D01*
X160485148Y-84059852D01*
X160499500Y-84094500D01*
X160499500Y-84179563D01*
X160519979Y-84255989D01*
X160519979Y-84255991D01*
X160559540Y-84324511D01*
X160615489Y-84380460D01*
X160684011Y-84420021D01*
X160719478Y-84429524D01*
X160760436Y-84440500D01*
X160760438Y-84440500D01*
X160859548Y-84440500D01*
X160894196Y-84454852D01*
X160923460Y-84484116D01*
X160969102Y-84514613D01*
X161038189Y-84560775D01*
X161165672Y-84613580D01*
X161165678Y-84613581D01*
X161165681Y-84613582D01*
X161301001Y-84640499D01*
X161301007Y-84640500D01*
X162220734Y-84640500D01*
X162439547Y-84640500D01*
X162474195Y-84654852D01*
X163555148Y-85735805D01*
X163569500Y-85770453D01*
X163569500Y-88559547D01*
X163555148Y-88594195D01*
X162240885Y-89908457D01*
X162171377Y-90012485D01*
X162164224Y-90023188D01*
X162111420Y-90150670D01*
X162111417Y-90150681D01*
X162084500Y-90286001D01*
X162084500Y-92079522D01*
X162070148Y-92114170D01*
X161894148Y-92290170D01*
X161859500Y-92304522D01*
X161824852Y-92290170D01*
X161810500Y-92255522D01*
X161810500Y-91703243D01*
X161810499Y-91703224D01*
X161807646Y-91672801D01*
X161807646Y-91672800D01*
X161762795Y-91544623D01*
X161762791Y-91544614D01*
X161682150Y-91435349D01*
X161572885Y-91354708D01*
X161572876Y-91354704D01*
X161444698Y-91309853D01*
X161414275Y-91307000D01*
X161414266Y-91307000D01*
X160405734Y-91307000D01*
X160405724Y-91307000D01*
X160375301Y-91309853D01*
X160375300Y-91309853D01*
X160247123Y-91354704D01*
X160247114Y-91354708D01*
X160137849Y-91435349D01*
X160057208Y-91544614D01*
X160057204Y-91544623D01*
X160012353Y-91672800D01*
X160012353Y-91672801D01*
X160009500Y-91703224D01*
X160009500Y-92336775D01*
X160012353Y-92367198D01*
X160012353Y-92367199D01*
X160057204Y-92495376D01*
X160057208Y-92495385D01*
X160137849Y-92604650D01*
X160247114Y-92685291D01*
X160247117Y-92685292D01*
X160247118Y-92685293D01*
X160247120Y-92685293D01*
X160247123Y-92685295D01*
X160266714Y-92692150D01*
X160375301Y-92730146D01*
X160405734Y-92733000D01*
X160510500Y-92733000D01*
X160545148Y-92747352D01*
X160559500Y-92782000D01*
X160559500Y-93196144D01*
X160575145Y-93254531D01*
X160583386Y-93285288D01*
X160583387Y-93285291D01*
X160629530Y-93365212D01*
X161295148Y-94030830D01*
X161309500Y-94065478D01*
X161309500Y-94381145D01*
X161317830Y-94412231D01*
X161319500Y-94424914D01*
X161319500Y-94670500D01*
X161305148Y-94705148D01*
X161270500Y-94719500D01*
X160569384Y-94719500D01*
X160569381Y-94719500D01*
X160569366Y-94719501D01*
X160540184Y-94722887D01*
X160539952Y-94720889D01*
X160539882Y-94720880D01*
X160533706Y-94723439D01*
X160521943Y-94718566D01*
X160509317Y-94716938D01*
X160499058Y-94709087D01*
X160494292Y-94704321D01*
X160479940Y-94669673D01*
X160481608Y-94656995D01*
X160485500Y-94642475D01*
X160485500Y-93342525D01*
X160485500Y-93342522D01*
X160485499Y-93342521D01*
X160447985Y-93202518D01*
X160447984Y-93202516D01*
X160447984Y-93202515D01*
X160433457Y-93177354D01*
X160375510Y-93076985D01*
X159049852Y-91751327D01*
X159035500Y-91716679D01*
X159035500Y-91285743D01*
X159035499Y-91285724D01*
X159032646Y-91255301D01*
X159032646Y-91255300D01*
X158987795Y-91127123D01*
X158987791Y-91127114D01*
X158907150Y-91017849D01*
X158797885Y-90937208D01*
X158797876Y-90937204D01*
X158669698Y-90892353D01*
X158639275Y-90889500D01*
X158639266Y-90889500D01*
X158208321Y-90889500D01*
X158173673Y-90875148D01*
X156864852Y-89566327D01*
X156850500Y-89531679D01*
X156850500Y-89095743D01*
X156850499Y-89095724D01*
X156847646Y-89065301D01*
X156847646Y-89065300D01*
X156802795Y-88937123D01*
X156802791Y-88937114D01*
X156722150Y-88827849D01*
X156612885Y-88747208D01*
X156612876Y-88747204D01*
X156484698Y-88702353D01*
X156454275Y-88699500D01*
X156454266Y-88699500D01*
X154345734Y-88699500D01*
X154345724Y-88699500D01*
X154315301Y-88702353D01*
X154315300Y-88702353D01*
X154187123Y-88747204D01*
X154187114Y-88747208D01*
X154077849Y-88827849D01*
X153997208Y-88937114D01*
X153997204Y-88937123D01*
X153952353Y-89065300D01*
X153952353Y-89065301D01*
X153949500Y-89095724D01*
X153949500Y-90504275D01*
X153952353Y-90534698D01*
X153952353Y-90534699D01*
X153997204Y-90662876D01*
X153997208Y-90662885D01*
X154077849Y-90772150D01*
X154187114Y-90852791D01*
X154187117Y-90852792D01*
X154187118Y-90852793D01*
X154187120Y-90852793D01*
X154187123Y-90852795D01*
X154251005Y-90875148D01*
X154315301Y-90897646D01*
X154345734Y-90900500D01*
X155000500Y-90900500D01*
X155035148Y-90914852D01*
X155049500Y-90949500D01*
X155049500Y-94629275D01*
X155052353Y-94659698D01*
X155052353Y-94659699D01*
X155097204Y-94787876D01*
X155097208Y-94787885D01*
X155177847Y-94897148D01*
X155177850Y-94897150D01*
X155279598Y-94972243D01*
X155298953Y-95004363D01*
X155299500Y-95011667D01*
X155299500Y-95843099D01*
X155285148Y-95877747D01*
X154984148Y-96178747D01*
X154949500Y-96193099D01*
X154914852Y-96178747D01*
X154900500Y-96144099D01*
X154900500Y-95966738D01*
X154896914Y-95942128D01*
X154890573Y-95898607D01*
X154839198Y-95793517D01*
X154756483Y-95710802D01*
X154665160Y-95666157D01*
X154651396Y-95659428D01*
X154651394Y-95659427D01*
X154583262Y-95649500D01*
X154583260Y-95649500D01*
X153491740Y-95649500D01*
X153491738Y-95649500D01*
X153423605Y-95659427D01*
X153423603Y-95659428D01*
X153318519Y-95710801D01*
X153318515Y-95710803D01*
X153235803Y-95793515D01*
X153235799Y-95793521D01*
X153184427Y-95898606D01*
X153184426Y-95898609D01*
X153183871Y-95902417D01*
X153170032Y-95929996D01*
X152765620Y-96334408D01*
X152765489Y-96334541D01*
X152709540Y-96390490D01*
X152708946Y-96391518D01*
X152705889Y-96394599D01*
X152691247Y-96400729D01*
X152677499Y-96408665D01*
X152674325Y-96407814D01*
X152671296Y-96409083D01*
X152656608Y-96403064D01*
X152641275Y-96398954D01*
X152639632Y-96396108D01*
X152636593Y-96394863D01*
X152630462Y-96380221D01*
X152622527Y-96366473D01*
X152622562Y-96361353D01*
X152622109Y-96360270D01*
X152622578Y-96359124D01*
X152622621Y-96353017D01*
X152623155Y-96349358D01*
X152625500Y-96333260D01*
X152625500Y-95966740D01*
X152615573Y-95898607D01*
X152564198Y-95793517D01*
X152481483Y-95710802D01*
X152390160Y-95666157D01*
X152376396Y-95659428D01*
X152376394Y-95659427D01*
X152308262Y-95649500D01*
X152308260Y-95649500D01*
X151216740Y-95649500D01*
X151216738Y-95649500D01*
X151148605Y-95659427D01*
X151148603Y-95659428D01*
X151043519Y-95710801D01*
X151043515Y-95710803D01*
X150960803Y-95793515D01*
X150960801Y-95793519D01*
X150909428Y-95898603D01*
X150909427Y-95898605D01*
X150899500Y-95966738D01*
X150899500Y-95990500D01*
X150885148Y-96025148D01*
X150850500Y-96039500D01*
X148413767Y-96039500D01*
X148379119Y-96025148D01*
X148364767Y-95990500D01*
X148379119Y-95955852D01*
X149607619Y-94727352D01*
X149642267Y-94713000D01*
X150253354Y-94713000D01*
X150288002Y-94727352D01*
X150302140Y-94757422D01*
X150302353Y-94759698D01*
X150302353Y-94759699D01*
X150347204Y-94887876D01*
X150347208Y-94887885D01*
X150427849Y-94997150D01*
X150537114Y-95077791D01*
X150537117Y-95077792D01*
X150537118Y-95077793D01*
X150537120Y-95077793D01*
X150537123Y-95077795D01*
X150627126Y-95109288D01*
X150665301Y-95122646D01*
X150695734Y-95125500D01*
X150695744Y-95125500D01*
X151704256Y-95125500D01*
X151704266Y-95125500D01*
X151734699Y-95122646D01*
X151862882Y-95077793D01*
X151972150Y-94997150D01*
X152038913Y-94906689D01*
X152052791Y-94887885D01*
X152052791Y-94887884D01*
X152052793Y-94887882D01*
X152097646Y-94759699D01*
X152100500Y-94729266D01*
X152100500Y-94095734D01*
X152097646Y-94065301D01*
X152088532Y-94039256D01*
X152052795Y-93937123D01*
X152052791Y-93937114D01*
X151972150Y-93827849D01*
X151862885Y-93747208D01*
X151862876Y-93747204D01*
X151734698Y-93702353D01*
X151704275Y-93699500D01*
X151704266Y-93699500D01*
X150695734Y-93699500D01*
X150695724Y-93699500D01*
X150665301Y-93702353D01*
X150665300Y-93702353D01*
X150537123Y-93747204D01*
X150537114Y-93747208D01*
X150427849Y-93827849D01*
X150347208Y-93937114D01*
X150347204Y-93937123D01*
X150302353Y-94065300D01*
X150302353Y-94065301D01*
X150302140Y-94067578D01*
X150284614Y-94100734D01*
X150253354Y-94112000D01*
X149552498Y-94112000D01*
X149517850Y-94097648D01*
X149503498Y-94063000D01*
X149517850Y-94028352D01*
X149638169Y-93908033D01*
X149860489Y-93685714D01*
X149919799Y-93582987D01*
X149926286Y-93558773D01*
X149950500Y-93468409D01*
X149950500Y-91906899D01*
X149964852Y-91872251D01*
X150922252Y-90914852D01*
X150956900Y-90900500D01*
X152454256Y-90900500D01*
X152454266Y-90900500D01*
X152484699Y-90897646D01*
X152612882Y-90852793D01*
X152722150Y-90772150D01*
X152802793Y-90662882D01*
X152847646Y-90534699D01*
X152850500Y-90504266D01*
X152850500Y-89095734D01*
X152847646Y-89065301D01*
X152841385Y-89047409D01*
X152802795Y-88937123D01*
X152802791Y-88937114D01*
X152722150Y-88827849D01*
X152612885Y-88747208D01*
X152612876Y-88747204D01*
X152484698Y-88702353D01*
X152454275Y-88699500D01*
X152454266Y-88699500D01*
X150345734Y-88699500D01*
X150345724Y-88699500D01*
X150315301Y-88702353D01*
X150315300Y-88702353D01*
X150187123Y-88747204D01*
X150187114Y-88747208D01*
X150077849Y-88827849D01*
X149997208Y-88937114D01*
X149997204Y-88937123D01*
X149952353Y-89065300D01*
X149952353Y-89065301D01*
X149949500Y-89095724D01*
X149949500Y-90504275D01*
X149952353Y-90534698D01*
X149952353Y-90534699D01*
X149961844Y-90561822D01*
X149959741Y-90599266D01*
X149950242Y-90612653D01*
X149139512Y-91423384D01*
X149139511Y-91423385D01*
X149080201Y-91526111D01*
X149078532Y-91532343D01*
X149078531Y-91532342D01*
X149078531Y-91532346D01*
X149049500Y-91640688D01*
X149049500Y-93202201D01*
X149035148Y-93236849D01*
X148054236Y-94217760D01*
X148019588Y-94232112D01*
X147998068Y-94227133D01*
X147941396Y-94199428D01*
X147941394Y-94199427D01*
X147941393Y-94199427D01*
X147918682Y-94196118D01*
X147873262Y-94189500D01*
X147873260Y-94189500D01*
X146956740Y-94189500D01*
X146956738Y-94189500D01*
X146888605Y-94199427D01*
X146888601Y-94199428D01*
X146886017Y-94200692D01*
X146848586Y-94203013D01*
X146820477Y-94178186D01*
X146815500Y-94156669D01*
X146815500Y-94137397D01*
X146802538Y-94089025D01*
X146783095Y-94016464D01*
X146720495Y-93908036D01*
X146631964Y-93819505D01*
X146523536Y-93756905D01*
X146487347Y-93747208D01*
X146402603Y-93724500D01*
X146402601Y-93724500D01*
X146277399Y-93724500D01*
X146277397Y-93724500D01*
X146156467Y-93756904D01*
X146156466Y-93756904D01*
X146156464Y-93756905D01*
X146100617Y-93789148D01*
X146048036Y-93819505D01*
X146048033Y-93819507D01*
X145959507Y-93908033D01*
X145959505Y-93908036D01*
X145896905Y-94016464D01*
X145896904Y-94016466D01*
X145896904Y-94016467D01*
X145864500Y-94137397D01*
X145864500Y-94137399D01*
X145864500Y-94262601D01*
X145896905Y-94383536D01*
X145959505Y-94491964D01*
X146048036Y-94580495D01*
X146156464Y-94643095D01*
X146156468Y-94643096D01*
X146259634Y-94670740D01*
X146269780Y-94678525D01*
X146281600Y-94683421D01*
X146284134Y-94689539D01*
X146289387Y-94693570D01*
X146291056Y-94706250D01*
X146295952Y-94718069D01*
X146293417Y-94724187D01*
X146294282Y-94730752D01*
X146281601Y-94752718D01*
X146239170Y-94795148D01*
X146204524Y-94809500D01*
X145890452Y-94809500D01*
X145855804Y-94795148D01*
X145776539Y-94715883D01*
X145697168Y-94662850D01*
X145661811Y-94639225D01*
X145661808Y-94639223D01*
X145661807Y-94639223D01*
X145534329Y-94586420D01*
X145534318Y-94586417D01*
X145398998Y-94559500D01*
X145398993Y-94559500D01*
X145261007Y-94559500D01*
X145261001Y-94559500D01*
X145125681Y-94586417D01*
X145125670Y-94586420D01*
X144998192Y-94639223D01*
X144883460Y-94715883D01*
X144785883Y-94813460D01*
X144709223Y-94928192D01*
X144656420Y-95055670D01*
X144656417Y-95055681D01*
X144629500Y-95191001D01*
X140400500Y-95191001D01*
X140400500Y-82905519D01*
X141799500Y-82905519D01*
X141799500Y-83094480D01*
X141829059Y-83281115D01*
X141829060Y-83281118D01*
X141887453Y-83460833D01*
X141973236Y-83629193D01*
X141973239Y-83629197D01*
X141973240Y-83629199D01*
X142084310Y-83782073D01*
X142084312Y-83782075D01*
X142084315Y-83782079D01*
X142217920Y-83915684D01*
X142217923Y-83915686D01*
X142217927Y-83915690D01*
X142370801Y-84026760D01*
X142370803Y-84026761D01*
X142370806Y-84026763D01*
X142504634Y-84094951D01*
X142539168Y-84112547D01*
X142718882Y-84170940D01*
X142905519Y-84200500D01*
X142905520Y-84200500D01*
X143094480Y-84200500D01*
X143094481Y-84200500D01*
X143281118Y-84170940D01*
X143460832Y-84112547D01*
X143629199Y-84026760D01*
X143782073Y-83915690D01*
X143915690Y-83782073D01*
X144026760Y-83629199D01*
X144112547Y-83460832D01*
X144170940Y-83281118D01*
X144200500Y-83094481D01*
X144200500Y-82905519D01*
X144170940Y-82718882D01*
X144112547Y-82539168D01*
X144102301Y-82519059D01*
X144026763Y-82370806D01*
X144026761Y-82370803D01*
X144026760Y-82370801D01*
X143915690Y-82217927D01*
X143915686Y-82217923D01*
X143915684Y-82217920D01*
X143782079Y-82084315D01*
X143782080Y-82084315D01*
X143668435Y-82001747D01*
X143629199Y-81973240D01*
X143629197Y-81973239D01*
X143629193Y-81973236D01*
X143460833Y-81887453D01*
X143281118Y-81829060D01*
X143281115Y-81829059D01*
X143137744Y-81806352D01*
X143094481Y-81799500D01*
X142905519Y-81799500D01*
X142870397Y-81805062D01*
X142718884Y-81829059D01*
X142718881Y-81829060D01*
X142539166Y-81887453D01*
X142370806Y-81973236D01*
X142217920Y-82084315D01*
X142084315Y-82217920D01*
X141973236Y-82370806D01*
X141887453Y-82539166D01*
X141829060Y-82718881D01*
X141829059Y-82718884D01*
X141799500Y-82905519D01*
X140400500Y-82905519D01*
X140400500Y-82001747D01*
X140400625Y-81998252D01*
X140408549Y-81887453D01*
X140416530Y-81775849D01*
X140417521Y-81768956D01*
X140464546Y-81552792D01*
X140466514Y-81546088D01*
X140543824Y-81338811D01*
X140546720Y-81332471D01*
X140652736Y-81138319D01*
X140656511Y-81132445D01*
X140710481Y-81060349D01*
X140789082Y-80955349D01*
X140793653Y-80950074D01*
X140950074Y-80793653D01*
X140955351Y-80789081D01*
X140999730Y-80755860D01*
X141132445Y-80656510D01*
X141138319Y-80652736D01*
X141332471Y-80546720D01*
X141338811Y-80543824D01*
X141546092Y-80466512D01*
X141552792Y-80464546D01*
X141768956Y-80417521D01*
X141775849Y-80416530D01*
X141998252Y-80400624D01*
X142001747Y-80400500D01*
X142057583Y-80400500D01*
X167942417Y-80400500D01*
X167998253Y-80400500D01*
X168001747Y-80400624D01*
G37*
%TD.AperFunction*%
%TD*%
%TA.AperFunction,Conductor*%
%TO.N,Net-(U6-LX2)*%
G36*
X159860648Y-81129352D02*
G01*
X159875000Y-81164000D01*
X159875000Y-83065000D01*
X160051000Y-83065000D01*
X160085648Y-83079352D01*
X160100000Y-83114000D01*
X160100000Y-83791000D01*
X160085648Y-83825648D01*
X160051000Y-83840000D01*
X159949000Y-83840000D01*
X159914352Y-83825648D01*
X159900000Y-83791000D01*
X159900000Y-83240000D01*
X159749000Y-83240000D01*
X159714352Y-83225648D01*
X159700000Y-83191000D01*
X159700000Y-82865000D01*
X158474000Y-82865000D01*
X158439352Y-82850648D01*
X158425000Y-82816000D01*
X158425000Y-81164000D01*
X158439352Y-81129352D01*
X158474000Y-81115000D01*
X159826000Y-81115000D01*
X159860648Y-81129352D01*
G37*
%TD.AperFunction*%
%TD*%
%TA.AperFunction,Conductor*%
%TO.N,Net-(U6-LX1)*%
G36*
X161585648Y-81104352D02*
G01*
X161600000Y-81139000D01*
X161600000Y-82941000D01*
X161585648Y-82975648D01*
X161551000Y-82990000D01*
X160500000Y-82990000D01*
X160500000Y-83693426D01*
X160499999Y-83693677D01*
X160499973Y-83698671D01*
X160499500Y-83700438D01*
X160499500Y-83791000D01*
X160499499Y-83791251D01*
X160492294Y-83808395D01*
X160485148Y-83825648D01*
X160485022Y-83825699D01*
X160484970Y-83825825D01*
X160467751Y-83832854D01*
X160450500Y-83840000D01*
X160354500Y-83840000D01*
X160319852Y-83825648D01*
X160305500Y-83791000D01*
X160305500Y-83114001D01*
X160300941Y-83091079D01*
X160300000Y-83081521D01*
X160300000Y-82890000D01*
X160175257Y-82890000D01*
X160159222Y-82887302D01*
X160157848Y-82886826D01*
X160129643Y-82875143D01*
X160116645Y-82872557D01*
X160113465Y-82871456D01*
X160101766Y-82861069D01*
X160088757Y-82852376D01*
X160087570Y-82848464D01*
X160085421Y-82846556D01*
X160085038Y-82840117D01*
X160080500Y-82825154D01*
X160080500Y-81164001D01*
X160080499Y-81163994D01*
X160077429Y-81148559D01*
X160084745Y-81111777D01*
X160115928Y-81090942D01*
X160125487Y-81090000D01*
X161551000Y-81090000D01*
X161585648Y-81104352D01*
G37*
%TD.AperFunction*%
%TD*%
M02*
