%TF.GenerationSoftware,KiCad,Pcbnew,9.0.9-9.0.9~ubuntu24.04.1*%
%TF.CreationDate,2026-06-15T18:42:05-05:00*%
%TF.ProjectId,PWR-MGR-PCB,5057522d-4d47-4522-9d50-43422e6b6963,rev?*%
%TF.SameCoordinates,Original*%
%TF.FileFunction,Soldermask,Top*%
%TF.FilePolarity,Negative*%
%FSLAX46Y46*%
G04 Gerber Fmt 4.6, Leading zero omitted, Abs format (unit mm)*
G04 Created by KiCad (PCBNEW 9.0.9-9.0.9~ubuntu24.04.1) date 2026-06-15 18:42:05*
%MOMM*%
%LPD*%
G01*
G04 APERTURE LIST*
G04 Aperture macros list*
%AMRoundRect*
0 Rectangle with rounded corners*
0 $1 Rounding radius*
0 $2 $3 $4 $5 $6 $7 $8 $9 X,Y pos of 4 corners*
0 Add a 4 corners polygon primitive as box body*
4,1,4,$2,$3,$4,$5,$6,$7,$8,$9,$2,$3,0*
0 Add four circle primitives for the rounded corners*
1,1,$1+$1,$2,$3*
1,1,$1+$1,$4,$5*
1,1,$1+$1,$6,$7*
1,1,$1+$1,$8,$9*
0 Add four rect primitives between the rounded corners*
20,1,$1+$1,$2,$3,$4,$5,0*
20,1,$1+$1,$4,$5,$6,$7,0*
20,1,$1+$1,$6,$7,$8,$9,0*
20,1,$1+$1,$8,$9,$2,$3,0*%
G04 Aperture macros list end*
%ADD10C,0.010000*%
%ADD11C,0.200000*%
%ADD12RoundRect,0.250000X-0.600000X-0.750000X0.600000X-0.750000X0.600000X0.750000X-0.600000X0.750000X0*%
%ADD13O,1.700000X2.000000*%
%ADD14RoundRect,0.250000X0.475000X-0.250000X0.475000X0.250000X-0.475000X0.250000X-0.475000X-0.250000X0*%
%ADD15C,0.203200*%
%ADD16RoundRect,0.250000X0.262500X0.450000X-0.262500X0.450000X-0.262500X-0.450000X0.262500X-0.450000X0*%
%ADD17RoundRect,0.250000X-0.262500X-0.450000X0.262500X-0.450000X0.262500X0.450000X-0.262500X0.450000X0*%
%ADD18RoundRect,0.102000X-0.400000X-0.400000X0.400000X-0.400000X0.400000X0.400000X-0.400000X0.400000X0*%
%ADD19C,2.100000*%
%ADD20RoundRect,0.250000X0.450000X-0.262500X0.450000X0.262500X-0.450000X0.262500X-0.450000X-0.262500X0*%
%ADD21O,1.800000X1.000000*%
%ADD22O,2.100000X1.000000*%
%ADD23RoundRect,0.150000X-0.425000X0.150000X-0.425000X-0.150000X0.425000X-0.150000X0.425000X0.150000X0*%
%ADD24RoundRect,0.075000X-0.500000X0.075000X-0.500000X-0.075000X0.500000X-0.075000X0.500000X0.075000X0*%
%ADD25C,0.650000*%
%ADD26RoundRect,0.250000X-0.250000X-0.475000X0.250000X-0.475000X0.250000X0.475000X-0.250000X0.475000X0*%
%ADD27RoundRect,0.250000X1.000000X0.650000X-1.000000X0.650000X-1.000000X-0.650000X1.000000X-0.650000X0*%
%ADD28RoundRect,0.250000X-0.475000X0.250000X-0.475000X-0.250000X0.475000X-0.250000X0.475000X0.250000X0*%
%ADD29RoundRect,0.150000X-0.512500X-0.150000X0.512500X-0.150000X0.512500X0.150000X-0.512500X0.150000X0*%
%ADD30RoundRect,0.102000X-0.470000X-0.510000X0.470000X-0.510000X0.470000X0.510000X-0.470000X0.510000X0*%
%ADD31RoundRect,0.250000X-0.450000X0.262500X-0.450000X-0.262500X0.450000X-0.262500X0.450000X0.262500X0*%
%ADD32C,1.350000*%
%ADD33R,1.350000X1.350000*%
%ADD34RoundRect,0.250000X0.250000X0.475000X-0.250000X0.475000X-0.250000X-0.475000X0.250000X-0.475000X0*%
G04 APERTURE END LIST*
D10*
%TO.C,U1*%
X164310000Y-96760000D02*
X163610000Y-96760000D01*
X163610000Y-96360000D01*
X164310000Y-96360000D01*
X164310000Y-96760000D01*
G36*
X164310000Y-96760000D02*
G01*
X163610000Y-96760000D01*
X163610000Y-96360000D01*
X164310000Y-96360000D01*
X164310000Y-96760000D01*
G37*
X164310000Y-96260000D02*
X163610000Y-96260000D01*
X163610000Y-95860000D01*
X164310000Y-95860000D01*
X164310000Y-96260000D01*
G36*
X164310000Y-96260000D02*
G01*
X163610000Y-96260000D01*
X163610000Y-95860000D01*
X164310000Y-95860000D01*
X164310000Y-96260000D01*
G37*
X164310000Y-95760000D02*
X163610000Y-95760000D01*
X163610000Y-95360000D01*
X164310000Y-95360000D01*
X164310000Y-95760000D01*
G36*
X164310000Y-95760000D02*
G01*
X163610000Y-95760000D01*
X163610000Y-95360000D01*
X164310000Y-95360000D01*
X164310000Y-95760000D01*
G37*
X164310000Y-95260000D02*
X163610000Y-95260000D01*
X163610000Y-94860000D01*
X164310000Y-94860000D01*
X164310000Y-95260000D01*
G36*
X164310000Y-95260000D02*
G01*
X163610000Y-95260000D01*
X163610000Y-94860000D01*
X164310000Y-94860000D01*
X164310000Y-95260000D01*
G37*
X163360000Y-94610000D02*
X162960000Y-94610000D01*
X162960000Y-93910000D01*
X163360000Y-93910000D01*
X163360000Y-94610000D01*
G36*
X163360000Y-94610000D02*
G01*
X162960000Y-94610000D01*
X162960000Y-93910000D01*
X163360000Y-93910000D01*
X163360000Y-94610000D01*
G37*
X163360000Y-97710000D02*
X162960000Y-97710000D01*
X162960000Y-97010000D01*
X163360000Y-97010000D01*
X163360000Y-97710000D01*
G36*
X163360000Y-97710000D02*
G01*
X162960000Y-97710000D01*
X162960000Y-97010000D01*
X163360000Y-97010000D01*
X163360000Y-97710000D01*
G37*
X162860000Y-94610000D02*
X162460000Y-94610000D01*
X162460000Y-93910000D01*
X162860000Y-93910000D01*
X162860000Y-94610000D01*
G36*
X162860000Y-94610000D02*
G01*
X162460000Y-94610000D01*
X162460000Y-93910000D01*
X162860000Y-93910000D01*
X162860000Y-94610000D01*
G37*
X162860000Y-97710000D02*
X162460000Y-97710000D01*
X162460000Y-97010000D01*
X162860000Y-97010000D01*
X162860000Y-97710000D01*
G36*
X162860000Y-97710000D02*
G01*
X162460000Y-97710000D01*
X162460000Y-97010000D01*
X162860000Y-97010000D01*
X162860000Y-97710000D01*
G37*
X162360000Y-94610000D02*
X161960000Y-94610000D01*
X161960000Y-93910000D01*
X162360000Y-93910000D01*
X162360000Y-94610000D01*
G36*
X162360000Y-94610000D02*
G01*
X161960000Y-94610000D01*
X161960000Y-93910000D01*
X162360000Y-93910000D01*
X162360000Y-94610000D01*
G37*
X162360000Y-97710000D02*
X161960000Y-97710000D01*
X161960000Y-97010000D01*
X162360000Y-97010000D01*
X162360000Y-97710000D01*
G36*
X162360000Y-97710000D02*
G01*
X161960000Y-97710000D01*
X161960000Y-97010000D01*
X162360000Y-97010000D01*
X162360000Y-97710000D01*
G37*
X161860000Y-94610000D02*
X161460000Y-94610000D01*
X161460000Y-93910000D01*
X161860000Y-93910000D01*
X161860000Y-94610000D01*
G36*
X161860000Y-94610000D02*
G01*
X161460000Y-94610000D01*
X161460000Y-93910000D01*
X161860000Y-93910000D01*
X161860000Y-94610000D01*
G37*
X163285000Y-96685000D02*
X161535000Y-96685000D01*
X161535000Y-94935000D01*
X163285000Y-94935000D01*
X163285000Y-96685000D01*
G36*
X163285000Y-96685000D02*
G01*
X161535000Y-96685000D01*
X161535000Y-94935000D01*
X163285000Y-94935000D01*
X163285000Y-96685000D01*
G37*
X161860000Y-97710000D02*
X161460000Y-97710000D01*
X161460000Y-97010000D01*
X161860000Y-97010000D01*
X161860000Y-97710000D01*
G36*
X161860000Y-97710000D02*
G01*
X161460000Y-97710000D01*
X161460000Y-97010000D01*
X161860000Y-97010000D01*
X161860000Y-97710000D01*
G37*
X161210000Y-96760000D02*
X160510000Y-96760000D01*
X160510000Y-96360000D01*
X161210000Y-96360000D01*
X161210000Y-96760000D01*
G36*
X161210000Y-96760000D02*
G01*
X160510000Y-96760000D01*
X160510000Y-96360000D01*
X161210000Y-96360000D01*
X161210000Y-96760000D01*
G37*
X161210000Y-96260000D02*
X160510000Y-96260000D01*
X160510000Y-95860000D01*
X161210000Y-95860000D01*
X161210000Y-96260000D01*
G36*
X161210000Y-96260000D02*
G01*
X160510000Y-96260000D01*
X160510000Y-95860000D01*
X161210000Y-95860000D01*
X161210000Y-96260000D01*
G37*
X161210000Y-95760000D02*
X160510000Y-95760000D01*
X160510000Y-95360000D01*
X161210000Y-95360000D01*
X161210000Y-95760000D01*
G36*
X161210000Y-95760000D02*
G01*
X160510000Y-95760000D01*
X160510000Y-95360000D01*
X161210000Y-95360000D01*
X161210000Y-95760000D01*
G37*
X161210000Y-95260000D02*
X160510000Y-95260000D01*
X160510000Y-94860000D01*
X161210000Y-94860000D01*
X161210000Y-95260000D01*
G36*
X161210000Y-95260000D02*
G01*
X160510000Y-95260000D01*
X160510000Y-94860000D01*
X161210000Y-94860000D01*
X161210000Y-95260000D01*
G37*
D11*
X163710000Y-96560000D02*
G75*
G02*
X163510000Y-96560000I-100000J0D01*
G01*
X163510000Y-96560000D02*
G75*
G02*
X163710000Y-96560000I100000J0D01*
G01*
X163710000Y-96060000D02*
G75*
G02*
X163510000Y-96060000I-100000J0D01*
G01*
X163510000Y-96060000D02*
G75*
G02*
X163710000Y-96060000I100000J0D01*
G01*
X163710000Y-95560000D02*
G75*
G02*
X163510000Y-95560000I-100000J0D01*
G01*
X163510000Y-95560000D02*
G75*
G02*
X163710000Y-95560000I100000J0D01*
G01*
X163710000Y-95060000D02*
G75*
G02*
X163510000Y-95060000I-100000J0D01*
G01*
X163510000Y-95060000D02*
G75*
G02*
X163710000Y-95060000I100000J0D01*
G01*
X163260000Y-97010000D02*
G75*
G02*
X163060000Y-97010000I-100000J0D01*
G01*
X163060000Y-97010000D02*
G75*
G02*
X163260000Y-97010000I100000J0D01*
G01*
X163260000Y-94610000D02*
G75*
G02*
X163060000Y-94610000I-100000J0D01*
G01*
X163060000Y-94610000D02*
G75*
G02*
X163260000Y-94610000I100000J0D01*
G01*
X162760000Y-97010000D02*
G75*
G02*
X162560000Y-97010000I-100000J0D01*
G01*
X162560000Y-97010000D02*
G75*
G02*
X162760000Y-97010000I100000J0D01*
G01*
X162760000Y-94610000D02*
G75*
G02*
X162560000Y-94610000I-100000J0D01*
G01*
X162560000Y-94610000D02*
G75*
G02*
X162760000Y-94610000I100000J0D01*
G01*
X162260000Y-97010000D02*
G75*
G02*
X162060000Y-97010000I-100000J0D01*
G01*
X162060000Y-97010000D02*
G75*
G02*
X162260000Y-97010000I100000J0D01*
G01*
X162260000Y-94610000D02*
G75*
G02*
X162060000Y-94610000I-100000J0D01*
G01*
X162060000Y-94610000D02*
G75*
G02*
X162260000Y-94610000I100000J0D01*
G01*
X161760000Y-97010000D02*
G75*
G02*
X161560000Y-97010000I-100000J0D01*
G01*
X161560000Y-97010000D02*
G75*
G02*
X161760000Y-97010000I100000J0D01*
G01*
X161760000Y-94610000D02*
G75*
G02*
X161560000Y-94610000I-100000J0D01*
G01*
X161560000Y-94610000D02*
G75*
G02*
X161760000Y-94610000I100000J0D01*
G01*
X161310000Y-96560000D02*
G75*
G02*
X161110000Y-96560000I-100000J0D01*
G01*
X161110000Y-96560000D02*
G75*
G02*
X161310000Y-96560000I100000J0D01*
G01*
X161310000Y-96060000D02*
G75*
G02*
X161110000Y-96060000I-100000J0D01*
G01*
X161110000Y-96060000D02*
G75*
G02*
X161310000Y-96060000I100000J0D01*
G01*
X161310000Y-95560000D02*
G75*
G02*
X161110000Y-95560000I-100000J0D01*
G01*
X161110000Y-95560000D02*
G75*
G02*
X161310000Y-95560000I100000J0D01*
G01*
X161310000Y-95060000D02*
G75*
G02*
X161110000Y-95060000I-100000J0D01*
G01*
X161110000Y-95060000D02*
G75*
G02*
X161310000Y-95060000I100000J0D01*
G01*
%TD*%
D12*
%TO.C,J1*%
X149500000Y-83600000D03*
D13*
X152000000Y-83600000D03*
%TD*%
D12*
%TO.C,J2*%
X149500000Y-108000000D03*
D13*
X152000000Y-108000000D03*
%TD*%
D14*
%TO.C,C9*%
X162750000Y-82040000D03*
X162750000Y-83940000D03*
%TD*%
D15*
%TO.C,U6*%
X159599850Y-84140000D03*
X159599850Y-83740000D03*
X159999900Y-84140000D03*
X159999900Y-83740000D03*
X160399950Y-84140000D03*
X160399950Y-83740000D03*
X160800000Y-84140000D03*
X160800000Y-83740000D03*
%TD*%
D16*
%TO.C,R7*%
X157737500Y-98930000D03*
X159562500Y-98930000D03*
%TD*%
%TO.C,R6*%
X166522500Y-93535000D03*
X168347500Y-93535000D03*
%TD*%
D17*
%TO.C,R2*%
X159657500Y-101030000D03*
X157832500Y-101030000D03*
%TD*%
D18*
%TO.C,D1*%
X166790000Y-98905000D03*
X168440000Y-98905000D03*
%TD*%
D19*
%TO.C,H6*%
X143000000Y-83000000D03*
%TD*%
D20*
%TO.C,R3*%
X158085000Y-95247500D03*
X158085000Y-97072500D03*
%TD*%
D19*
%TO.C,H7*%
X167000000Y-112000000D03*
%TD*%
D21*
%TO.C,J3*%
X142660000Y-101410000D03*
D22*
X146840000Y-101410000D03*
D21*
X142660000Y-92770000D03*
D22*
X146840000Y-92770000D03*
D23*
X147415000Y-93890000D03*
X147415000Y-94690000D03*
D24*
X147415000Y-95340000D03*
X147415000Y-96340000D03*
X147415000Y-97840000D03*
X147415000Y-98840000D03*
D23*
X147415000Y-99490000D03*
X147415000Y-100290000D03*
X147415000Y-100290000D03*
X147415000Y-99490000D03*
D24*
X147415000Y-98340000D03*
X147415000Y-97340000D03*
X147415000Y-96840000D03*
X147415000Y-95840000D03*
D23*
X147415000Y-94690000D03*
X147415000Y-93890000D03*
D25*
X146340000Y-99980000D03*
X146340000Y-94200000D03*
%TD*%
D26*
%TO.C,C4*%
X164700000Y-99960000D03*
X162800000Y-99960000D03*
%TD*%
D17*
%TO.C,R4*%
X160882500Y-103080000D03*
X159057500Y-103080000D03*
%TD*%
D14*
%TO.C,C10*%
X157275000Y-81765000D03*
X157275000Y-83665000D03*
%TD*%
D18*
%TO.C,D2*%
X166680000Y-95285000D03*
X168330000Y-95285000D03*
%TD*%
D16*
%TO.C,R5*%
X166642500Y-97145000D03*
X168467500Y-97145000D03*
%TD*%
D27*
%TO.C,D3*%
X151400000Y-89800000D03*
X155400000Y-89800000D03*
%TD*%
D28*
%TO.C,C5*%
X158110000Y-93490000D03*
X158110000Y-91590000D03*
%TD*%
D26*
%TO.C,C6*%
X164685000Y-91895000D03*
X162785000Y-91895000D03*
%TD*%
D29*
%TO.C,U5*%
X154037500Y-96150000D03*
X154037500Y-97100000D03*
X154037500Y-98050000D03*
X151762500Y-98050000D03*
X151762500Y-97100000D03*
X151762500Y-96150000D03*
%TD*%
D30*
%TO.C,L2*%
X160815000Y-82040000D03*
X159235000Y-82040000D03*
%TD*%
D31*
%TO.C,R12*%
X150000000Y-101912500D03*
X150000000Y-100087500D03*
%TD*%
D19*
%TO.C,H5*%
X167000000Y-83000000D03*
%TD*%
D20*
%TO.C,R13*%
X151200000Y-92587500D03*
X151200000Y-94412500D03*
%TD*%
D32*
%TO.C,J5*%
X154950000Y-101050000D03*
D33*
X152950000Y-101050000D03*
%TD*%
D19*
%TO.C,H8*%
X143000000Y-112000000D03*
%TD*%
D17*
%TO.C,R17*%
X161337500Y-86665000D03*
X159512500Y-86665000D03*
%TD*%
D31*
%TO.C,R1*%
X160910000Y-92020000D03*
X160910000Y-90195000D03*
%TD*%
D34*
%TO.C,C3*%
X153850000Y-94100000D03*
X155750000Y-94100000D03*
%TD*%
D16*
%TO.C,R18*%
X155937500Y-86690000D03*
X157762500Y-86690000D03*
%TD*%
M02*
