M48
; DRILL file {KiCad 9.0.9-9.0.9~ubuntu24.04.1} date 2026-06-15T18:42:43-0500
; FORMAT={-:-/ absolute / metric / decimal}
; #@! TF.CreationDate,2026-06-15T18:42:43-05:00
; #@! TF.GenerationSoftware,Kicad,Pcbnew,9.0.9-9.0.9~ubuntu24.04.1
; #@! TF.FileFunction,Plated,1,2,PTH
FMAT,2
METRIC
; #@! TA.AperFunction,Plated,PTH,ViaDrill
T1C0.300
; #@! TA.AperFunction,Plated,PTH,ComponentDrill
T2C0.600
; #@! TA.AperFunction,Plated,PTH,ComponentDrill
T3C0.800
; #@! TA.AperFunction,Plated,PTH,ComponentDrill
T4C1.000
%
G90
G05
T1
X142.2Y-86.645
X142.2Y-89.645
X142.2Y-95.645
X142.2Y-98.645
X142.2Y-104.645
X142.2Y-107.645
X142.66Y-91.03
X142.67Y-103.09
X145.2Y-83.645
X145.2Y-86.645
X145.2Y-89.645
X145.2Y-104.645
X145.2Y-107.645
X145.2Y-110.645
X145.2Y-113.645
X146.84Y-103.11
X146.85Y-91.13
X148.2Y-86.645
X148.2Y-89.645
X148.2Y-104.645
X148.2Y-110.645
X148.2Y-113.645
X150.0Y-103.4
X150.1Y-97.0
X151.2Y-86.645
X151.2Y-104.645
X151.2Y-110.645
X151.2Y-113.645
X153.0Y-92.5
X154.2Y-92.5
X154.2Y-104.645
X154.2Y-110.645
X154.2Y-113.645
X155.55Y-81.86
X156.22Y-98.42
X156.34Y-96.72
X156.78Y-92.56
X157.14Y-102.63
X157.2Y-110.645
X157.2Y-113.645
X157.44Y-103.54
X157.98Y-85.23
X160.2Y-104.645
X160.2Y-110.645
X160.2Y-113.645
X160.91Y-88.807
X161.04Y-85.2
X162.41Y-95.81
X162.75Y-87.1
X162.775Y-86.205
X163.2Y-107.645
X163.2Y-110.645
X163.2Y-113.645
X164.085Y-98.235
X164.22Y-81.58
X165.075Y-90.275
X165.23Y-101.75
X165.305Y-95.155
X166.2Y-86.645
X166.2Y-104.645
X166.2Y-107.645
T3
X152.95Y-101.05
X154.95Y-101.05
T4
X149.5Y-83.6
X149.5Y-108.0
X152.0Y-83.6
X152.0Y-108.0
T2
G00X143.06Y-92.77
M15
G01X142.26Y-92.77
M16
G05
G00X143.06Y-101.41
M15
G01X142.26Y-101.41
M16
G05
G00X147.39Y-92.77
M15
G01X146.29Y-92.77
M16
G05
G00X147.39Y-101.41
M15
G01X146.29Y-101.41
M16
G05
M30
