%TF.GenerationSoftware,KiCad,Pcbnew,9.0.9-9.0.9~ubuntu24.04.1*%
%TF.CreationDate,2026-06-15T18:42:05-05:00*%
%TF.ProjectId,PWR-MGR-PCB,5057522d-4d47-4522-9d50-43422e6b6963,rev?*%
%TF.SameCoordinates,Original*%
%TF.FileFunction,AssemblyDrawing,Top*%
%FSLAX46Y46*%
G04 Gerber Fmt 4.6, Leading zero omitted, Abs format (unit mm)*
G04 Created by KiCad (PCBNEW 9.0.9-9.0.9~ubuntu24.04.1) date 2026-06-15 18:42:05*
%MOMM*%
%LPD*%
G01*
G04 APERTURE LIST*
%ADD10C,0.100000*%
%ADD11C,0.025400*%
%ADD12C,0.200000*%
%ADD13C,0.127000*%
%ADD14C,0.010000*%
%ADD15C,0.101600*%
G04 APERTURE END LIST*
D10*
%TO.C,J1*%
X147050000Y-81250000D02*
X147050000Y-87000000D01*
X147050000Y-87000000D02*
X154450000Y-87000000D01*
X148875000Y-81250000D02*
X149500000Y-82250000D01*
X149500000Y-82250000D02*
X150125000Y-81250000D01*
X154450000Y-81250000D02*
X147050000Y-81250000D01*
X154450000Y-87000000D02*
X154450000Y-81250000D01*
%TO.C,J2*%
X147050000Y-105650000D02*
X147050000Y-111400000D01*
X147050000Y-111400000D02*
X154450000Y-111400000D01*
X148875000Y-105650000D02*
X149500000Y-106650000D01*
X149500000Y-106650000D02*
X150125000Y-105650000D01*
X154450000Y-105650000D02*
X147050000Y-105650000D01*
X154450000Y-111400000D02*
X154450000Y-105650000D01*
%TO.C,C9*%
X163375000Y-83990000D02*
X162125000Y-83990000D01*
X163375000Y-81990000D02*
X163375000Y-83990000D01*
X162125000Y-83990000D02*
X162125000Y-81990000D01*
X162125000Y-81990000D02*
X163375000Y-81990000D01*
D11*
%TO.C,U6*%
X161101625Y-84384500D02*
X161101625Y-83495500D01*
X161101625Y-83695500D02*
X160901600Y-83495500D01*
X161101625Y-83495500D02*
X159298225Y-83495500D01*
X159298225Y-84384500D02*
X161101625Y-84384500D01*
X159298225Y-83495500D02*
X159298225Y-84384500D01*
D10*
%TO.C,R7*%
X159650000Y-99555000D02*
X157650000Y-99555000D01*
X159650000Y-98305000D02*
X159650000Y-99555000D01*
X157650000Y-99555000D02*
X157650000Y-98305000D01*
X157650000Y-98305000D02*
X159650000Y-98305000D01*
%TO.C,R6*%
X168435000Y-94160000D02*
X166435000Y-94160000D01*
X168435000Y-92910000D02*
X168435000Y-94160000D01*
X166435000Y-94160000D02*
X166435000Y-92910000D01*
X166435000Y-92910000D02*
X168435000Y-92910000D01*
%TO.C,R2*%
X159745000Y-101655000D02*
X157745000Y-101655000D01*
X159745000Y-100405000D02*
X159745000Y-101655000D01*
X157745000Y-101655000D02*
X157745000Y-100405000D01*
X157745000Y-100405000D02*
X159745000Y-100405000D01*
D12*
%TO.C,D1*%
X165950000Y-98905000D02*
G75*
G02*
X165750000Y-98905000I-100000J0D01*
G01*
X165750000Y-98905000D02*
G75*
G02*
X165950000Y-98905000I100000J0D01*
G01*
D13*
X168415000Y-99305000D02*
X168415000Y-98505000D01*
X168415000Y-98505000D02*
X166815000Y-98505000D01*
X166815000Y-99305000D02*
X168415000Y-99305000D01*
X166815000Y-98505000D02*
X166815000Y-99305000D01*
D10*
%TO.C,R3*%
X158710000Y-97160000D02*
X157460000Y-97160000D01*
X158710000Y-95160000D02*
X158710000Y-97160000D01*
X157460000Y-97160000D02*
X157460000Y-95160000D01*
X157460000Y-95160000D02*
X158710000Y-95160000D01*
%TO.C,J3*%
X147410000Y-92620000D02*
X140060000Y-92620000D01*
X140060000Y-101560000D01*
X147410000Y-101560000D01*
X147410000Y-92620000D01*
%TO.C,C4*%
X164750000Y-100585000D02*
X162750000Y-100585000D01*
X164750000Y-99335000D02*
X164750000Y-100585000D01*
X162750000Y-100585000D02*
X162750000Y-99335000D01*
X162750000Y-99335000D02*
X164750000Y-99335000D01*
%TO.C,R4*%
X160970000Y-103705000D02*
X158970000Y-103705000D01*
X160970000Y-102455000D02*
X160970000Y-103705000D01*
X158970000Y-103705000D02*
X158970000Y-102455000D01*
X158970000Y-102455000D02*
X160970000Y-102455000D01*
%TO.C,C10*%
X157900000Y-83715000D02*
X156650000Y-83715000D01*
X157900000Y-81715000D02*
X157900000Y-83715000D01*
X156650000Y-83715000D02*
X156650000Y-81715000D01*
X156650000Y-81715000D02*
X157900000Y-81715000D01*
D12*
%TO.C,D2*%
X165840000Y-95285000D02*
G75*
G02*
X165640000Y-95285000I-100000J0D01*
G01*
X165640000Y-95285000D02*
G75*
G02*
X165840000Y-95285000I100000J0D01*
G01*
D13*
X168305000Y-95685000D02*
X168305000Y-94885000D01*
X168305000Y-94885000D02*
X166705000Y-94885000D01*
X166705000Y-95685000D02*
X168305000Y-95685000D01*
X166705000Y-94885000D02*
X166705000Y-95685000D01*
D10*
%TO.C,R5*%
X168555000Y-97770000D02*
X166555000Y-97770000D01*
X168555000Y-96520000D02*
X168555000Y-97770000D01*
X166555000Y-97770000D02*
X166555000Y-96520000D01*
X166555000Y-96520000D02*
X168555000Y-96520000D01*
%TO.C,D3*%
X155700000Y-88300000D02*
X155700000Y-91300000D01*
X154049440Y-90599080D02*
X154049440Y-88998880D01*
X154049440Y-89798980D02*
X154951140Y-89798980D01*
X154049440Y-89798980D02*
X152898820Y-90599080D01*
X154049440Y-89798980D02*
X152898820Y-89049680D01*
X152898820Y-89798980D02*
X151900600Y-89798980D01*
X152898820Y-89049680D02*
X152898820Y-90599080D01*
X151100000Y-91300000D02*
X155700000Y-91300000D01*
X151100000Y-91300000D02*
X151100000Y-88300000D01*
X151100000Y-88300000D02*
X155700000Y-88300000D01*
%TO.C,C5*%
X158735000Y-93540000D02*
X157485000Y-93540000D01*
X158735000Y-91540000D02*
X158735000Y-93540000D01*
X157485000Y-93540000D02*
X157485000Y-91540000D01*
X157485000Y-91540000D02*
X158735000Y-91540000D01*
%TO.C,C6*%
X164735000Y-92520000D02*
X162735000Y-92520000D01*
X164735000Y-91270000D02*
X164735000Y-92520000D01*
X162735000Y-92520000D02*
X162735000Y-91270000D01*
X162735000Y-91270000D02*
X164735000Y-91270000D01*
%TO.C,U5*%
X153700000Y-98550000D02*
X152100000Y-98550000D01*
X153700000Y-95650000D02*
X153700000Y-98550000D01*
X152500000Y-95650000D02*
X153700000Y-95650000D01*
X152100000Y-98550000D02*
X152100000Y-96050000D01*
X152100000Y-96050000D02*
X152500000Y-95650000D01*
D13*
%TO.C,L2*%
X160925000Y-82540000D02*
X160925000Y-81540000D01*
X160925000Y-82540000D02*
X159125000Y-82540000D01*
X160925000Y-81540000D02*
X159125000Y-81540000D01*
X159125000Y-82540000D02*
X159125000Y-81540000D01*
D10*
%TO.C,R12*%
X150625000Y-102000000D02*
X149375000Y-102000000D01*
X150625000Y-100000000D02*
X150625000Y-102000000D01*
X149375000Y-102000000D02*
X149375000Y-100000000D01*
X149375000Y-100000000D02*
X150625000Y-100000000D01*
%TO.C,R13*%
X151825000Y-94500000D02*
X150575000Y-94500000D01*
X151825000Y-92500000D02*
X151825000Y-94500000D01*
X150575000Y-94500000D02*
X150575000Y-92500000D01*
X150575000Y-92500000D02*
X151825000Y-92500000D01*
%TO.C,J5*%
X155950000Y-102050000D02*
X152450000Y-102050000D01*
X155950000Y-100050000D02*
X155950000Y-102050000D01*
X152450000Y-102050000D02*
X151950000Y-101550000D01*
X151950000Y-101550000D02*
X151950000Y-100050000D01*
X151950000Y-100050000D02*
X155950000Y-100050000D01*
%TO.C,R17*%
X161425000Y-87290000D02*
X159425000Y-87290000D01*
X161425000Y-86040000D02*
X161425000Y-87290000D01*
X159425000Y-87290000D02*
X159425000Y-86040000D01*
X159425000Y-86040000D02*
X161425000Y-86040000D01*
%TO.C,R1*%
X161535000Y-92107500D02*
X160285000Y-92107500D01*
X161535000Y-90107500D02*
X161535000Y-92107500D01*
X160285000Y-92107500D02*
X160285000Y-90107500D01*
X160285000Y-90107500D02*
X161535000Y-90107500D01*
D14*
%TO.C,U1*%
X162410000Y-97310000D02*
X160910000Y-97310000D01*
X160910000Y-95810000D01*
X162410000Y-95810000D01*
X162410000Y-97310000D01*
G36*
X162410000Y-97310000D02*
G01*
X160910000Y-97310000D01*
X160910000Y-95810000D01*
X162410000Y-95810000D01*
X162410000Y-97310000D01*
G37*
D15*
X163910000Y-97310000D02*
X160910000Y-97310000D01*
X163910000Y-94310000D02*
X163910000Y-97310000D01*
X160910000Y-97310000D02*
X160910000Y-94310000D01*
X160910000Y-94310000D02*
X163910000Y-94310000D01*
D10*
%TO.C,C3*%
X155800000Y-94725000D02*
X153800000Y-94725000D01*
X155800000Y-93475000D02*
X155800000Y-94725000D01*
X153800000Y-94725000D02*
X153800000Y-93475000D01*
X153800000Y-93475000D02*
X155800000Y-93475000D01*
%TO.C,R18*%
X157850000Y-87315000D02*
X155850000Y-87315000D01*
X157850000Y-86065000D02*
X157850000Y-87315000D01*
X155850000Y-87315000D02*
X155850000Y-86065000D01*
X155850000Y-86065000D02*
X157850000Y-86065000D01*
%TD*%
M02*
