%TF.GenerationSoftware,KiCad,Pcbnew,9.0.3*%
%TF.CreationDate,2025-12-21T14:28:37-06:00*%
%TF.ProjectId,PWR-MGR-PCB,5057522d-4d47-4522-9d50-43422e6b6963,rev?*%
%TF.SameCoordinates,Original*%
%TF.FileFunction,Legend,Top*%
%TF.FilePolarity,Positive*%
%FSLAX46Y46*%
G04 Gerber Fmt 4.6, Leading zero omitted, Abs format (unit mm)*
G04 Created by KiCad (PCBNEW 9.0.3) date 2025-12-21 14:28:37*
%MOMM*%
%LPD*%
G01*
G04 APERTURE LIST*
G04 Aperture macros list*
%AMRoundRect*
0 Rectangle with rounded corners*
0 $1 Rounding radius*
0 $2 $3 $4 $5 $6 $7 $8 $9 X,Y pos of 4 corners*
0 Add a 4 corners polygon primitive as box body*
4,1,4,$2,$3,$4,$5,$6,$7,$8,$9,$2,$3,0*
0 Add four circle primitives for the rounded corners*
1,1,$1+$1,$2,$3*
1,1,$1+$1,$4,$5*
1,1,$1+$1,$6,$7*
1,1,$1+$1,$8,$9*
0 Add four rect primitives between the rounded corners*
20,1,$1+$1,$2,$3,$4,$5,0*
20,1,$1+$1,$4,$5,$6,$7,0*
20,1,$1+$1,$6,$7,$8,$9,0*
20,1,$1+$1,$8,$9,$2,$3,0*%
G04 Aperture macros list end*
%ADD10C,0.120000*%
%ADD11C,0.152400*%
%ADD12C,0.127000*%
%ADD13C,0.200000*%
%ADD14C,0.101600*%
%ADD15C,0.010000*%
%ADD16RoundRect,0.250000X-0.250000X-0.475000X0.250000X-0.475000X0.250000X0.475000X-0.250000X0.475000X0*%
%ADD17C,0.203200*%
%ADD18RoundRect,0.250000X0.262500X0.450000X-0.262500X0.450000X-0.262500X-0.450000X0.262500X-0.450000X0*%
%ADD19RoundRect,0.250000X-0.262500X-0.450000X0.262500X-0.450000X0.262500X0.450000X-0.262500X0.450000X0*%
%ADD20RoundRect,0.250000X0.600000X0.750000X-0.600000X0.750000X-0.600000X-0.750000X0.600000X-0.750000X0*%
%ADD21O,1.700000X2.000000*%
%ADD22RoundRect,0.102000X-0.400000X-0.400000X0.400000X-0.400000X0.400000X0.400000X-0.400000X0.400000X0*%
%ADD23C,2.100000*%
%ADD24RoundRect,0.250000X0.450000X-0.262500X0.450000X0.262500X-0.450000X0.262500X-0.450000X-0.262500X0*%
%ADD25C,0.650000*%
%ADD26RoundRect,0.150000X-0.425000X0.150000X-0.425000X-0.150000X0.425000X-0.150000X0.425000X0.150000X0*%
%ADD27RoundRect,0.075000X-0.500000X0.075000X-0.500000X-0.075000X0.500000X-0.075000X0.500000X0.075000X0*%
%ADD28O,2.100000X1.000000*%
%ADD29O,1.800000X1.000000*%
%ADD30RoundRect,0.250000X1.000000X0.650000X-1.000000X0.650000X-1.000000X-0.650000X1.000000X-0.650000X0*%
%ADD31RoundRect,0.250000X0.250000X0.475000X-0.250000X0.475000X-0.250000X-0.475000X0.250000X-0.475000X0*%
%ADD32RoundRect,0.150000X-0.512500X-0.150000X0.512500X-0.150000X0.512500X0.150000X-0.512500X0.150000X0*%
%ADD33RoundRect,0.250000X-0.600000X-0.750000X0.600000X-0.750000X0.600000X0.750000X-0.600000X0.750000X0*%
%ADD34RoundRect,0.102000X-0.510000X0.470000X-0.510000X-0.470000X0.510000X-0.470000X0.510000X0.470000X0*%
%ADD35RoundRect,0.250000X-0.450000X0.262500X-0.450000X-0.262500X0.450000X-0.262500X0.450000X0.262500X0*%
%ADD36R,1.350000X1.350000*%
%ADD37C,1.350000*%
G04 APERTURE END LIST*
D10*
%TO.C,C9*%
X163688748Y-92115000D02*
X164211252Y-92115000D01*
X163688748Y-93585000D02*
X164211252Y-93585000D01*
D11*
%TO.C,U6*%
X162428500Y-91328625D02*
X163571500Y-91328625D01*
X163571500Y-89271225D02*
X162428500Y-89271225D01*
D10*
%TO.C,R6*%
X167277064Y-98465000D02*
X166822936Y-98465000D01*
X167277064Y-99935000D02*
X166822936Y-99935000D01*
%TO.C,R2*%
X158147936Y-103840000D02*
X158602064Y-103840000D01*
X158147936Y-105310000D02*
X158602064Y-105310000D01*
%TO.C,J2*%
X150980000Y-108135000D02*
X150980000Y-114105000D01*
X150980000Y-114105000D02*
X158600000Y-114105000D01*
X150990000Y-111845000D02*
X151740000Y-111845000D01*
X150990000Y-113345000D02*
X150990000Y-114095000D01*
X150990000Y-114095000D02*
X152790000Y-114095000D01*
X151740000Y-108895000D02*
X154790000Y-108895000D01*
X151740000Y-111845000D02*
X151740000Y-108895000D01*
X152790000Y-113345000D02*
X150990000Y-113345000D01*
X152790000Y-114095000D02*
X152790000Y-113345000D01*
X154290000Y-113345000D02*
X154290000Y-114095000D01*
X154290000Y-114095000D02*
X155290000Y-114095000D01*
X155290000Y-113345000D02*
X154290000Y-113345000D01*
X155290000Y-114095000D02*
X155290000Y-113345000D01*
X156790000Y-113345000D02*
X156790000Y-114095000D01*
X156790000Y-114095000D02*
X158590000Y-114095000D01*
X157640000Y-114395000D02*
X158890000Y-114395000D01*
X157840000Y-108895000D02*
X154790000Y-108895000D01*
X157840000Y-111845000D02*
X157840000Y-108895000D01*
X158590000Y-111845000D02*
X157840000Y-111845000D01*
X158590000Y-113345000D02*
X156790000Y-113345000D01*
X158590000Y-114095000D02*
X158590000Y-113345000D01*
X158600000Y-108135000D02*
X150980000Y-108135000D01*
X158600000Y-114105000D02*
X158600000Y-108135000D01*
X158890000Y-114395000D02*
X158890000Y-113145000D01*
D12*
%TO.C,D1*%
X167125000Y-104170000D02*
X167335000Y-104170000D01*
X167125000Y-104970000D02*
X167335000Y-104970000D01*
D13*
X165565000Y-104570000D02*
G75*
G02*
X165365000Y-104570000I-100000J0D01*
G01*
X165365000Y-104570000D02*
G75*
G02*
X165565000Y-104570000I100000J0D01*
G01*
D10*
%TO.C,R3*%
X156965000Y-102052064D02*
X156965000Y-101597936D01*
X158435000Y-102052064D02*
X158435000Y-101597936D01*
%TO.C,J3*%
X143835000Y-92420000D02*
X145535000Y-92420000D01*
X143835000Y-101760000D02*
X145535000Y-101760000D01*
%TO.C,C4*%
X163213748Y-105940000D02*
X163736252Y-105940000D01*
X163213748Y-107410000D02*
X163736252Y-107410000D01*
%TO.C,R4*%
X159372936Y-105890000D02*
X159827064Y-105890000D01*
X159372936Y-107360000D02*
X159827064Y-107360000D01*
%TO.C,C10*%
X163963748Y-86640000D02*
X164486252Y-86640000D01*
X163963748Y-88110000D02*
X164486252Y-88110000D01*
D12*
%TO.C,D2*%
X167015000Y-100550000D02*
X167225000Y-100550000D01*
X167015000Y-101350000D02*
X167225000Y-101350000D01*
D13*
X165455000Y-100950000D02*
G75*
G02*
X165255000Y-100950000I-100000J0D01*
G01*
X165255000Y-100950000D02*
G75*
G02*
X165455000Y-100950000I100000J0D01*
G01*
D10*
%TO.C,R5*%
X167397064Y-102075000D02*
X166942936Y-102075000D01*
X167397064Y-103545000D02*
X166942936Y-103545000D01*
%TO.C,D3*%
X156910000Y-88150000D02*
X151400000Y-88150000D01*
X156910000Y-91450000D02*
X151400000Y-91450000D01*
X156910000Y-91450000D02*
X156910000Y-88150000D01*
%TO.C,C5*%
X157211252Y-97665000D02*
X156688748Y-97665000D01*
X157211252Y-99135000D02*
X156688748Y-99135000D01*
%TO.C,C6*%
X163088748Y-96825000D02*
X163611252Y-96825000D01*
X163088748Y-98295000D02*
X163611252Y-98295000D01*
%TO.C,U5*%
X152900000Y-95540000D02*
X152100000Y-95540000D01*
X152900000Y-95540000D02*
X153700000Y-95540000D01*
X152900000Y-98660000D02*
X152100000Y-98660000D01*
X152900000Y-98660000D02*
X153700000Y-98660000D01*
X151600000Y-95590000D02*
X151360000Y-95260000D01*
X151840000Y-95260000D01*
X151600000Y-95590000D01*
G36*
X151600000Y-95590000D02*
G01*
X151360000Y-95260000D01*
X151840000Y-95260000D01*
X151600000Y-95590000D01*
G37*
%TO.C,J1*%
X150690000Y-80790000D02*
X150690000Y-82040000D01*
X150980000Y-81080000D02*
X150980000Y-87050000D01*
X150980000Y-87050000D02*
X158600000Y-87050000D01*
X150990000Y-81090000D02*
X150990000Y-81840000D01*
X150990000Y-81840000D02*
X152790000Y-81840000D01*
X150990000Y-83340000D02*
X151740000Y-83340000D01*
X151740000Y-83340000D02*
X151740000Y-86290000D01*
X151740000Y-86290000D02*
X154790000Y-86290000D01*
X151940000Y-80790000D02*
X150690000Y-80790000D01*
X152790000Y-81090000D02*
X150990000Y-81090000D01*
X152790000Y-81840000D02*
X152790000Y-81090000D01*
X154290000Y-81090000D02*
X154290000Y-81840000D01*
X154290000Y-81840000D02*
X155290000Y-81840000D01*
X155290000Y-81090000D02*
X154290000Y-81090000D01*
X155290000Y-81840000D02*
X155290000Y-81090000D01*
X156790000Y-81090000D02*
X156790000Y-81840000D01*
X156790000Y-81840000D02*
X158590000Y-81840000D01*
X157840000Y-83340000D02*
X157840000Y-86290000D01*
X157840000Y-86290000D02*
X154790000Y-86290000D01*
X158590000Y-81090000D02*
X156790000Y-81090000D01*
X158590000Y-81840000D02*
X158590000Y-81090000D01*
X158590000Y-83340000D02*
X157840000Y-83340000D01*
X158600000Y-81080000D02*
X150980000Y-81080000D01*
X158600000Y-87050000D02*
X158600000Y-81080000D01*
%TO.C,R12*%
X149265000Y-100772936D02*
X149265000Y-101227064D01*
X150735000Y-100772936D02*
X150735000Y-101227064D01*
%TO.C,R13*%
X150465000Y-93727064D02*
X150465000Y-93272936D01*
X151935000Y-93727064D02*
X151935000Y-93272936D01*
%TO.C,J5*%
X151840000Y-102160000D02*
X151840000Y-101050000D01*
X152950000Y-102160000D02*
X151840000Y-102160000D01*
X153950000Y-99940000D02*
X156060000Y-99940000D01*
X153950000Y-102160000D02*
X153950000Y-99940000D01*
X153950000Y-102160000D02*
X156060000Y-102160000D01*
X156060000Y-102160000D02*
X156060000Y-99940000D01*
%TO.C,R17*%
X159540000Y-90297936D02*
X159540000Y-90752064D01*
X161010000Y-90297936D02*
X161010000Y-90752064D01*
%TO.C,R1*%
X159415000Y-96622936D02*
X159415000Y-97077064D01*
X160885000Y-96622936D02*
X160885000Y-97077064D01*
D14*
%TO.C,U1*%
X160525000Y-99975000D02*
X161000000Y-99975000D01*
X160525000Y-100450000D02*
X160525000Y-99975000D01*
X160525000Y-102975000D02*
X160525000Y-102525000D01*
X160975000Y-102975000D02*
X160525000Y-102975000D01*
X163050000Y-99975000D02*
X163525000Y-99975000D01*
X163525000Y-99975000D02*
X163525000Y-100450000D01*
X163525000Y-102500000D02*
X163525000Y-102975000D01*
X163525000Y-102975000D02*
X163050000Y-102975000D01*
D15*
X161025000Y-102975000D02*
X160525000Y-102975000D01*
X160525000Y-102475000D01*
X161025000Y-102475000D01*
X161025000Y-102975000D01*
G36*
X161025000Y-102975000D02*
G01*
X160525000Y-102975000D01*
X160525000Y-102475000D01*
X161025000Y-102475000D01*
X161025000Y-102975000D01*
G37*
D10*
%TO.C,C3*%
X155061252Y-93365000D02*
X154538748Y-93365000D01*
X155061252Y-94835000D02*
X154538748Y-94835000D01*
%TO.C,R18*%
X159515000Y-87177064D02*
X159515000Y-86722936D01*
X160985000Y-87177064D02*
X160985000Y-86722936D01*
%TD*%
%LPC*%
%TO.C,U1*%
D13*
X160925000Y-100725000D02*
G75*
G02*
X160725000Y-100725000I-100000J0D01*
G01*
X160725000Y-100725000D02*
G75*
G02*
X160925000Y-100725000I100000J0D01*
G01*
X160925000Y-101225000D02*
G75*
G02*
X160725000Y-101225000I-100000J0D01*
G01*
X160725000Y-101225000D02*
G75*
G02*
X160925000Y-101225000I100000J0D01*
G01*
X160925000Y-101725000D02*
G75*
G02*
X160725000Y-101725000I-100000J0D01*
G01*
X160725000Y-101725000D02*
G75*
G02*
X160925000Y-101725000I100000J0D01*
G01*
X160925000Y-102225000D02*
G75*
G02*
X160725000Y-102225000I-100000J0D01*
G01*
X160725000Y-102225000D02*
G75*
G02*
X160925000Y-102225000I100000J0D01*
G01*
X161375000Y-100275000D02*
G75*
G02*
X161175000Y-100275000I-100000J0D01*
G01*
X161175000Y-100275000D02*
G75*
G02*
X161375000Y-100275000I100000J0D01*
G01*
X161375000Y-102675000D02*
G75*
G02*
X161175000Y-102675000I-100000J0D01*
G01*
X161175000Y-102675000D02*
G75*
G02*
X161375000Y-102675000I100000J0D01*
G01*
X161875000Y-100275000D02*
G75*
G02*
X161675000Y-100275000I-100000J0D01*
G01*
X161675000Y-100275000D02*
G75*
G02*
X161875000Y-100275000I100000J0D01*
G01*
X161875000Y-102675000D02*
G75*
G02*
X161675000Y-102675000I-100000J0D01*
G01*
X161675000Y-102675000D02*
G75*
G02*
X161875000Y-102675000I100000J0D01*
G01*
X162375000Y-100275000D02*
G75*
G02*
X162175000Y-100275000I-100000J0D01*
G01*
X162175000Y-100275000D02*
G75*
G02*
X162375000Y-100275000I100000J0D01*
G01*
X162375000Y-102675000D02*
G75*
G02*
X162175000Y-102675000I-100000J0D01*
G01*
X162175000Y-102675000D02*
G75*
G02*
X162375000Y-102675000I100000J0D01*
G01*
X162875000Y-100275000D02*
G75*
G02*
X162675000Y-100275000I-100000J0D01*
G01*
X162675000Y-100275000D02*
G75*
G02*
X162875000Y-100275000I100000J0D01*
G01*
X162875000Y-102675000D02*
G75*
G02*
X162675000Y-102675000I-100000J0D01*
G01*
X162675000Y-102675000D02*
G75*
G02*
X162875000Y-102675000I100000J0D01*
G01*
X163325000Y-100725000D02*
G75*
G02*
X163125000Y-100725000I-100000J0D01*
G01*
X163125000Y-100725000D02*
G75*
G02*
X163325000Y-100725000I100000J0D01*
G01*
X163325000Y-101225000D02*
G75*
G02*
X163125000Y-101225000I-100000J0D01*
G01*
X163125000Y-101225000D02*
G75*
G02*
X163325000Y-101225000I100000J0D01*
G01*
X163325000Y-101725000D02*
G75*
G02*
X163125000Y-101725000I-100000J0D01*
G01*
X163125000Y-101725000D02*
G75*
G02*
X163325000Y-101725000I100000J0D01*
G01*
X163325000Y-102225000D02*
G75*
G02*
X163125000Y-102225000I-100000J0D01*
G01*
X163125000Y-102225000D02*
G75*
G02*
X163325000Y-102225000I100000J0D01*
G01*
D15*
X160825000Y-100925000D02*
X160125000Y-100925000D01*
X160125000Y-100525000D01*
X160825000Y-100525000D01*
X160825000Y-100925000D01*
G36*
X160825000Y-100925000D02*
G01*
X160125000Y-100925000D01*
X160125000Y-100525000D01*
X160825000Y-100525000D01*
X160825000Y-100925000D01*
G37*
X160825000Y-101425000D02*
X160125000Y-101425000D01*
X160125000Y-101025000D01*
X160825000Y-101025000D01*
X160825000Y-101425000D01*
G36*
X160825000Y-101425000D02*
G01*
X160125000Y-101425000D01*
X160125000Y-101025000D01*
X160825000Y-101025000D01*
X160825000Y-101425000D01*
G37*
X160825000Y-101925000D02*
X160125000Y-101925000D01*
X160125000Y-101525000D01*
X160825000Y-101525000D01*
X160825000Y-101925000D01*
G36*
X160825000Y-101925000D02*
G01*
X160125000Y-101925000D01*
X160125000Y-101525000D01*
X160825000Y-101525000D01*
X160825000Y-101925000D01*
G37*
X160825000Y-102425000D02*
X160125000Y-102425000D01*
X160125000Y-102025000D01*
X160825000Y-102025000D01*
X160825000Y-102425000D01*
G36*
X160825000Y-102425000D02*
G01*
X160125000Y-102425000D01*
X160125000Y-102025000D01*
X160825000Y-102025000D01*
X160825000Y-102425000D01*
G37*
X161475000Y-103375000D02*
X161075000Y-103375000D01*
X161075000Y-102675000D01*
X161475000Y-102675000D01*
X161475000Y-103375000D01*
G36*
X161475000Y-103375000D02*
G01*
X161075000Y-103375000D01*
X161075000Y-102675000D01*
X161475000Y-102675000D01*
X161475000Y-103375000D01*
G37*
X162900000Y-102350000D02*
X161150000Y-102350000D01*
X161150000Y-100600000D01*
X162900000Y-100600000D01*
X162900000Y-102350000D01*
G36*
X162900000Y-102350000D02*
G01*
X161150000Y-102350000D01*
X161150000Y-100600000D01*
X162900000Y-100600000D01*
X162900000Y-102350000D01*
G37*
X161475000Y-100275000D02*
X161075000Y-100275000D01*
X161075000Y-99575000D01*
X161475000Y-99575000D01*
X161475000Y-100275000D01*
G36*
X161475000Y-100275000D02*
G01*
X161075000Y-100275000D01*
X161075000Y-99575000D01*
X161475000Y-99575000D01*
X161475000Y-100275000D01*
G37*
X161975000Y-103375000D02*
X161575000Y-103375000D01*
X161575000Y-102675000D01*
X161975000Y-102675000D01*
X161975000Y-103375000D01*
G36*
X161975000Y-103375000D02*
G01*
X161575000Y-103375000D01*
X161575000Y-102675000D01*
X161975000Y-102675000D01*
X161975000Y-103375000D01*
G37*
X161975000Y-100275000D02*
X161575000Y-100275000D01*
X161575000Y-99575000D01*
X161975000Y-99575000D01*
X161975000Y-100275000D01*
G36*
X161975000Y-100275000D02*
G01*
X161575000Y-100275000D01*
X161575000Y-99575000D01*
X161975000Y-99575000D01*
X161975000Y-100275000D01*
G37*
X162475000Y-103375000D02*
X162075000Y-103375000D01*
X162075000Y-102675000D01*
X162475000Y-102675000D01*
X162475000Y-103375000D01*
G36*
X162475000Y-103375000D02*
G01*
X162075000Y-103375000D01*
X162075000Y-102675000D01*
X162475000Y-102675000D01*
X162475000Y-103375000D01*
G37*
X162475000Y-100275000D02*
X162075000Y-100275000D01*
X162075000Y-99575000D01*
X162475000Y-99575000D01*
X162475000Y-100275000D01*
G36*
X162475000Y-100275000D02*
G01*
X162075000Y-100275000D01*
X162075000Y-99575000D01*
X162475000Y-99575000D01*
X162475000Y-100275000D01*
G37*
X162975000Y-103375000D02*
X162575000Y-103375000D01*
X162575000Y-102675000D01*
X162975000Y-102675000D01*
X162975000Y-103375000D01*
G36*
X162975000Y-103375000D02*
G01*
X162575000Y-103375000D01*
X162575000Y-102675000D01*
X162975000Y-102675000D01*
X162975000Y-103375000D01*
G37*
X162975000Y-100275000D02*
X162575000Y-100275000D01*
X162575000Y-99575000D01*
X162975000Y-99575000D01*
X162975000Y-100275000D01*
G36*
X162975000Y-100275000D02*
G01*
X162575000Y-100275000D01*
X162575000Y-99575000D01*
X162975000Y-99575000D01*
X162975000Y-100275000D01*
G37*
X163925000Y-100925000D02*
X163225000Y-100925000D01*
X163225000Y-100525000D01*
X163925000Y-100525000D01*
X163925000Y-100925000D01*
G36*
X163925000Y-100925000D02*
G01*
X163225000Y-100925000D01*
X163225000Y-100525000D01*
X163925000Y-100525000D01*
X163925000Y-100925000D01*
G37*
X163925000Y-101425000D02*
X163225000Y-101425000D01*
X163225000Y-101025000D01*
X163925000Y-101025000D01*
X163925000Y-101425000D01*
G36*
X163925000Y-101425000D02*
G01*
X163225000Y-101425000D01*
X163225000Y-101025000D01*
X163925000Y-101025000D01*
X163925000Y-101425000D01*
G37*
X163925000Y-101925000D02*
X163225000Y-101925000D01*
X163225000Y-101525000D01*
X163925000Y-101525000D01*
X163925000Y-101925000D01*
G36*
X163925000Y-101925000D02*
G01*
X163225000Y-101925000D01*
X163225000Y-101525000D01*
X163925000Y-101525000D01*
X163925000Y-101925000D01*
G37*
X163925000Y-102425000D02*
X163225000Y-102425000D01*
X163225000Y-102025000D01*
X163925000Y-102025000D01*
X163925000Y-102425000D01*
G36*
X163925000Y-102425000D02*
G01*
X163225000Y-102425000D01*
X163225000Y-102025000D01*
X163925000Y-102025000D01*
X163925000Y-102425000D01*
G37*
%TD*%
D16*
%TO.C,C9*%
X163000000Y-92850000D03*
X164900000Y-92850000D03*
%TD*%
D17*
%TO.C,U6*%
X163200000Y-90900000D03*
X162800000Y-90900000D03*
X163200000Y-90499950D03*
X162800000Y-90499950D03*
X163200000Y-90099900D03*
X162800000Y-90099900D03*
X163200000Y-89699850D03*
X162800000Y-89699850D03*
%TD*%
D18*
%TO.C,R6*%
X167962500Y-99200000D03*
X166137500Y-99200000D03*
%TD*%
D19*
%TO.C,R2*%
X157462500Y-104575000D03*
X159287500Y-104575000D03*
%TD*%
D20*
%TO.C,J2*%
X156040000Y-111645000D03*
D21*
X153540000Y-111645000D03*
%TD*%
D22*
%TO.C,D1*%
X168055000Y-104570000D03*
X166405000Y-104570000D03*
%TD*%
D23*
%TO.C,H6*%
X143000000Y-83000000D03*
%TD*%
D24*
%TO.C,R3*%
X157700000Y-102737500D03*
X157700000Y-100912500D03*
%TD*%
D23*
%TO.C,H7*%
X167000000Y-112000000D03*
%TD*%
D25*
%TO.C,J3*%
X146340000Y-94200000D03*
X146340000Y-99980000D03*
D26*
X147415000Y-93890000D03*
X147415000Y-94690000D03*
D27*
X147415000Y-95840000D03*
X147415000Y-96840000D03*
X147415000Y-97340000D03*
X147415000Y-98340000D03*
D26*
X147415000Y-99490000D03*
X147415000Y-100290000D03*
X147415000Y-100290000D03*
X147415000Y-99490000D03*
D27*
X147415000Y-98840000D03*
X147415000Y-97840000D03*
X147415000Y-96340000D03*
X147415000Y-95340000D03*
D26*
X147415000Y-94690000D03*
X147415000Y-93890000D03*
D28*
X146840000Y-92770000D03*
D29*
X142660000Y-92770000D03*
D28*
X146840000Y-101410000D03*
D29*
X142660000Y-101410000D03*
%TD*%
D16*
%TO.C,C4*%
X162525000Y-106675000D03*
X164425000Y-106675000D03*
%TD*%
D19*
%TO.C,R4*%
X158687500Y-106625000D03*
X160512500Y-106625000D03*
%TD*%
D16*
%TO.C,C10*%
X163275000Y-87375000D03*
X165175000Y-87375000D03*
%TD*%
D22*
%TO.C,D2*%
X167945000Y-100950000D03*
X166295000Y-100950000D03*
%TD*%
D18*
%TO.C,R5*%
X168082500Y-102810000D03*
X166257500Y-102810000D03*
%TD*%
D30*
%TO.C,D3*%
X155400000Y-89800000D03*
X151400000Y-89800000D03*
%TD*%
D31*
%TO.C,C5*%
X157900000Y-98400000D03*
X156000000Y-98400000D03*
%TD*%
D16*
%TO.C,C6*%
X162400000Y-97560000D03*
X164300000Y-97560000D03*
%TD*%
D32*
%TO.C,U5*%
X151762500Y-96150000D03*
X151762500Y-97100000D03*
X151762500Y-98050000D03*
X154037500Y-98050000D03*
X154037500Y-97100000D03*
X154037500Y-96150000D03*
%TD*%
D33*
%TO.C,J1*%
X153540000Y-83540000D03*
D21*
X156040000Y-83540000D03*
%TD*%
D34*
%TO.C,L2*%
X164900000Y-89335000D03*
X164900000Y-90915000D03*
%TD*%
D35*
%TO.C,R12*%
X150000000Y-100087500D03*
X150000000Y-101912500D03*
%TD*%
D23*
%TO.C,H5*%
X167000000Y-83000000D03*
%TD*%
D24*
%TO.C,R13*%
X151200000Y-94412500D03*
X151200000Y-92587500D03*
%TD*%
D36*
%TO.C,J5*%
X152950000Y-101050000D03*
D37*
X154950000Y-101050000D03*
%TD*%
D23*
%TO.C,H8*%
X143000000Y-112000000D03*
%TD*%
D35*
%TO.C,R17*%
X160275000Y-89612500D03*
X160275000Y-91437500D03*
%TD*%
%TO.C,R1*%
X160150000Y-95937500D03*
X160150000Y-97762500D03*
%TD*%
D31*
%TO.C,C3*%
X155750000Y-94100000D03*
X153850000Y-94100000D03*
%TD*%
D24*
%TO.C,R18*%
X160250000Y-87862500D03*
X160250000Y-86037500D03*
%TD*%
%LPD*%
M02*
