%TF.GenerationSoftware,KiCad,Pcbnew,9.0.3*%
%TF.CreationDate,2025-12-21T14:28:37-06:00*%
%TF.ProjectId,PWR-MGR-PCB,5057522d-4d47-4522-9d50-43422e6b6963,rev?*%
%TF.SameCoordinates,Original*%
%TF.FileFunction,Soldermask,Top*%
%TF.FilePolarity,Negative*%
%FSLAX46Y46*%
G04 Gerber Fmt 4.6, Leading zero omitted, Abs format (unit mm)*
G04 Created by KiCad (PCBNEW 9.0.3) date 2025-12-21 14:28:37*
%MOMM*%
%LPD*%
G01*
G04 APERTURE LIST*
G04 Aperture macros list*
%AMRoundRect*
0 Rectangle with rounded corners*
0 $1 Rounding radius*
0 $2 $3 $4 $5 $6 $7 $8 $9 X,Y pos of 4 corners*
0 Add a 4 corners polygon primitive as box body*
4,1,4,$2,$3,$4,$5,$6,$7,$8,$9,$2,$3,0*
0 Add four circle primitives for the rounded corners*
1,1,$1+$1,$2,$3*
1,1,$1+$1,$4,$5*
1,1,$1+$1,$6,$7*
1,1,$1+$1,$8,$9*
0 Add four rect primitives between the rounded corners*
20,1,$1+$1,$2,$3,$4,$5,0*
20,1,$1+$1,$4,$5,$6,$7,0*
20,1,$1+$1,$6,$7,$8,$9,0*
20,1,$1+$1,$8,$9,$2,$3,0*%
G04 Aperture macros list end*
%ADD10C,0.200000*%
%ADD11C,0.010000*%
%ADD12RoundRect,0.250000X-0.250000X-0.475000X0.250000X-0.475000X0.250000X0.475000X-0.250000X0.475000X0*%
%ADD13C,0.203200*%
%ADD14RoundRect,0.250000X0.262500X0.450000X-0.262500X0.450000X-0.262500X-0.450000X0.262500X-0.450000X0*%
%ADD15RoundRect,0.250000X-0.262500X-0.450000X0.262500X-0.450000X0.262500X0.450000X-0.262500X0.450000X0*%
%ADD16RoundRect,0.250000X0.600000X0.750000X-0.600000X0.750000X-0.600000X-0.750000X0.600000X-0.750000X0*%
%ADD17O,1.700000X2.000000*%
%ADD18RoundRect,0.102000X-0.400000X-0.400000X0.400000X-0.400000X0.400000X0.400000X-0.400000X0.400000X0*%
%ADD19C,2.100000*%
%ADD20RoundRect,0.250000X0.450000X-0.262500X0.450000X0.262500X-0.450000X0.262500X-0.450000X-0.262500X0*%
%ADD21C,0.650000*%
%ADD22RoundRect,0.150000X-0.425000X0.150000X-0.425000X-0.150000X0.425000X-0.150000X0.425000X0.150000X0*%
%ADD23RoundRect,0.075000X-0.500000X0.075000X-0.500000X-0.075000X0.500000X-0.075000X0.500000X0.075000X0*%
%ADD24O,2.100000X1.000000*%
%ADD25O,1.800000X1.000000*%
%ADD26RoundRect,0.250000X1.000000X0.650000X-1.000000X0.650000X-1.000000X-0.650000X1.000000X-0.650000X0*%
%ADD27RoundRect,0.250000X0.250000X0.475000X-0.250000X0.475000X-0.250000X-0.475000X0.250000X-0.475000X0*%
%ADD28RoundRect,0.150000X-0.512500X-0.150000X0.512500X-0.150000X0.512500X0.150000X-0.512500X0.150000X0*%
%ADD29RoundRect,0.250000X-0.600000X-0.750000X0.600000X-0.750000X0.600000X0.750000X-0.600000X0.750000X0*%
%ADD30RoundRect,0.102000X-0.510000X0.470000X-0.510000X-0.470000X0.510000X-0.470000X0.510000X0.470000X0*%
%ADD31RoundRect,0.250000X-0.450000X0.262500X-0.450000X-0.262500X0.450000X-0.262500X0.450000X0.262500X0*%
%ADD32R,1.350000X1.350000*%
%ADD33C,1.350000*%
G04 APERTURE END LIST*
%TO.C,U1*%
D10*
X160925000Y-100725000D02*
G75*
G02*
X160725000Y-100725000I-100000J0D01*
G01*
X160725000Y-100725000D02*
G75*
G02*
X160925000Y-100725000I100000J0D01*
G01*
X160925000Y-101225000D02*
G75*
G02*
X160725000Y-101225000I-100000J0D01*
G01*
X160725000Y-101225000D02*
G75*
G02*
X160925000Y-101225000I100000J0D01*
G01*
X160925000Y-101725000D02*
G75*
G02*
X160725000Y-101725000I-100000J0D01*
G01*
X160725000Y-101725000D02*
G75*
G02*
X160925000Y-101725000I100000J0D01*
G01*
X160925000Y-102225000D02*
G75*
G02*
X160725000Y-102225000I-100000J0D01*
G01*
X160725000Y-102225000D02*
G75*
G02*
X160925000Y-102225000I100000J0D01*
G01*
X161375000Y-100275000D02*
G75*
G02*
X161175000Y-100275000I-100000J0D01*
G01*
X161175000Y-100275000D02*
G75*
G02*
X161375000Y-100275000I100000J0D01*
G01*
X161375000Y-102675000D02*
G75*
G02*
X161175000Y-102675000I-100000J0D01*
G01*
X161175000Y-102675000D02*
G75*
G02*
X161375000Y-102675000I100000J0D01*
G01*
X161875000Y-100275000D02*
G75*
G02*
X161675000Y-100275000I-100000J0D01*
G01*
X161675000Y-100275000D02*
G75*
G02*
X161875000Y-100275000I100000J0D01*
G01*
X161875000Y-102675000D02*
G75*
G02*
X161675000Y-102675000I-100000J0D01*
G01*
X161675000Y-102675000D02*
G75*
G02*
X161875000Y-102675000I100000J0D01*
G01*
X162375000Y-100275000D02*
G75*
G02*
X162175000Y-100275000I-100000J0D01*
G01*
X162175000Y-100275000D02*
G75*
G02*
X162375000Y-100275000I100000J0D01*
G01*
X162375000Y-102675000D02*
G75*
G02*
X162175000Y-102675000I-100000J0D01*
G01*
X162175000Y-102675000D02*
G75*
G02*
X162375000Y-102675000I100000J0D01*
G01*
X162875000Y-100275000D02*
G75*
G02*
X162675000Y-100275000I-100000J0D01*
G01*
X162675000Y-100275000D02*
G75*
G02*
X162875000Y-100275000I100000J0D01*
G01*
X162875000Y-102675000D02*
G75*
G02*
X162675000Y-102675000I-100000J0D01*
G01*
X162675000Y-102675000D02*
G75*
G02*
X162875000Y-102675000I100000J0D01*
G01*
X163325000Y-100725000D02*
G75*
G02*
X163125000Y-100725000I-100000J0D01*
G01*
X163125000Y-100725000D02*
G75*
G02*
X163325000Y-100725000I100000J0D01*
G01*
X163325000Y-101225000D02*
G75*
G02*
X163125000Y-101225000I-100000J0D01*
G01*
X163125000Y-101225000D02*
G75*
G02*
X163325000Y-101225000I100000J0D01*
G01*
X163325000Y-101725000D02*
G75*
G02*
X163125000Y-101725000I-100000J0D01*
G01*
X163125000Y-101725000D02*
G75*
G02*
X163325000Y-101725000I100000J0D01*
G01*
X163325000Y-102225000D02*
G75*
G02*
X163125000Y-102225000I-100000J0D01*
G01*
X163125000Y-102225000D02*
G75*
G02*
X163325000Y-102225000I100000J0D01*
G01*
D11*
X160825000Y-100925000D02*
X160125000Y-100925000D01*
X160125000Y-100525000D01*
X160825000Y-100525000D01*
X160825000Y-100925000D01*
G36*
X160825000Y-100925000D02*
G01*
X160125000Y-100925000D01*
X160125000Y-100525000D01*
X160825000Y-100525000D01*
X160825000Y-100925000D01*
G37*
X160825000Y-101425000D02*
X160125000Y-101425000D01*
X160125000Y-101025000D01*
X160825000Y-101025000D01*
X160825000Y-101425000D01*
G36*
X160825000Y-101425000D02*
G01*
X160125000Y-101425000D01*
X160125000Y-101025000D01*
X160825000Y-101025000D01*
X160825000Y-101425000D01*
G37*
X160825000Y-101925000D02*
X160125000Y-101925000D01*
X160125000Y-101525000D01*
X160825000Y-101525000D01*
X160825000Y-101925000D01*
G36*
X160825000Y-101925000D02*
G01*
X160125000Y-101925000D01*
X160125000Y-101525000D01*
X160825000Y-101525000D01*
X160825000Y-101925000D01*
G37*
X160825000Y-102425000D02*
X160125000Y-102425000D01*
X160125000Y-102025000D01*
X160825000Y-102025000D01*
X160825000Y-102425000D01*
G36*
X160825000Y-102425000D02*
G01*
X160125000Y-102425000D01*
X160125000Y-102025000D01*
X160825000Y-102025000D01*
X160825000Y-102425000D01*
G37*
X161475000Y-103375000D02*
X161075000Y-103375000D01*
X161075000Y-102675000D01*
X161475000Y-102675000D01*
X161475000Y-103375000D01*
G36*
X161475000Y-103375000D02*
G01*
X161075000Y-103375000D01*
X161075000Y-102675000D01*
X161475000Y-102675000D01*
X161475000Y-103375000D01*
G37*
X162900000Y-102350000D02*
X161150000Y-102350000D01*
X161150000Y-100600000D01*
X162900000Y-100600000D01*
X162900000Y-102350000D01*
G36*
X162900000Y-102350000D02*
G01*
X161150000Y-102350000D01*
X161150000Y-100600000D01*
X162900000Y-100600000D01*
X162900000Y-102350000D01*
G37*
X161475000Y-100275000D02*
X161075000Y-100275000D01*
X161075000Y-99575000D01*
X161475000Y-99575000D01*
X161475000Y-100275000D01*
G36*
X161475000Y-100275000D02*
G01*
X161075000Y-100275000D01*
X161075000Y-99575000D01*
X161475000Y-99575000D01*
X161475000Y-100275000D01*
G37*
X161975000Y-103375000D02*
X161575000Y-103375000D01*
X161575000Y-102675000D01*
X161975000Y-102675000D01*
X161975000Y-103375000D01*
G36*
X161975000Y-103375000D02*
G01*
X161575000Y-103375000D01*
X161575000Y-102675000D01*
X161975000Y-102675000D01*
X161975000Y-103375000D01*
G37*
X161975000Y-100275000D02*
X161575000Y-100275000D01*
X161575000Y-99575000D01*
X161975000Y-99575000D01*
X161975000Y-100275000D01*
G36*
X161975000Y-100275000D02*
G01*
X161575000Y-100275000D01*
X161575000Y-99575000D01*
X161975000Y-99575000D01*
X161975000Y-100275000D01*
G37*
X162475000Y-103375000D02*
X162075000Y-103375000D01*
X162075000Y-102675000D01*
X162475000Y-102675000D01*
X162475000Y-103375000D01*
G36*
X162475000Y-103375000D02*
G01*
X162075000Y-103375000D01*
X162075000Y-102675000D01*
X162475000Y-102675000D01*
X162475000Y-103375000D01*
G37*
X162475000Y-100275000D02*
X162075000Y-100275000D01*
X162075000Y-99575000D01*
X162475000Y-99575000D01*
X162475000Y-100275000D01*
G36*
X162475000Y-100275000D02*
G01*
X162075000Y-100275000D01*
X162075000Y-99575000D01*
X162475000Y-99575000D01*
X162475000Y-100275000D01*
G37*
X162975000Y-103375000D02*
X162575000Y-103375000D01*
X162575000Y-102675000D01*
X162975000Y-102675000D01*
X162975000Y-103375000D01*
G36*
X162975000Y-103375000D02*
G01*
X162575000Y-103375000D01*
X162575000Y-102675000D01*
X162975000Y-102675000D01*
X162975000Y-103375000D01*
G37*
X162975000Y-100275000D02*
X162575000Y-100275000D01*
X162575000Y-99575000D01*
X162975000Y-99575000D01*
X162975000Y-100275000D01*
G36*
X162975000Y-100275000D02*
G01*
X162575000Y-100275000D01*
X162575000Y-99575000D01*
X162975000Y-99575000D01*
X162975000Y-100275000D01*
G37*
X163925000Y-100925000D02*
X163225000Y-100925000D01*
X163225000Y-100525000D01*
X163925000Y-100525000D01*
X163925000Y-100925000D01*
G36*
X163925000Y-100925000D02*
G01*
X163225000Y-100925000D01*
X163225000Y-100525000D01*
X163925000Y-100525000D01*
X163925000Y-100925000D01*
G37*
X163925000Y-101425000D02*
X163225000Y-101425000D01*
X163225000Y-101025000D01*
X163925000Y-101025000D01*
X163925000Y-101425000D01*
G36*
X163925000Y-101425000D02*
G01*
X163225000Y-101425000D01*
X163225000Y-101025000D01*
X163925000Y-101025000D01*
X163925000Y-101425000D01*
G37*
X163925000Y-101925000D02*
X163225000Y-101925000D01*
X163225000Y-101525000D01*
X163925000Y-101525000D01*
X163925000Y-101925000D01*
G36*
X163925000Y-101925000D02*
G01*
X163225000Y-101925000D01*
X163225000Y-101525000D01*
X163925000Y-101525000D01*
X163925000Y-101925000D01*
G37*
X163925000Y-102425000D02*
X163225000Y-102425000D01*
X163225000Y-102025000D01*
X163925000Y-102025000D01*
X163925000Y-102425000D01*
G36*
X163925000Y-102425000D02*
G01*
X163225000Y-102425000D01*
X163225000Y-102025000D01*
X163925000Y-102025000D01*
X163925000Y-102425000D01*
G37*
%TD*%
D12*
%TO.C,C9*%
X163000000Y-92850000D03*
X164900000Y-92850000D03*
%TD*%
D13*
%TO.C,U6*%
X163200000Y-90900000D03*
X162800000Y-90900000D03*
X163200000Y-90499950D03*
X162800000Y-90499950D03*
X163200000Y-90099900D03*
X162800000Y-90099900D03*
X163200000Y-89699850D03*
X162800000Y-89699850D03*
%TD*%
D14*
%TO.C,R6*%
X167962500Y-99200000D03*
X166137500Y-99200000D03*
%TD*%
D15*
%TO.C,R2*%
X157462500Y-104575000D03*
X159287500Y-104575000D03*
%TD*%
D16*
%TO.C,J2*%
X156040000Y-111645000D03*
D17*
X153540000Y-111645000D03*
%TD*%
D18*
%TO.C,D1*%
X168055000Y-104570000D03*
X166405000Y-104570000D03*
%TD*%
D19*
%TO.C,H6*%
X143000000Y-83000000D03*
%TD*%
D20*
%TO.C,R3*%
X157700000Y-102737500D03*
X157700000Y-100912500D03*
%TD*%
D19*
%TO.C,H7*%
X167000000Y-112000000D03*
%TD*%
D21*
%TO.C,J3*%
X146340000Y-94200000D03*
X146340000Y-99980000D03*
D22*
X147415000Y-93890000D03*
X147415000Y-94690000D03*
D23*
X147415000Y-95840000D03*
X147415000Y-96840000D03*
X147415000Y-97340000D03*
X147415000Y-98340000D03*
D22*
X147415000Y-99490000D03*
X147415000Y-100290000D03*
X147415000Y-100290000D03*
X147415000Y-99490000D03*
D23*
X147415000Y-98840000D03*
X147415000Y-97840000D03*
X147415000Y-96340000D03*
X147415000Y-95340000D03*
D22*
X147415000Y-94690000D03*
X147415000Y-93890000D03*
D24*
X146840000Y-92770000D03*
D25*
X142660000Y-92770000D03*
D24*
X146840000Y-101410000D03*
D25*
X142660000Y-101410000D03*
%TD*%
D12*
%TO.C,C4*%
X162525000Y-106675000D03*
X164425000Y-106675000D03*
%TD*%
D15*
%TO.C,R4*%
X158687500Y-106625000D03*
X160512500Y-106625000D03*
%TD*%
D12*
%TO.C,C10*%
X163275000Y-87375000D03*
X165175000Y-87375000D03*
%TD*%
D18*
%TO.C,D2*%
X167945000Y-100950000D03*
X166295000Y-100950000D03*
%TD*%
D14*
%TO.C,R5*%
X168082500Y-102810000D03*
X166257500Y-102810000D03*
%TD*%
D26*
%TO.C,D3*%
X155400000Y-89800000D03*
X151400000Y-89800000D03*
%TD*%
D27*
%TO.C,C5*%
X157900000Y-98400000D03*
X156000000Y-98400000D03*
%TD*%
D12*
%TO.C,C6*%
X162400000Y-97560000D03*
X164300000Y-97560000D03*
%TD*%
D28*
%TO.C,U5*%
X151762500Y-96150000D03*
X151762500Y-97100000D03*
X151762500Y-98050000D03*
X154037500Y-98050000D03*
X154037500Y-97100000D03*
X154037500Y-96150000D03*
%TD*%
D29*
%TO.C,J1*%
X153540000Y-83540000D03*
D17*
X156040000Y-83540000D03*
%TD*%
D30*
%TO.C,L2*%
X164900000Y-89335000D03*
X164900000Y-90915000D03*
%TD*%
D31*
%TO.C,R12*%
X150000000Y-100087500D03*
X150000000Y-101912500D03*
%TD*%
D19*
%TO.C,H5*%
X167000000Y-83000000D03*
%TD*%
D20*
%TO.C,R13*%
X151200000Y-94412500D03*
X151200000Y-92587500D03*
%TD*%
D32*
%TO.C,J5*%
X152950000Y-101050000D03*
D33*
X154950000Y-101050000D03*
%TD*%
D19*
%TO.C,H8*%
X143000000Y-112000000D03*
%TD*%
D31*
%TO.C,R17*%
X160275000Y-89612500D03*
X160275000Y-91437500D03*
%TD*%
%TO.C,R1*%
X160150000Y-95937500D03*
X160150000Y-97762500D03*
%TD*%
D27*
%TO.C,C3*%
X155750000Y-94100000D03*
X153850000Y-94100000D03*
%TD*%
D20*
%TO.C,R18*%
X160250000Y-87862500D03*
X160250000Y-86037500D03*
%TD*%
M02*
