%TF.GenerationSoftware,KiCad,Pcbnew,9.0.3*%
%TF.CreationDate,2025-12-21T14:28:37-06:00*%
%TF.ProjectId,PWR-MGR-PCB,5057522d-4d47-4522-9d50-43422e6b6963,rev?*%
%TF.SameCoordinates,Original*%
%TF.FileFunction,Copper,L1,Top*%
%TF.FilePolarity,Positive*%
%FSLAX46Y46*%
G04 Gerber Fmt 4.6, Leading zero omitted, Abs format (unit mm)*
G04 Created by KiCad (PCBNEW 9.0.3) date 2025-12-21 14:28:37*
%MOMM*%
%LPD*%
G01*
G04 APERTURE LIST*
G04 Aperture macros list*
%AMRoundRect*
0 Rectangle with rounded corners*
0 $1 Rounding radius*
0 $2 $3 $4 $5 $6 $7 $8 $9 X,Y pos of 4 corners*
0 Add a 4 corners polygon primitive as box body*
4,1,4,$2,$3,$4,$5,$6,$7,$8,$9,$2,$3,0*
0 Add four circle primitives for the rounded corners*
1,1,$1+$1,$2,$3*
1,1,$1+$1,$4,$5*
1,1,$1+$1,$6,$7*
1,1,$1+$1,$8,$9*
0 Add four rect primitives between the rounded corners*
20,1,$1+$1,$2,$3,$4,$5,0*
20,1,$1+$1,$4,$5,$6,$7,0*
20,1,$1+$1,$6,$7,$8,$9,0*
20,1,$1+$1,$8,$9,$2,$3,0*%
G04 Aperture macros list end*
%TA.AperFunction,SMDPad,CuDef*%
%ADD10RoundRect,0.250000X-0.250000X-0.475000X0.250000X-0.475000X0.250000X0.475000X-0.250000X0.475000X0*%
%TD*%
%TA.AperFunction,SMDPad,CuDef*%
%ADD11C,0.203200*%
%TD*%
%TA.AperFunction,SMDPad,CuDef*%
%ADD12RoundRect,0.250000X0.262500X0.450000X-0.262500X0.450000X-0.262500X-0.450000X0.262500X-0.450000X0*%
%TD*%
%TA.AperFunction,SMDPad,CuDef*%
%ADD13RoundRect,0.250000X-0.262500X-0.450000X0.262500X-0.450000X0.262500X0.450000X-0.262500X0.450000X0*%
%TD*%
%TA.AperFunction,ComponentPad*%
%ADD14RoundRect,0.250000X0.600000X0.750000X-0.600000X0.750000X-0.600000X-0.750000X0.600000X-0.750000X0*%
%TD*%
%TA.AperFunction,ComponentPad*%
%ADD15O,1.700000X2.000000*%
%TD*%
%TA.AperFunction,SMDPad,CuDef*%
%ADD16R,0.800000X0.800000*%
%TD*%
%TA.AperFunction,SMDPad,CuDef*%
%ADD17RoundRect,0.250000X0.450000X-0.262500X0.450000X0.262500X-0.450000X0.262500X-0.450000X-0.262500X0*%
%TD*%
%TA.AperFunction,SMDPad,CuDef*%
%ADD18RoundRect,0.150000X-0.425000X0.150000X-0.425000X-0.150000X0.425000X-0.150000X0.425000X0.150000X0*%
%TD*%
%TA.AperFunction,SMDPad,CuDef*%
%ADD19RoundRect,0.075000X-0.500000X0.075000X-0.500000X-0.075000X0.500000X-0.075000X0.500000X0.075000X0*%
%TD*%
%TA.AperFunction,HeatsinkPad*%
%ADD20O,2.100000X1.000000*%
%TD*%
%TA.AperFunction,HeatsinkPad*%
%ADD21O,1.800000X1.000000*%
%TD*%
%TA.AperFunction,SMDPad,CuDef*%
%ADD22RoundRect,0.250000X1.000000X0.650000X-1.000000X0.650000X-1.000000X-0.650000X1.000000X-0.650000X0*%
%TD*%
%TA.AperFunction,SMDPad,CuDef*%
%ADD23RoundRect,0.250000X0.250000X0.475000X-0.250000X0.475000X-0.250000X-0.475000X0.250000X-0.475000X0*%
%TD*%
%TA.AperFunction,SMDPad,CuDef*%
%ADD24RoundRect,0.150000X-0.512500X-0.150000X0.512500X-0.150000X0.512500X0.150000X-0.512500X0.150000X0*%
%TD*%
%TA.AperFunction,ComponentPad*%
%ADD25RoundRect,0.250000X-0.600000X-0.750000X0.600000X-0.750000X0.600000X0.750000X-0.600000X0.750000X0*%
%TD*%
%TA.AperFunction,SMDPad,CuDef*%
%ADD26R,1.020000X0.940000*%
%TD*%
%TA.AperFunction,SMDPad,CuDef*%
%ADD27RoundRect,0.250000X-0.450000X0.262500X-0.450000X-0.262500X0.450000X-0.262500X0.450000X0.262500X0*%
%TD*%
%TA.AperFunction,ComponentPad*%
%ADD28R,1.350000X1.350000*%
%TD*%
%TA.AperFunction,ComponentPad*%
%ADD29C,1.350000*%
%TD*%
%TA.AperFunction,SMDPad,CuDef*%
%ADD30RoundRect,0.105000X0.035000X-0.320000X0.035000X0.320000X-0.035000X0.320000X-0.035000X-0.320000X0*%
%TD*%
%TA.AperFunction,SMDPad,CuDef*%
%ADD31RoundRect,0.105000X0.320000X-0.035000X0.320000X0.035000X-0.320000X0.035000X-0.320000X-0.035000X0*%
%TD*%
%TA.AperFunction,SMDPad,CuDef*%
%ADD32RoundRect,0.170000X0.680000X-0.680000X0.680000X0.680000X-0.680000X0.680000X-0.680000X-0.680000X0*%
%TD*%
%TA.AperFunction,ViaPad*%
%ADD33C,0.600000*%
%TD*%
%TA.AperFunction,Conductor*%
%ADD34C,0.300000*%
%TD*%
%TA.AperFunction,Conductor*%
%ADD35C,0.200000*%
%TD*%
%TA.AperFunction,Conductor*%
%ADD36C,1.000000*%
%TD*%
%TA.AperFunction,Conductor*%
%ADD37C,0.500000*%
%TD*%
G04 APERTURE END LIST*
D10*
%TO.P,C9,1*%
%TO.N,VCC_BMS*%
X163000000Y-92850000D03*
%TO.P,C9,2*%
%TO.N,GND*%
X164900000Y-92850000D03*
%TD*%
D11*
%TO.P,U6,A1,VIN*%
%TO.N,VCC_BMS*%
X163200000Y-90900000D03*
%TO.P,U6,A2,EN*%
X162800000Y-90900000D03*
%TO.P,U6,B1,LX1*%
%TO.N,Net-(U6-LX1)*%
X163200000Y-90499950D03*
%TO.P,U6,B2,MODE*%
%TO.N,GND*%
X162800000Y-90499950D03*
%TO.P,U6,C1,LX2*%
%TO.N,Net-(U6-LX2)*%
X163200000Y-90099900D03*
%TO.P,U6,C2,GND*%
%TO.N,GND*%
X162800000Y-90099900D03*
%TO.P,U6,D1,VOUT*%
%TO.N,+3.3V*%
X163200000Y-89699850D03*
%TO.P,U6,D2,FB*%
%TO.N,Net-(U6-FB)*%
X162800000Y-89699850D03*
%TD*%
D12*
%TO.P,R6,1*%
%TO.N,Net-(D2-PadA)*%
X167962500Y-99200000D03*
%TO.P,R6,2*%
%TO.N,VCC_BMS*%
X166137500Y-99200000D03*
%TD*%
D13*
%TO.P,R2,1*%
%TO.N,GND*%
X157462500Y-104575000D03*
%TO.P,R2,2*%
%TO.N,Net-(U1-ISET)*%
X159287500Y-104575000D03*
%TD*%
D14*
%TO.P,J2,1,Pin_1*%
%TO.N,/PWR-MGR-01/BATT+*%
X156040000Y-111645000D03*
D15*
%TO.P,J2,2,Pin_2*%
%TO.N,GND*%
X153540000Y-111645000D03*
%TD*%
D16*
%TO.P,D1,A*%
%TO.N,Net-(D1-PadA)*%
X168055000Y-104570000D03*
%TO.P,D1,C*%
%TO.N,Net-(U1-PGOOD)*%
X166405000Y-104570000D03*
%TD*%
D17*
%TO.P,R3,1*%
%TO.N,GND*%
X157700000Y-102737500D03*
%TO.P,R3,2*%
%TO.N,Net-(U1-TMR)*%
X157700000Y-100912500D03*
%TD*%
D18*
%TO.P,J3,A1,GND*%
%TO.N,GND*%
X147415000Y-93890000D03*
%TO.P,J3,A4,VBUS*%
%TO.N,Net-(D3-A)*%
X147415000Y-94690000D03*
D19*
%TO.P,J3,A5,CC1*%
%TO.N,Net-(J3-CC1)*%
X147415000Y-95840000D03*
%TO.P,J3,A6,D+*%
%TO.N,/PWR-MGR-01/USB_CONN_D+*%
X147415000Y-96840000D03*
%TO.P,J3,A7,D-*%
%TO.N,/PWR-MGR-01/USB_CONN_D-*%
X147415000Y-97340000D03*
%TO.P,J3,A8*%
%TO.N,N/C*%
X147415000Y-98340000D03*
D18*
%TO.P,J3,A9,VBUS*%
%TO.N,Net-(D3-A)*%
X147415000Y-99490000D03*
%TO.P,J3,A12,GND*%
%TO.N,GND*%
X147415000Y-100290000D03*
%TO.P,J3,B1,GND*%
X147415000Y-100290000D03*
%TO.P,J3,B4,VBUS*%
%TO.N,Net-(D3-A)*%
X147415000Y-99490000D03*
D19*
%TO.P,J3,B5,CC2*%
%TO.N,Net-(J3-CC2)*%
X147415000Y-98840000D03*
%TO.P,J3,B6,D+*%
%TO.N,/PWR-MGR-01/USB_CONN_D+*%
X147415000Y-97840000D03*
%TO.P,J3,B7,D-*%
%TO.N,/PWR-MGR-01/USB_CONN_D-*%
X147415000Y-96340000D03*
%TO.P,J3,B8*%
%TO.N,N/C*%
X147415000Y-95340000D03*
D18*
%TO.P,J3,B9,VBUS*%
%TO.N,Net-(D3-A)*%
X147415000Y-94690000D03*
%TO.P,J3,B12,GND*%
%TO.N,GND*%
X147415000Y-93890000D03*
D20*
%TO.P,J3,S1,SHIELD*%
X146840000Y-92770000D03*
D21*
X142660000Y-92770000D03*
D20*
X146840000Y-101410000D03*
D21*
X142660000Y-101410000D03*
%TD*%
D10*
%TO.P,C4,1*%
%TO.N,/PWR-MGR-01/BATT+*%
X162525000Y-106675000D03*
%TO.P,C4,2*%
%TO.N,GND*%
X164425000Y-106675000D03*
%TD*%
D13*
%TO.P,R4,1*%
%TO.N,GND*%
X158687500Y-106625000D03*
%TO.P,R4,2*%
%TO.N,Net-(U1-TS)*%
X160512500Y-106625000D03*
%TD*%
D10*
%TO.P,C10,1*%
%TO.N,+3.3V*%
X163275000Y-87375000D03*
%TO.P,C10,2*%
%TO.N,GND*%
X165175000Y-87375000D03*
%TD*%
D16*
%TO.P,D2,A*%
%TO.N,Net-(D2-PadA)*%
X167945000Y-100950000D03*
%TO.P,D2,C*%
%TO.N,Net-(U1-CHG)*%
X166295000Y-100950000D03*
%TD*%
D12*
%TO.P,R5,1*%
%TO.N,Net-(D1-PadA)*%
X168082500Y-102810000D03*
%TO.P,R5,2*%
%TO.N,VCC_BMS*%
X166257500Y-102810000D03*
%TD*%
D22*
%TO.P,D3,1,K*%
%TO.N,VBUS 5V*%
X155400000Y-89800000D03*
%TO.P,D3,2,A*%
%TO.N,Net-(D3-A)*%
X151400000Y-89800000D03*
%TD*%
D23*
%TO.P,C5,1*%
%TO.N,VBUS 5V*%
X157900000Y-98400000D03*
%TO.P,C5,2*%
%TO.N,GND*%
X156000000Y-98400000D03*
%TD*%
D10*
%TO.P,C6,1*%
%TO.N,VCC_BMS*%
X162400000Y-97560000D03*
%TO.P,C6,2*%
%TO.N,GND*%
X164300000Y-97560000D03*
%TD*%
D24*
%TO.P,U5,1,I/O1*%
%TO.N,/PWR-MGR-01/USB_CONN_D-*%
X151762500Y-96150000D03*
%TO.P,U5,2,GND*%
%TO.N,GND*%
X151762500Y-97100000D03*
%TO.P,U5,3,I/O2*%
%TO.N,/PWR-MGR-01/USB_CONN_D+*%
X151762500Y-98050000D03*
%TO.P,U5,4,I/O2*%
%TO.N,/Output Ports/USB_D+*%
X154037500Y-98050000D03*
%TO.P,U5,5,VBUS*%
%TO.N,VBUS 5V*%
X154037500Y-97100000D03*
%TO.P,U5,6,I/O1*%
%TO.N,/Output Ports/USB_D-*%
X154037500Y-96150000D03*
%TD*%
D25*
%TO.P,J1,1,Pin_1*%
%TO.N,GND*%
X153540000Y-83540000D03*
D15*
%TO.P,J1,2,Pin_2*%
%TO.N,+3.3V*%
X156040000Y-83540000D03*
%TD*%
D26*
%TO.P,L2,1*%
%TO.N,Net-(U6-LX2)*%
X164900000Y-89335000D03*
%TO.P,L2,2*%
%TO.N,Net-(U6-LX1)*%
X164900000Y-90915000D03*
%TD*%
D27*
%TO.P,R12,1*%
%TO.N,Net-(J3-CC2)*%
X150000000Y-100087500D03*
%TO.P,R12,2*%
%TO.N,GND*%
X150000000Y-101912500D03*
%TD*%
D17*
%TO.P,R13,1*%
%TO.N,Net-(J3-CC1)*%
X151200000Y-94412500D03*
%TO.P,R13,2*%
%TO.N,GND*%
X151200000Y-92587500D03*
%TD*%
D28*
%TO.P,J5,1,Pin_1*%
%TO.N,/Output Ports/USB_D-*%
X152950000Y-101050000D03*
D29*
%TO.P,J5,2,Pin_2*%
%TO.N,/Output Ports/USB_D+*%
X154950000Y-101050000D03*
%TD*%
D27*
%TO.P,R17,1*%
%TO.N,Net-(U6-FB)*%
X160275000Y-89612500D03*
%TO.P,R17,2*%
%TO.N,GND*%
X160275000Y-91437500D03*
%TD*%
%TO.P,R1,1*%
%TO.N,GND*%
X160150000Y-95937500D03*
%TO.P,R1,2*%
%TO.N,Net-(U1-ILIM)*%
X160150000Y-97762500D03*
%TD*%
D30*
%TO.P,U1,1,TS*%
%TO.N,Net-(U1-TS)*%
X161275000Y-102950000D03*
%TO.P,U1,2,BAT*%
%TO.N,/PWR-MGR-01/BATT+*%
X161775000Y-102950000D03*
%TO.P,U1,3,BAT*%
X162275000Y-102950000D03*
%TO.P,U1,4,CE*%
%TO.N,GND*%
X162775000Y-102950000D03*
D31*
%TO.P,U1,5,EN2*%
%TO.N,VCC_BMS*%
X163500000Y-102225000D03*
%TO.P,U1,6,EN1*%
%TO.N,GND*%
X163500000Y-101725000D03*
%TO.P,U1,7,PGOOD*%
%TO.N,Net-(U1-PGOOD)*%
X163500000Y-101225000D03*
%TO.P,U1,8,VSS*%
%TO.N,GND*%
X163500000Y-100725000D03*
D30*
%TO.P,U1,9,CHG*%
%TO.N,Net-(U1-CHG)*%
X162775000Y-100000000D03*
%TO.P,U1,10,OUT*%
%TO.N,VCC_BMS*%
X162275000Y-100000000D03*
%TO.P,U1,11,OUT*%
%TO.N,unconnected-(U1-OUT-Pad11)*%
X161775000Y-100000000D03*
%TO.P,U1,12,ILIM*%
%TO.N,Net-(U1-ILIM)*%
X161275000Y-100000000D03*
D31*
%TO.P,U1,13,IN*%
%TO.N,VBUS 5V*%
X160550000Y-100725000D03*
%TO.P,U1,14,TMR*%
%TO.N,Net-(U1-TMR)*%
X160550000Y-101225000D03*
%TO.P,U1,15,SYSOFF*%
%TO.N,GND*%
X160550000Y-101725000D03*
%TO.P,U1,16,ISET*%
%TO.N,Net-(U1-ISET)*%
X160550000Y-102225000D03*
D32*
%TO.P,U1,TH,VSS*%
%TO.N,GND*%
X162025000Y-101475000D03*
%TD*%
D23*
%TO.P,C3,1*%
%TO.N,VBUS 5V*%
X155750000Y-94100000D03*
%TO.P,C3,2*%
%TO.N,GND*%
X153850000Y-94100000D03*
%TD*%
D17*
%TO.P,R18,1*%
%TO.N,Net-(U6-FB)*%
X160250000Y-87862500D03*
%TO.P,R18,2*%
%TO.N,+3.3V*%
X160250000Y-86037500D03*
%TD*%
D33*
%TO.N,GND*%
X156050000Y-104650000D03*
X163700000Y-103900000D03*
X147000000Y-91000000D03*
X166225000Y-92900000D03*
X159325000Y-102100000D03*
X157425000Y-106550000D03*
X156175000Y-103400000D03*
X161775000Y-92525000D03*
X162025000Y-101475000D03*
X160735000Y-92875000D03*
X160150000Y-94550000D03*
X164225000Y-104925000D03*
X143000000Y-91000000D03*
X147100000Y-103000000D03*
X150100000Y-97000000D03*
X164690000Y-95940000D03*
X143000000Y-103000000D03*
X150000000Y-103400000D03*
X153000000Y-92500000D03*
X164920000Y-100820000D03*
X156000000Y-96950000D03*
X154200000Y-92500000D03*
X159840000Y-92850000D03*
X166450000Y-88600000D03*
%TD*%
D34*
%TO.N,VCC_BMS*%
X166137500Y-99200000D02*
X165957500Y-99020000D01*
X167156000Y-105510000D02*
X165350000Y-105510000D01*
X165350000Y-104250000D02*
X163500000Y-102400000D01*
X166137500Y-99200000D02*
X167046000Y-100108500D01*
X162275000Y-98025000D02*
X162250000Y-98000000D01*
X162455000Y-99020000D02*
X162275000Y-99200000D01*
X165957500Y-99020000D02*
X162455000Y-99020000D01*
X167046000Y-102021500D02*
X166257500Y-102810000D01*
X162275000Y-100000000D02*
X162275000Y-99200000D01*
X167046000Y-100108500D02*
X167046000Y-102021500D01*
X162275000Y-99200000D02*
X162275000Y-98025000D01*
X167156000Y-103708500D02*
X167156000Y-105510000D01*
X163500000Y-102400000D02*
X163500000Y-102225000D01*
X165350000Y-105510000D02*
X165350000Y-104250000D01*
X166257500Y-102810000D02*
X167156000Y-103708500D01*
D35*
%TO.N,GND*%
X152912500Y-92587500D02*
X153000000Y-92500000D01*
X142925000Y-102925000D02*
X143000000Y-103000000D01*
D34*
X147680000Y-100745000D02*
X147105000Y-101320000D01*
X162275000Y-101725000D02*
X162025000Y-101475000D01*
X164300000Y-96330000D02*
X164690000Y-95940000D01*
X163500000Y-100725000D02*
X164825000Y-100725000D01*
X159700000Y-101725000D02*
X159325000Y-102100000D01*
X163500000Y-100725000D02*
X163625000Y-100725000D01*
X142925000Y-101320000D02*
X142925000Y-101505000D01*
X160150000Y-95937500D02*
X160150000Y-94550000D01*
X147105000Y-91105000D02*
X147000000Y-91000000D01*
X150000000Y-101912500D02*
X150000000Y-103400000D01*
X160735000Y-92875000D02*
X160275000Y-92415000D01*
D35*
X150200000Y-97100000D02*
X150100000Y-97000000D01*
D34*
X163500000Y-101725000D02*
X162275000Y-101725000D01*
X147105000Y-102995000D02*
X147100000Y-103000000D01*
D35*
X151200000Y-92587500D02*
X152912500Y-92587500D01*
D34*
X142925000Y-91075000D02*
X143000000Y-91000000D01*
X156125000Y-104575000D02*
X156050000Y-104650000D01*
X166175000Y-92850000D02*
X166225000Y-92900000D01*
X147105000Y-101320000D02*
X147105000Y-102995000D01*
X157462500Y-104575000D02*
X156125000Y-104575000D01*
X153850000Y-92850000D02*
X154200000Y-92500000D01*
X162775000Y-102975000D02*
X163700000Y-103900000D01*
X160550000Y-101725000D02*
X159700000Y-101725000D01*
X159840000Y-92850000D02*
X160275000Y-92415000D01*
X165225000Y-87375000D02*
X166450000Y-88600000D01*
X158687500Y-106625000D02*
X157500000Y-106625000D01*
X165175000Y-87375000D02*
X165225000Y-87375000D01*
X142925000Y-92680000D02*
X142925000Y-91075000D01*
X162775000Y-102950000D02*
X162775000Y-102975000D01*
X156837500Y-102737500D02*
X156175000Y-103400000D01*
X153850000Y-94100000D02*
X153850000Y-92850000D01*
X147680000Y-100200000D02*
X147680000Y-100745000D01*
X147680000Y-93255000D02*
X147105000Y-92680000D01*
X164425000Y-106675000D02*
X164425000Y-105125000D01*
X164825000Y-100725000D02*
X164920000Y-100820000D01*
X142910000Y-101520000D02*
X143000000Y-101610000D01*
X164300000Y-97560000D02*
X164300000Y-96330000D01*
X156000000Y-96950000D02*
X156000000Y-98400000D01*
X157700000Y-102737500D02*
X156837500Y-102737500D01*
X143000000Y-101610000D02*
X143000000Y-103000000D01*
X161775000Y-92525000D02*
X161775000Y-90400000D01*
X157500000Y-106625000D02*
X157425000Y-106550000D01*
X147680000Y-93800000D02*
X147680000Y-93255000D01*
D35*
X147105000Y-101320000D02*
X146180000Y-101320000D01*
D34*
X142925000Y-101505000D02*
X142910000Y-101520000D01*
X160275000Y-92415000D02*
X160275000Y-91437500D01*
D35*
X151762500Y-97100000D02*
X150200000Y-97100000D01*
D34*
X147105000Y-92680000D02*
X147105000Y-91105000D01*
X164425000Y-105125000D02*
X164225000Y-104925000D01*
X164900000Y-92850000D02*
X166175000Y-92850000D01*
D36*
%TO.N,+3.3V*%
X160250000Y-86037500D02*
X161937500Y-86037500D01*
X160250000Y-86037500D02*
X158412500Y-86037500D01*
D34*
X163275000Y-89624900D02*
X163252600Y-89647300D01*
X163275000Y-87375000D02*
X163275000Y-89624900D01*
D36*
X161937500Y-86037500D02*
X163275000Y-87375000D01*
X158412500Y-86037500D02*
X156050000Y-83675000D01*
D34*
%TO.N,VBUS 5V*%
X160550000Y-100725000D02*
X159550000Y-99725000D01*
D36*
X155750000Y-94100000D02*
X155750000Y-90150000D01*
D37*
X154699999Y-97100000D02*
X154037500Y-97100000D01*
X155750000Y-96049999D02*
X154699999Y-97100000D01*
D34*
X159550000Y-99725000D02*
X159425000Y-99725000D01*
D37*
X155750000Y-94100000D02*
X155750000Y-96049999D01*
D36*
X155750000Y-90150000D02*
X155400000Y-89800000D01*
D35*
X154037500Y-97100000D02*
X153683032Y-97100000D01*
D34*
%TO.N,/PWR-MGR-01/BATT+*%
X162275000Y-102950000D02*
X162275000Y-104225000D01*
X161775000Y-104325000D02*
X161800000Y-104350000D01*
X162275000Y-104225000D02*
X162200000Y-104300000D01*
X161775000Y-102950000D02*
X161775000Y-104325000D01*
D37*
%TO.N,Net-(D3-A)*%
X149500000Y-91700000D02*
X151400000Y-89800000D01*
D34*
X147275000Y-94830000D02*
X145760000Y-94830000D01*
D37*
X149500000Y-93409100D02*
X148219100Y-94690000D01*
D34*
X147415000Y-94690000D02*
X147275000Y-94830000D01*
D37*
X148219100Y-94690000D02*
X147415000Y-94690000D01*
D34*
X145760000Y-94830000D02*
X145330000Y-95260000D01*
D36*
X145330000Y-98830000D02*
X145330000Y-95260000D01*
D37*
X149500000Y-93409100D02*
X149500000Y-91700000D01*
D34*
X147415000Y-99490000D02*
X146840001Y-99490000D01*
X146180001Y-98830000D02*
X145330000Y-98830000D01*
X146840001Y-99490000D02*
X146180001Y-98830000D01*
X147680000Y-94600000D02*
X147540000Y-94740000D01*
D35*
%TO.N,Net-(J3-CC2)*%
X148752500Y-98840000D02*
X150000000Y-100087500D01*
X147415000Y-98840000D02*
X148752500Y-98840000D01*
%TO.N,Net-(J3-CC1)*%
X149497500Y-94412500D02*
X151200000Y-94412500D01*
X147415000Y-95840000D02*
X148070000Y-95840000D01*
X148070000Y-95840000D02*
X149497500Y-94412500D01*
%TO.N,/Output Ports/USB_D+*%
X154037500Y-98050000D02*
X154950000Y-98962500D01*
X154950000Y-98962500D02*
X154950000Y-101050000D01*
%TO.N,/Output Ports/USB_D-*%
X154037500Y-96150000D02*
X153375001Y-96150000D01*
X152950000Y-96575001D02*
X152950000Y-101050000D01*
X153375001Y-96150000D02*
X152950000Y-96575001D01*
D34*
%TO.N,Net-(D1-PadA)*%
X168082500Y-104542500D02*
X168055000Y-104570000D01*
X168082500Y-102810000D02*
X168082500Y-104542500D01*
%TO.N,Net-(D2-PadA)*%
X167962500Y-99200000D02*
X167962500Y-100932500D01*
X167962500Y-100932500D02*
X167945000Y-100950000D01*
%TO.N,Net-(U1-ILIM)*%
X161275000Y-100000000D02*
X160575000Y-99300000D01*
X160575000Y-99300000D02*
X160575000Y-98775000D01*
X160575000Y-98775000D02*
X160150000Y-98350000D01*
X160150000Y-98350000D02*
X160150000Y-97762500D01*
%TO.N,Net-(U6-FB)*%
X160275000Y-89612500D02*
X162712600Y-89612500D01*
X160250000Y-89587500D02*
X160275000Y-89612500D01*
X162712600Y-89612500D02*
X162747400Y-89647300D01*
X160250000Y-87862500D02*
X160250000Y-89587500D01*
D35*
%TO.N,/PWR-MGR-01/USB_CONN_D+*%
X151552500Y-97840000D02*
X151762500Y-98050000D01*
X146539000Y-97107176D02*
X146806176Y-96840000D01*
X147415000Y-97840000D02*
X146806176Y-97840000D01*
X146806176Y-97840000D02*
X146539000Y-97572824D01*
X146806176Y-96840000D02*
X147415000Y-96840000D01*
X146539000Y-97572824D02*
X146539000Y-97107176D01*
X147415000Y-97840000D02*
X151552500Y-97840000D01*
%TO.N,/PWR-MGR-01/USB_CONN_D-*%
X148291000Y-96607176D02*
X148023824Y-96340000D01*
X148291000Y-97072824D02*
X148291000Y-96607176D01*
X151572500Y-96340000D02*
X151762500Y-96150000D01*
X147415000Y-97340000D02*
X148023824Y-97340000D01*
X148023824Y-96340000D02*
X147415000Y-96340000D01*
X148023824Y-97340000D02*
X148291000Y-97072824D01*
X147415000Y-96340000D02*
X151572500Y-96340000D01*
D34*
%TO.N,Net-(U1-ISET)*%
X160550000Y-102225000D02*
X160550000Y-103312500D01*
X160550000Y-103312500D02*
X159287500Y-104575000D01*
%TO.N,Net-(U1-TMR)*%
X158012500Y-101225000D02*
X157700000Y-100912500D01*
X160550000Y-101225000D02*
X158012500Y-101225000D01*
%TO.N,Net-(U1-TS)*%
X161275000Y-102950000D02*
X161275000Y-105862500D01*
X161275000Y-105862500D02*
X160512500Y-106625000D01*
%TO.N,Net-(U1-PGOOD)*%
X166405000Y-104570000D02*
X164840000Y-103005000D01*
X164840000Y-101660000D02*
X164405000Y-101225000D01*
X164405000Y-101225000D02*
X163500000Y-101225000D01*
X164840000Y-103005000D02*
X164840000Y-101660000D01*
%TO.N,Net-(U1-CHG)*%
X165345000Y-100000000D02*
X162775000Y-100000000D01*
X166295000Y-100950000D02*
X165345000Y-100000000D01*
%TD*%
%TA.AperFunction,Conductor*%
%TO.N,Net-(U6-LX1)*%
G36*
X165828220Y-90184742D02*
G01*
X165849058Y-90215924D01*
X165850000Y-90225486D01*
X165850000Y-91651000D01*
X165835648Y-91685648D01*
X165801000Y-91700000D01*
X163999000Y-91700000D01*
X163964352Y-91685648D01*
X163950000Y-91651000D01*
X163950000Y-90600000D01*
X163582729Y-90600000D01*
X163573555Y-90599133D01*
X163498898Y-90584903D01*
X163498892Y-90584902D01*
X163498890Y-90584902D01*
X163498888Y-90584902D01*
X163498878Y-90584901D01*
X163149392Y-90587696D01*
X163149196Y-90587616D01*
X163149000Y-90587698D01*
X163131822Y-90580582D01*
X163114630Y-90573622D01*
X163114547Y-90573426D01*
X163114352Y-90573346D01*
X163107241Y-90556180D01*
X163100002Y-90539090D01*
X163100000Y-90538698D01*
X163100000Y-90454500D01*
X163114352Y-90419852D01*
X163149000Y-90405500D01*
X163826000Y-90405500D01*
X163848915Y-90400942D01*
X163858475Y-90400000D01*
X164050000Y-90400000D01*
X164050000Y-90275257D01*
X164052698Y-90259222D01*
X164053173Y-90257848D01*
X164064857Y-90229643D01*
X164067441Y-90216647D01*
X164068544Y-90213465D01*
X164078933Y-90201763D01*
X164087625Y-90188757D01*
X164091535Y-90187570D01*
X164093444Y-90185421D01*
X164099883Y-90185038D01*
X164114846Y-90180500D01*
X165775999Y-90180500D01*
X165776000Y-90180500D01*
X165791441Y-90177428D01*
X165828220Y-90184742D01*
G37*
%TD.AperFunction*%
%TD*%
%TA.AperFunction,Conductor*%
%TO.N,Net-(U6-LX2)*%
G36*
X165810648Y-88539352D02*
G01*
X165825000Y-88574000D01*
X165825000Y-89926000D01*
X165810648Y-89960648D01*
X165776000Y-89975000D01*
X163875000Y-89975000D01*
X163875000Y-90151000D01*
X163860648Y-90185648D01*
X163826000Y-90200000D01*
X163149000Y-90200000D01*
X163114352Y-90185648D01*
X163100000Y-90151000D01*
X163100000Y-90049000D01*
X163114352Y-90014352D01*
X163149000Y-90000000D01*
X163700000Y-90000000D01*
X163700000Y-89849000D01*
X163714352Y-89814352D01*
X163749000Y-89800000D01*
X164075000Y-89800000D01*
X164075000Y-88574000D01*
X164089352Y-88539352D01*
X164124000Y-88525000D01*
X165776000Y-88525000D01*
X165810648Y-88539352D01*
G37*
%TD.AperFunction*%
%TD*%
%TA.AperFunction,Conductor*%
%TO.N,VCC_BMS*%
G36*
X163360867Y-99115166D02*
G01*
X163346493Y-99149805D01*
X163311836Y-99164135D01*
X163311649Y-99164135D01*
X161549793Y-99156305D01*
X161515209Y-99141799D01*
X161501011Y-99107087D01*
X161501014Y-99106772D01*
X161524880Y-96910991D01*
X161529805Y-96890112D01*
X162314726Y-95275000D01*
X163363277Y-95275000D01*
X163360867Y-99115166D01*
G37*
%TD.AperFunction*%
%TD*%
%TA.AperFunction,Conductor*%
%TO.N,VBUS 5V*%
G36*
X158785648Y-87914352D02*
G01*
X158800000Y-87949000D01*
X158800000Y-91700000D01*
X156750000Y-91700000D01*
X156750000Y-91900000D01*
X153249000Y-91900000D01*
X153214352Y-91885648D01*
X153200000Y-91851000D01*
X153200000Y-87949000D01*
X153214352Y-87914352D01*
X153249000Y-87900000D01*
X158751000Y-87900000D01*
X158785648Y-87914352D01*
G37*
%TD.AperFunction*%
%TD*%
%TA.AperFunction,Conductor*%
%TO.N,GND*%
G36*
X162880148Y-90014352D02*
G01*
X162894500Y-90049000D01*
X162894500Y-90151003D01*
X162899058Y-90173914D01*
X162900000Y-90183474D01*
X162900000Y-90422021D01*
X162899059Y-90431579D01*
X162894500Y-90454501D01*
X162894500Y-90538768D01*
X162894503Y-90539816D01*
X162894508Y-90540878D01*
X162880332Y-90575598D01*
X162845901Y-90590124D01*
X162347029Y-90594116D01*
X162347017Y-90594118D01*
X162323361Y-90598992D01*
X162313473Y-90600000D01*
X162100000Y-90600000D01*
X161574000Y-90600000D01*
X161539352Y-90585648D01*
X161525000Y-90551000D01*
X161525000Y-90049000D01*
X161539352Y-90014352D01*
X161574000Y-90000000D01*
X162845500Y-90000000D01*
X162880148Y-90014352D01*
G37*
%TD.AperFunction*%
%TD*%
%TA.AperFunction,Conductor*%
%TO.N,VBUS 5V*%
G36*
X159976558Y-99048029D02*
G01*
X160011040Y-99062774D01*
X160025000Y-99097026D01*
X160025000Y-99876000D01*
X160010648Y-99910648D01*
X159976000Y-99925000D01*
X158300469Y-99925000D01*
X158800000Y-99923960D01*
X158800000Y-99034659D01*
X159976558Y-99048029D01*
G37*
%TD.AperFunction*%
%TD*%
%TA.AperFunction,Conductor*%
%TO.N,/PWR-MGR-01/BATT+*%
G36*
X163700000Y-112781000D02*
G01*
X163685648Y-112815648D01*
X163651000Y-112830000D01*
X155259000Y-112830000D01*
X155224352Y-112815648D01*
X155210000Y-112781000D01*
X155210000Y-110419000D01*
X155224352Y-110384352D01*
X155259000Y-110370000D01*
X161625000Y-110370000D01*
X163700000Y-110370000D01*
X163700000Y-112781000D01*
G37*
%TD.AperFunction*%
%TD*%
%TA.AperFunction,Conductor*%
%TO.N,VBUS 5V*%
G36*
X158800000Y-99923960D02*
G01*
X158117752Y-99925380D01*
X156799102Y-99928125D01*
X156764424Y-99913845D01*
X156750000Y-99879227D01*
X156750000Y-98929191D01*
X157200001Y-98929191D01*
X157200002Y-98929215D01*
X157202850Y-98959602D01*
X157202851Y-98959608D01*
X157247651Y-99087640D01*
X157247655Y-99087648D01*
X157328207Y-99196792D01*
X157437351Y-99277344D01*
X157437359Y-99277348D01*
X157565395Y-99322149D01*
X157595785Y-99324999D01*
X157649999Y-99324999D01*
X158150000Y-99324999D01*
X158204191Y-99324999D01*
X158204215Y-99324997D01*
X158234602Y-99322149D01*
X158234608Y-99322148D01*
X158362640Y-99277348D01*
X158362648Y-99277344D01*
X158471792Y-99196792D01*
X158552344Y-99087648D01*
X158552348Y-99087640D01*
X158597149Y-98959605D01*
X158597149Y-98959603D01*
X158599998Y-98929214D01*
X158600000Y-98929193D01*
X158600000Y-98650000D01*
X158150000Y-98650000D01*
X158150000Y-99324999D01*
X157649999Y-99324999D01*
X157650000Y-99324998D01*
X157650000Y-98650000D01*
X157200001Y-98650000D01*
X157200001Y-98929191D01*
X156750000Y-98929191D01*
X156750000Y-97870806D01*
X157200000Y-97870806D01*
X157200000Y-98150000D01*
X157650000Y-98150000D01*
X158150000Y-98150000D01*
X158599999Y-98150000D01*
X158599999Y-97870808D01*
X158599997Y-97870784D01*
X158597149Y-97840397D01*
X158597148Y-97840391D01*
X158552348Y-97712359D01*
X158552344Y-97712351D01*
X158471792Y-97603207D01*
X158362648Y-97522655D01*
X158362640Y-97522651D01*
X158234604Y-97477850D01*
X158204214Y-97475001D01*
X158204193Y-97475000D01*
X158150000Y-97475000D01*
X158150000Y-98150000D01*
X157650000Y-98150000D01*
X157650000Y-97475000D01*
X157595796Y-97475000D01*
X157565397Y-97477850D01*
X157565391Y-97477851D01*
X157437359Y-97522651D01*
X157437351Y-97522655D01*
X157328207Y-97603207D01*
X157247655Y-97712351D01*
X157247651Y-97712359D01*
X157202850Y-97840394D01*
X157202850Y-97840396D01*
X157200001Y-97870785D01*
X157200000Y-97870806D01*
X156750000Y-97870806D01*
X156750000Y-91900000D01*
X156750000Y-91700000D01*
X158800000Y-91700000D01*
X158800000Y-99923960D01*
G37*
%TD.AperFunction*%
%TD*%
%TA.AperFunction,Conductor*%
%TO.N,VCC_BMS*%
G36*
X163535295Y-90804469D02*
G01*
X163549923Y-90839001D01*
X163549925Y-90839579D01*
X163533288Y-95226186D01*
X163518805Y-95260779D01*
X163484288Y-95275000D01*
X162314726Y-95275000D01*
X162300062Y-90848768D01*
X162314299Y-90814075D01*
X162348667Y-90799610D01*
X163500534Y-90790395D01*
X163535295Y-90804469D01*
G37*
%TD.AperFunction*%
%TD*%
%TA.AperFunction,Conductor*%
%TO.N,/PWR-MGR-01/BATT+*%
G36*
X162510486Y-104055346D02*
G01*
X162962183Y-104285622D01*
X163673255Y-104648128D01*
X163697605Y-104676650D01*
X163700000Y-104691782D01*
X163700000Y-110370000D01*
X161625000Y-110370000D01*
X161625000Y-105915655D01*
X161625419Y-105909261D01*
X161625500Y-105908645D01*
X161625500Y-104099000D01*
X161639852Y-104064352D01*
X161674500Y-104050000D01*
X162488231Y-104050000D01*
X162510486Y-104055346D01*
G37*
%TD.AperFunction*%
%TD*%
M02*
