M48
; DRILL file {KiCad 9.0.3} date 2025-12-21T14:27:19-0600
; FORMAT={-:-/ absolute / metric / decimal}
; #@! TF.CreationDate,2025-12-21T14:27:19-06:00
; #@! TF.GenerationSoftware,Kicad,Pcbnew,9.0.3
; #@! TF.FileFunction,MixedPlating,1,2
FMAT,2
METRIC
; #@! TA.AperFunction,Plated,PTH,ViaDrill
T1C0.300
; #@! TA.AperFunction,Plated,PTH,ComponentDrill
T2C0.600
; #@! TA.AperFunction,Plated,PTH,ComponentDrill
T3C0.800
; #@! TA.AperFunction,Plated,PTH,ComponentDrill
T4C1.000
; #@! TA.AperFunction,NonPlated,NPTH,ComponentDrill
T5C0.650
; #@! TA.AperFunction,NonPlated,NPTH,ComponentDrill
T6C2.100
%
G90
G05
T1
X143.0Y-91.0
X143.0Y-103.0
X147.0Y-91.0
X147.1Y-103.0
X150.0Y-103.4
X150.1Y-97.0
X153.0Y-92.5
X154.2Y-92.5
X156.0Y-96.95
X156.05Y-104.65
X156.175Y-103.4
X157.425Y-106.55
X159.325Y-102.1
X159.84Y-92.85
X160.15Y-94.55
X160.735Y-92.875
X161.775Y-92.525
X162.025Y-101.475
X163.7Y-103.9
X164.225Y-104.925
X164.69Y-95.94
X164.92Y-100.82
X166.225Y-92.9
X166.45Y-88.6
T3
X152.95Y-101.05
X154.95Y-101.05
T4
X153.54Y-83.54
X153.54Y-111.645
X156.04Y-83.54
X156.04Y-111.645
T5
X146.34Y-94.2
X146.34Y-99.98
T6
X143.0Y-83.0
X143.0Y-112.0
X167.0Y-83.0
X167.0Y-112.0
T2
G00X143.06Y-92.77
M15
G01X142.26Y-92.77
M16
G05
G00X143.06Y-101.41
M15
G01X142.26Y-101.41
M16
G05
G00X147.39Y-92.77
M15
G01X146.29Y-92.77
M16
G05
G00X147.39Y-101.41
M15
G01X146.29Y-101.41
M16
G05
M30
